G04 #@! TF.GenerationSoftware,KiCad,Pcbnew,(6.0.10)*
G04 #@! TF.CreationDate,2023-02-14T21:15:34-05:00*
G04 #@! TF.ProjectId,lipo_charger,6c69706f-5f63-4686-9172-6765722e6b69,rev?*
G04 #@! TF.SameCoordinates,Original*
G04 #@! TF.FileFunction,Copper,L1,Top*
G04 #@! TF.FilePolarity,Positive*
%FSLAX46Y46*%
G04 Gerber Fmt 4.6, Leading zero omitted, Abs format (unit mm)*
G04 Created by KiCad (PCBNEW (6.0.10)) date 2023-02-14 21:15:34*
%MOMM*%
%LPD*%
G01*
G04 APERTURE LIST*
G04 Aperture macros list*
%AMRoundRect*
0 Rectangle with rounded corners*
0 $1 Rounding radius*
0 $2 $3 $4 $5 $6 $7 $8 $9 X,Y pos of 4 corners*
0 Add a 4 corners polygon primitive as box body*
4,1,4,$2,$3,$4,$5,$6,$7,$8,$9,$2,$3,0*
0 Add four circle primitives for the rounded corners*
1,1,$1+$1,$2,$3*
1,1,$1+$1,$4,$5*
1,1,$1+$1,$6,$7*
1,1,$1+$1,$8,$9*
0 Add four rect primitives between the rounded corners*
20,1,$1+$1,$2,$3,$4,$5,0*
20,1,$1+$1,$4,$5,$6,$7,0*
20,1,$1+$1,$6,$7,$8,$9,0*
20,1,$1+$1,$8,$9,$2,$3,0*%
G04 Aperture macros list end*
G04 #@! TA.AperFunction,ComponentPad*
%ADD10R,1.700000X1.700000*%
G04 #@! TD*
G04 #@! TA.AperFunction,ComponentPad*
%ADD11O,1.700000X1.700000*%
G04 #@! TD*
G04 #@! TA.AperFunction,SMDPad,CuDef*
%ADD12RoundRect,0.150000X0.512500X0.150000X-0.512500X0.150000X-0.512500X-0.150000X0.512500X-0.150000X0*%
G04 #@! TD*
G04 #@! TA.AperFunction,SMDPad,CuDef*
%ADD13RoundRect,0.250000X-2.500000X0.250000X-2.500000X-0.250000X2.500000X-0.250000X2.500000X0.250000X0*%
G04 #@! TD*
G04 #@! TA.AperFunction,SMDPad,CuDef*
%ADD14RoundRect,0.250000X-1.250000X0.550000X-1.250000X-0.550000X1.250000X-0.550000X1.250000X0.550000X0*%
G04 #@! TD*
G04 #@! TA.AperFunction,ComponentPad*
%ADD15O,2.200000X3.500000*%
G04 #@! TD*
G04 #@! TA.AperFunction,ComponentPad*
%ADD16R,1.500000X2.500000*%
G04 #@! TD*
G04 #@! TA.AperFunction,ComponentPad*
%ADD17O,1.500000X2.500000*%
G04 #@! TD*
G04 #@! TA.AperFunction,SMDPad,CuDef*
%ADD18RoundRect,0.250000X0.250000X0.475000X-0.250000X0.475000X-0.250000X-0.475000X0.250000X-0.475000X0*%
G04 #@! TD*
G04 #@! TA.AperFunction,SMDPad,CuDef*
%ADD19RoundRect,0.250000X-0.350000X-0.450000X0.350000X-0.450000X0.350000X0.450000X-0.350000X0.450000X0*%
G04 #@! TD*
G04 #@! TA.AperFunction,SMDPad,CuDef*
%ADD20RoundRect,0.250000X-0.450000X0.350000X-0.450000X-0.350000X0.450000X-0.350000X0.450000X0.350000X0*%
G04 #@! TD*
G04 #@! TA.AperFunction,SMDPad,CuDef*
%ADD21RoundRect,0.243750X0.456250X-0.243750X0.456250X0.243750X-0.456250X0.243750X-0.456250X-0.243750X0*%
G04 #@! TD*
G04 #@! TA.AperFunction,SMDPad,CuDef*
%ADD22R,0.750000X0.300000*%
G04 #@! TD*
G04 #@! TA.AperFunction,SMDPad,CuDef*
%ADD23R,1.600000X1.500000*%
G04 #@! TD*
G04 #@! TA.AperFunction,SMDPad,CuDef*
%ADD24RoundRect,0.218750X-0.218750X-0.381250X0.218750X-0.381250X0.218750X0.381250X-0.218750X0.381250X0*%
G04 #@! TD*
G04 #@! TA.AperFunction,SMDPad,CuDef*
%ADD25RoundRect,0.250000X0.475000X-0.250000X0.475000X0.250000X-0.475000X0.250000X-0.475000X-0.250000X0*%
G04 #@! TD*
G04 #@! TA.AperFunction,SMDPad,CuDef*
%ADD26R,1.400000X0.400000*%
G04 #@! TD*
G04 #@! TA.AperFunction,ComponentPad*
%ADD27O,1.900000X1.050000*%
G04 #@! TD*
G04 #@! TA.AperFunction,SMDPad,CuDef*
%ADD28R,1.900000X1.750000*%
G04 #@! TD*
G04 #@! TA.AperFunction,SMDPad,CuDef*
%ADD29R,1.450000X1.150000*%
G04 #@! TD*
G04 #@! TA.AperFunction,ViaPad*
%ADD30C,0.800000*%
G04 #@! TD*
G04 #@! TA.AperFunction,Conductor*
%ADD31C,0.150000*%
G04 #@! TD*
G04 #@! TA.AperFunction,Conductor*
%ADD32C,0.300000*%
G04 #@! TD*
G04 APERTURE END LIST*
D10*
X135382000Y-104140000D03*
D11*
X135382000Y-106680000D03*
D12*
X136937500Y-117250000D03*
X136937500Y-116300000D03*
X136937500Y-115350000D03*
X134662500Y-115350000D03*
X134662500Y-117250000D03*
D13*
X159782000Y-110490000D03*
X159782000Y-112490000D03*
D14*
X162032000Y-108090000D03*
X162032000Y-114890000D03*
D15*
X145538000Y-104140000D03*
X153738000Y-104140000D03*
D16*
X151638000Y-104140000D03*
D17*
X149638000Y-104140000D03*
X147638000Y-104140000D03*
D18*
X136450000Y-120400000D03*
X134550000Y-120400000D03*
D12*
X148863900Y-110855800D03*
X148863900Y-109905800D03*
X148863900Y-108955800D03*
X146588900Y-108955800D03*
X146588900Y-109905800D03*
X146588900Y-110855800D03*
D19*
X146726400Y-118872000D03*
X148726400Y-118872000D03*
X134500000Y-111000000D03*
X136500000Y-111000000D03*
D20*
X152654000Y-117872000D03*
X152654000Y-119872000D03*
D21*
X152654000Y-123795000D03*
X152654000Y-121920000D03*
D22*
X140354900Y-112288600D03*
X140354900Y-112788600D03*
X140354900Y-113288600D03*
X140354900Y-113788600D03*
X143659900Y-113788600D03*
X143659900Y-113288600D03*
X143659900Y-112788600D03*
X143659900Y-112288600D03*
D23*
X142029900Y-113038600D03*
D21*
X156210000Y-123873500D03*
X156210000Y-121998500D03*
D24*
X140923500Y-115798600D03*
X143048500Y-115798600D03*
D25*
X153822400Y-115377000D03*
X153822400Y-113477000D03*
D12*
X148838500Y-116850200D03*
X148838500Y-115900200D03*
X148838500Y-114950200D03*
X146563500Y-114950200D03*
X146563500Y-116850200D03*
D20*
X153695400Y-108956600D03*
X153695400Y-110956600D03*
X156210000Y-117872000D03*
X156210000Y-119872000D03*
D18*
X142961400Y-108864400D03*
X141061400Y-108864400D03*
D26*
X160830000Y-123280000D03*
X160830000Y-122630000D03*
X160830000Y-121980000D03*
X160830000Y-121330000D03*
X160830000Y-120680000D03*
D27*
X163480000Y-118405000D03*
D28*
X163480000Y-123105000D03*
X163480000Y-120855000D03*
D29*
X161250000Y-124300000D03*
X161250000Y-119660000D03*
D27*
X163480000Y-125555000D03*
D30*
X150368000Y-110236000D03*
X148800000Y-106000000D03*
X143800000Y-118400000D03*
X146100000Y-113200000D03*
D31*
X152654000Y-117872000D02*
X156210000Y-117872000D01*
X152654000Y-117872000D02*
X149826000Y-120700000D01*
X149826000Y-120700000D02*
X140387500Y-120700000D01*
X140387500Y-120700000D02*
X136937500Y-117250000D01*
X156210000Y-123873500D02*
X155235000Y-122898500D01*
X155235000Y-120847000D02*
X156210000Y-119872000D01*
X155235000Y-122898500D02*
X155235000Y-120847000D01*
D32*
X139679900Y-112288600D02*
X139629900Y-112338600D01*
X146667700Y-111505800D02*
X151146200Y-111505800D01*
X143048500Y-114400000D02*
X143659900Y-113788600D01*
X158248600Y-108956600D02*
X159782000Y-110490000D01*
X139629900Y-115909334D02*
X140469166Y-116748600D01*
X143048500Y-115798600D02*
X143048500Y-114400000D01*
X140469166Y-116748600D02*
X142098500Y-116748600D01*
X139629900Y-115329900D02*
X139629900Y-115909334D01*
X139629900Y-112338600D02*
X139629900Y-115070100D01*
X143659900Y-113788600D02*
X144384900Y-113788600D01*
X139629900Y-115070100D02*
X139629900Y-115329900D01*
X140354900Y-112288600D02*
X139679900Y-112288600D01*
X144384900Y-113788600D02*
X146667700Y-111505800D01*
X136937500Y-115350000D02*
X139609800Y-115350000D01*
X151146200Y-111505800D02*
X153695400Y-108956600D01*
X139609800Y-115350000D02*
X139629900Y-115329900D01*
X142098500Y-116748600D02*
X143048500Y-115798600D01*
X153695400Y-108956600D02*
X158248600Y-108956600D01*
D31*
X153695400Y-110956600D02*
X153695400Y-113350000D01*
X148651000Y-113477000D02*
X147901000Y-114227000D01*
X153695400Y-113350000D02*
X153822400Y-113477000D01*
X147901000Y-114227000D02*
X147901000Y-115276241D01*
X147901000Y-115276241D02*
X148524959Y-115900200D01*
X148524959Y-115900200D02*
X148838500Y-115900200D01*
X153822400Y-113477000D02*
X148651000Y-113477000D01*
D32*
X162125000Y-124460000D02*
X161410000Y-124460000D01*
X141061400Y-108864400D02*
X141061400Y-110073400D01*
X163480000Y-120855000D02*
X163480000Y-123105000D01*
X160830000Y-120680000D02*
X160830000Y-120080000D01*
X154810000Y-121639000D02*
X154810000Y-119623472D01*
X140354900Y-113045100D02*
X140354900Y-113288600D01*
X146448400Y-119150000D02*
X146726400Y-118872000D01*
X135382000Y-110118000D02*
X134500000Y-111000000D01*
X141061400Y-110073400D02*
X142029900Y-111041900D01*
X161250000Y-119660000D02*
X162285000Y-119660000D01*
X161410000Y-124460000D02*
X161250000Y-124300000D01*
X135382000Y-106680000D02*
X138877000Y-106680000D01*
X163480000Y-123105000D02*
X162125000Y-124460000D01*
X155511472Y-118922000D02*
X160512000Y-118922000D01*
X142029900Y-111041900D02*
X142029900Y-113038600D01*
X150368000Y-118878928D02*
X150368000Y-118364000D01*
X163480000Y-125555000D02*
X163480000Y-123105000D01*
X150368000Y-110236000D02*
X150037800Y-109905800D01*
X136937500Y-116300000D02*
X136517893Y-116300000D01*
X136937500Y-116300000D02*
X138357107Y-116300000D01*
X140354900Y-113045100D02*
X140361400Y-113038600D01*
X154810000Y-119623472D02*
X155511472Y-118922000D01*
X150037800Y-109905800D02*
X148863900Y-109905800D01*
X160830000Y-120080000D02*
X161250000Y-119660000D01*
X160512000Y-118922000D02*
X161250000Y-119660000D01*
X147776400Y-119922000D02*
X149324928Y-119922000D01*
X163480000Y-118405000D02*
X163480000Y-120855000D01*
X149324928Y-119922000D02*
X150368000Y-118878928D01*
X152654000Y-123795000D02*
X154810000Y-121639000D01*
X140354900Y-112788600D02*
X140354900Y-113045100D01*
X140361400Y-113038600D02*
X142029900Y-113038600D01*
X150368000Y-118364000D02*
X151892000Y-116840000D01*
X135925000Y-116892893D02*
X135925000Y-119875000D01*
X135382000Y-106680000D02*
X135382000Y-110118000D01*
X151892000Y-116840000D02*
X161915000Y-116840000D01*
X146726400Y-118872000D02*
X147776400Y-119922000D01*
X136517893Y-116300000D02*
X135925000Y-116892893D01*
X138877000Y-106680000D02*
X141061400Y-108864400D01*
X161915000Y-116840000D02*
X163480000Y-118405000D01*
X162285000Y-119660000D02*
X163480000Y-120855000D01*
X135925000Y-119875000D02*
X136450000Y-120400000D01*
X141207107Y-119150000D02*
X146448400Y-119150000D01*
X138357107Y-116300000D02*
X141207107Y-119150000D01*
D31*
X148838500Y-116850200D02*
X148838500Y-118759900D01*
X148838500Y-118759900D02*
X148726400Y-118872000D01*
X152654000Y-119872000D02*
X152654000Y-121920000D01*
X134850000Y-117250000D02*
X135700000Y-116400000D01*
X134662500Y-117250000D02*
X134850000Y-117250000D01*
X135700000Y-111800000D02*
X136500000Y-111000000D01*
X135700000Y-116400000D02*
X135700000Y-111800000D01*
D32*
X147638000Y-104140000D02*
X147638000Y-109276307D01*
X147638000Y-104140000D02*
X147638000Y-102982000D01*
X153822400Y-115377000D02*
X156895000Y-115377000D01*
X162210000Y-112490000D02*
X159782000Y-112490000D01*
X147638000Y-109276307D02*
X147008507Y-109905800D01*
X147008507Y-109905800D02*
X146588900Y-109905800D01*
X148838500Y-114950200D02*
X153395600Y-114950200D01*
X153395600Y-114950200D02*
X153822400Y-115377000D01*
X147638000Y-102982000D02*
X148580000Y-102040000D01*
X164100000Y-105000000D02*
X164100000Y-110600000D01*
X164100000Y-110600000D02*
X162210000Y-112490000D01*
X148580000Y-102040000D02*
X161140000Y-102040000D01*
X161140000Y-102040000D02*
X164100000Y-105000000D01*
X156895000Y-115377000D02*
X159782000Y-112490000D01*
X134662500Y-115350000D02*
X133650000Y-116362500D01*
X156823189Y-124800000D02*
X138950000Y-124800000D01*
X157491500Y-124131689D02*
X156823189Y-124800000D01*
X157491500Y-123280000D02*
X157491500Y-124131689D01*
X133650000Y-116362500D02*
X133650000Y-119500000D01*
X133650000Y-119500000D02*
X134550000Y-120400000D01*
X156210000Y-121998500D02*
X157491500Y-123280000D01*
X159320000Y-123280000D02*
X160830000Y-123280000D01*
X138950000Y-124800000D02*
X134550000Y-120400000D01*
X157491500Y-123280000D02*
X159320000Y-123280000D01*
D31*
X140354900Y-115230000D02*
X140354900Y-113788600D01*
X140923500Y-115798600D02*
X140354900Y-115230000D01*
D32*
X138237000Y-104140000D02*
X142961400Y-108864400D01*
X144780000Y-110683000D02*
X142961400Y-108864400D01*
X143659900Y-112788600D02*
X144334900Y-112788600D01*
X135382000Y-104140000D02*
X138237000Y-104140000D01*
X144334900Y-112788600D02*
X144780000Y-112343500D01*
X144780000Y-112343500D02*
X144780000Y-110683000D01*
D31*
X145349800Y-116850200D02*
X143800000Y-118400000D01*
X148800000Y-108891900D02*
X148863900Y-108955800D01*
X148800000Y-106000000D02*
X148800000Y-108891900D01*
X146563500Y-116850200D02*
X145349800Y-116850200D01*
X149638000Y-105188000D02*
X149638000Y-104140000D01*
X151043000Y-110515595D02*
X151043000Y-106593000D01*
X148919100Y-110911000D02*
X150647595Y-110911000D01*
X150647595Y-110911000D02*
X151043000Y-110515595D01*
X151043000Y-106593000D02*
X149638000Y-105188000D01*
X148863900Y-110855800D02*
X148919100Y-110911000D01*
D32*
X146588900Y-108955800D02*
X146169293Y-108955800D01*
X145576400Y-110262907D02*
X146169293Y-110855800D01*
X145576400Y-109548693D02*
X145576400Y-110262907D01*
X146169293Y-110855800D02*
X146588900Y-110855800D01*
X146169293Y-108955800D02*
X145576400Y-109548693D01*
D31*
X146100000Y-113200000D02*
X146563500Y-113663500D01*
X146563500Y-113663500D02*
X146563500Y-114950200D01*
M02*
