%TF.GenerationSoftware,KiCad,Pcbnew,(6.0.10)*%
%TF.CreationDate,2023-02-14T21:16:01-05:00*%
%TF.ProjectId,lipo_charger,6c69706f-5f63-4686-9172-6765722e6b69,rev?*%
%TF.SameCoordinates,Original*%
%TF.FileFunction,Drillmap*%
%TF.FilePolarity,Positive*%
%FSLAX45Y45*%
G04 Gerber Fmt 4.5, Leading zero omitted, Abs format (unit mm)*
G04 Created by KiCad (PCBNEW (6.0.10)) date 2023-02-14 21:16:01*
%MOMM*%
%LPD*%
G01*
G04 APERTURE LIST*
%ADD10C,0.100000*%
%ADD11C,0.200000*%
G04 APERTURE END LIST*
D10*
X16510000Y-10160000D02*
X16510000Y-12700000D01*
X13284200Y-12700000D02*
X15494000Y-12700000D01*
X16510000Y-12700000D02*
X15494000Y-12700000D01*
X15240000Y-10160000D02*
X13284200Y-10160000D01*
X16510000Y-10160000D02*
X15240000Y-10160000D01*
X13284200Y-10160000D02*
X13284200Y-12700000D01*
D11*
X13536819Y-13015476D02*
X13536819Y-12815476D01*
X13584438Y-12815476D01*
X13613009Y-12825000D01*
X13632057Y-12844048D01*
X13641581Y-12863095D01*
X13651105Y-12901190D01*
X13651105Y-12929762D01*
X13641581Y-12967857D01*
X13632057Y-12986905D01*
X13613009Y-13005952D01*
X13584438Y-13015476D01*
X13536819Y-13015476D01*
X13736819Y-13015476D02*
X13736819Y-12882143D01*
X13736819Y-12920238D02*
X13746343Y-12901190D01*
X13755867Y-12891667D01*
X13774914Y-12882143D01*
X13793962Y-12882143D01*
X13860628Y-13015476D02*
X13860628Y-12882143D01*
X13860628Y-12815476D02*
X13851105Y-12825000D01*
X13860628Y-12834524D01*
X13870152Y-12825000D01*
X13860628Y-12815476D01*
X13860628Y-12834524D01*
X13984438Y-13015476D02*
X13965390Y-13005952D01*
X13955867Y-12986905D01*
X13955867Y-12815476D01*
X14089200Y-13015476D02*
X14070152Y-13005952D01*
X14060628Y-12986905D01*
X14060628Y-12815476D01*
X14317771Y-13015476D02*
X14317771Y-12815476D01*
X14384438Y-12958333D01*
X14451105Y-12815476D01*
X14451105Y-13015476D01*
X14632057Y-13015476D02*
X14632057Y-12910714D01*
X14622533Y-12891667D01*
X14603486Y-12882143D01*
X14565390Y-12882143D01*
X14546343Y-12891667D01*
X14632057Y-13005952D02*
X14613009Y-13015476D01*
X14565390Y-13015476D01*
X14546343Y-13005952D01*
X14536819Y-12986905D01*
X14536819Y-12967857D01*
X14546343Y-12948809D01*
X14565390Y-12939286D01*
X14613009Y-12939286D01*
X14632057Y-12929762D01*
X14727295Y-12882143D02*
X14727295Y-13082143D01*
X14727295Y-12891667D02*
X14746343Y-12882143D01*
X14784438Y-12882143D01*
X14803486Y-12891667D01*
X14813009Y-12901190D01*
X14822533Y-12920238D01*
X14822533Y-12977381D01*
X14813009Y-12996428D01*
X14803486Y-13005952D01*
X14784438Y-13015476D01*
X14746343Y-13015476D01*
X14727295Y-13005952D01*
X14908248Y-12996428D02*
X14917771Y-13005952D01*
X14908248Y-13015476D01*
X14898724Y-13005952D01*
X14908248Y-12996428D01*
X14908248Y-13015476D01*
X14908248Y-12891667D02*
X14917771Y-12901190D01*
X14908248Y-12910714D01*
X14898724Y-12901190D01*
X14908248Y-12891667D01*
X14908248Y-12910714D01*
M02*
