%TF.GenerationSoftware,KiCad,Pcbnew,(6.0.10)*%
%TF.CreationDate,2023-02-04T18:20:05-05:00*%
%TF.ProjectId,lipo_charger,6c69706f-5f63-4686-9172-6765722e6b69,rev?*%
%TF.SameCoordinates,Original*%
%TF.FileFunction,Copper,L1,Top*%
%TF.FilePolarity,Positive*%
%FSLAX46Y46*%
G04 Gerber Fmt 4.6, Leading zero omitted, Abs format (unit mm)*
G04 Created by KiCad (PCBNEW (6.0.10)) date 2023-02-04 18:20:05*
%MOMM*%
%LPD*%
G01*
G04 APERTURE LIST*
G04 Aperture macros list*
%AMRoundRect*
0 Rectangle with rounded corners*
0 $1 Rounding radius*
0 $2 $3 $4 $5 $6 $7 $8 $9 X,Y pos of 4 corners*
0 Add a 4 corners polygon primitive as box body*
4,1,4,$2,$3,$4,$5,$6,$7,$8,$9,$2,$3,0*
0 Add four circle primitives for the rounded corners*
1,1,$1+$1,$2,$3*
1,1,$1+$1,$4,$5*
1,1,$1+$1,$6,$7*
1,1,$1+$1,$8,$9*
0 Add four rect primitives between the rounded corners*
20,1,$1+$1,$2,$3,$4,$5,0*
20,1,$1+$1,$4,$5,$6,$7,0*
20,1,$1+$1,$6,$7,$8,$9,0*
20,1,$1+$1,$8,$9,$2,$3,0*%
G04 Aperture macros list end*
%TA.AperFunction,ComponentPad*%
%ADD10R,1.700000X1.700000*%
%TD*%
%TA.AperFunction,ComponentPad*%
%ADD11O,1.700000X1.700000*%
%TD*%
%TA.AperFunction,SMDPad,CuDef*%
%ADD12RoundRect,0.250000X-2.500000X0.250000X-2.500000X-0.250000X2.500000X-0.250000X2.500000X0.250000X0*%
%TD*%
%TA.AperFunction,SMDPad,CuDef*%
%ADD13RoundRect,0.250000X-1.250000X0.550000X-1.250000X-0.550000X1.250000X-0.550000X1.250000X0.550000X0*%
%TD*%
%TA.AperFunction,SMDPad,CuDef*%
%ADD14RoundRect,0.250000X-0.250000X-0.475000X0.250000X-0.475000X0.250000X0.475000X-0.250000X0.475000X0*%
%TD*%
%TA.AperFunction,ComponentPad*%
%ADD15O,2.200000X3.500000*%
%TD*%
%TA.AperFunction,ComponentPad*%
%ADD16R,1.500000X2.500000*%
%TD*%
%TA.AperFunction,ComponentPad*%
%ADD17O,1.500000X2.500000*%
%TD*%
%TA.AperFunction,SMDPad,CuDef*%
%ADD18R,0.420000X0.600000*%
%TD*%
%TA.AperFunction,SMDPad,CuDef*%
%ADD19RoundRect,0.250000X0.350000X0.450000X-0.350000X0.450000X-0.350000X-0.450000X0.350000X-0.450000X0*%
%TD*%
%TA.AperFunction,SMDPad,CuDef*%
%ADD20RoundRect,0.250000X-0.350000X-0.450000X0.350000X-0.450000X0.350000X0.450000X-0.350000X0.450000X0*%
%TD*%
%TA.AperFunction,SMDPad,CuDef*%
%ADD21RoundRect,0.243750X0.456250X-0.243750X0.456250X0.243750X-0.456250X0.243750X-0.456250X-0.243750X0*%
%TD*%
%TA.AperFunction,SMDPad,CuDef*%
%ADD22RoundRect,0.150000X-0.512500X-0.150000X0.512500X-0.150000X0.512500X0.150000X-0.512500X0.150000X0*%
%TD*%
%TA.AperFunction,SMDPad,CuDef*%
%ADD23RoundRect,0.062500X-0.337500X-0.062500X0.337500X-0.062500X0.337500X0.062500X-0.337500X0.062500X0*%
%TD*%
%TA.AperFunction,SMDPad,CuDef*%
%ADD24R,1.700000X1.400000*%
%TD*%
%TA.AperFunction,SMDPad,CuDef*%
%ADD25RoundRect,0.218750X-0.218750X-0.381250X0.218750X-0.381250X0.218750X0.381250X-0.218750X0.381250X0*%
%TD*%
%TA.AperFunction,SMDPad,CuDef*%
%ADD26RoundRect,0.150000X0.512500X0.150000X-0.512500X0.150000X-0.512500X-0.150000X0.512500X-0.150000X0*%
%TD*%
%TA.AperFunction,SMDPad,CuDef*%
%ADD27RoundRect,0.250000X0.250000X0.475000X-0.250000X0.475000X-0.250000X-0.475000X0.250000X-0.475000X0*%
%TD*%
%TA.AperFunction,SMDPad,CuDef*%
%ADD28R,1.400000X0.400000*%
%TD*%
%TA.AperFunction,ComponentPad*%
%ADD29O,1.900000X1.050000*%
%TD*%
%TA.AperFunction,SMDPad,CuDef*%
%ADD30R,1.900000X1.750000*%
%TD*%
%TA.AperFunction,SMDPad,CuDef*%
%ADD31R,1.450000X1.150000*%
%TD*%
%TA.AperFunction,ViaPad*%
%ADD32C,0.800000*%
%TD*%
%TA.AperFunction,Conductor*%
%ADD33C,0.300000*%
%TD*%
%TA.AperFunction,Conductor*%
%ADD34C,0.150000*%
%TD*%
%TA.AperFunction,Conductor*%
%ADD35C,0.500000*%
%TD*%
G04 APERTURE END LIST*
D10*
%TO.P,J2,1*%
%TO.N,+5V*%
X135382000Y-104140000D03*
D11*
%TO.P,J2,2*%
%TO.N,GND*%
X135382000Y-106680000D03*
%TD*%
D12*
%TO.P,BT1,1,+*%
%TO.N,+BATT*%
X159560000Y-110506000D03*
%TO.P,BT1,2,-*%
%TO.N,-BATT*%
X159560000Y-112506000D03*
D13*
%TO.P,BT1,MP*%
%TO.N,N/C*%
X161810000Y-108106000D03*
X161810000Y-114906000D03*
%TD*%
D14*
%TO.P,C2,2*%
%TO.N,VBUS*%
X142936000Y-124714000D03*
%TO.P,C2,1*%
%TO.N,GND*%
X141036000Y-124714000D03*
%TD*%
D15*
%TO.P,SW1,*%
%TO.N,*%
X144014000Y-104140000D03*
X152214000Y-104140000D03*
D16*
%TO.P,SW1,1,A*%
%TO.N,unconnected-(SW1-Pad1)*%
X150114000Y-104140000D03*
D17*
%TO.P,SW1,2,B*%
%TO.N,+BATT*%
X148114000Y-104140000D03*
%TO.P,SW1,3,C*%
%TO.N,Net-(SW1-Pad3)*%
X146114000Y-104140000D03*
%TD*%
D18*
%TO.P,Q1,1,S2*%
%TO.N,GND*%
X141336000Y-115250000D03*
%TO.P,Q1,2,G2*%
%TO.N,Net-(Q1-Pad2)*%
X141986000Y-115250000D03*
%TO.P,Q1,3,D1*%
%TO.N,Net-(Q1-Pad3)*%
X142636000Y-115250000D03*
%TO.P,Q1,4,S1*%
%TO.N,-BATT*%
X142636000Y-113350000D03*
%TO.P,Q1,5,G1*%
%TO.N,Net-(Q1-Pad5)*%
X141986000Y-113350000D03*
%TO.P,Q1,6,D2*%
%TO.N,Net-(Q1-Pad3)*%
X141336000Y-113350000D03*
%TD*%
D19*
%TO.P,R3,1*%
%TO.N,GND*%
X158226000Y-118364000D03*
%TO.P,R3,2*%
%TO.N,Net-(R3-Pad2)*%
X156226000Y-118364000D03*
%TD*%
%TO.P,R1,1*%
%TO.N,GND*%
X148066000Y-120904000D03*
%TO.P,R1,2*%
%TO.N,Net-(R1-Pad2)*%
X146066000Y-120904000D03*
%TD*%
D20*
%TO.P,R2,1*%
%TO.N,Net-(R2-Pad1)*%
X146066000Y-116840000D03*
%TO.P,R2,2*%
%TO.N,Net-(D1-Pad2)*%
X148066000Y-116840000D03*
%TD*%
D21*
%TO.P,D1,1,K*%
%TO.N,GND*%
X152400000Y-124889500D03*
%TO.P,D1,2,A*%
%TO.N,Net-(D1-Pad2)*%
X152400000Y-123014500D03*
%TD*%
D22*
%TO.P,U1,1,STAT*%
%TO.N,Net-(R2-Pad1)*%
X140848500Y-118684000D03*
%TO.P,U1,2,VSS*%
%TO.N,GND*%
X140848500Y-119634000D03*
%TO.P,U1,3,VBAT*%
%TO.N,+BATT*%
X140848500Y-120584000D03*
%TO.P,U1,4,VDD*%
%TO.N,VBUS*%
X143123500Y-120584000D03*
%TO.P,U1,5,PROG*%
%TO.N,Net-(R1-Pad2)*%
X143123500Y-118684000D03*
%TD*%
D23*
%TO.P,U2,1,EN*%
%TO.N,Net-(SW1-Pad3)*%
X134440000Y-120408000D03*
%TO.P,U2,2,AGND*%
%TO.N,GND*%
X134440000Y-120908000D03*
%TO.P,U2,3,PGND*%
X134440000Y-121408000D03*
%TO.P,U2,4,SW*%
%TO.N,Net-(L1-Pad1)*%
X134440000Y-121908000D03*
%TO.P,U2,5,VIN*%
%TO.N,+BATT*%
X137340000Y-121908000D03*
%TO.P,U2,6*%
%TO.N,N/C*%
X137340000Y-121408000D03*
%TO.P,U2,7,VOUT*%
%TO.N,+5V*%
X137340000Y-120908000D03*
%TO.P,U2,8*%
%TO.N,N/C*%
X137340000Y-120408000D03*
D24*
%TO.P,U2,9*%
X135890000Y-121158000D03*
%TD*%
D21*
%TO.P,D2,1,K*%
%TO.N,Net-(D2-Pad1)*%
X156464000Y-124889500D03*
%TO.P,D2,2,A*%
%TO.N,VBUS*%
X156464000Y-123014500D03*
%TD*%
D25*
%TO.P,L1,1*%
%TO.N,Net-(L1-Pad1)*%
X134573500Y-125222000D03*
%TO.P,L1,2*%
%TO.N,+BATT*%
X136698500Y-125222000D03*
%TD*%
D14*
%TO.P,C3,1*%
%TO.N,-BATT*%
X145608000Y-113030000D03*
%TO.P,C3,2*%
%TO.N,+BATT*%
X147508000Y-113030000D03*
%TD*%
D26*
%TO.P,U3,1,VM*%
%TO.N,Net-(R3-Pad2)*%
X153283500Y-119060000D03*
%TO.P,U3,2,VDD*%
%TO.N,Net-(R4-Pad2)*%
X153283500Y-118110000D03*
%TO.P,U3,3,VSS*%
%TO.N,-BATT*%
X153283500Y-117160000D03*
%TO.P,U3,4,DO*%
%TO.N,Net-(Q1-Pad5)*%
X151008500Y-117160000D03*
%TO.P,U3,5,CO*%
%TO.N,Net-(Q1-Pad2)*%
X151008500Y-119060000D03*
%TD*%
D20*
%TO.P,R4,1*%
%TO.N,+BATT*%
X151416000Y-113538000D03*
%TO.P,R4,2*%
%TO.N,Net-(R4-Pad2)*%
X153416000Y-113538000D03*
%TD*%
%TO.P,R5,1*%
%TO.N,Net-(R2-Pad1)*%
X146066000Y-124714000D03*
%TO.P,R5,2*%
%TO.N,Net-(D2-Pad1)*%
X148066000Y-124714000D03*
%TD*%
D27*
%TO.P,C1,1*%
%TO.N,+5V*%
X136332000Y-117348000D03*
%TO.P,C1,2*%
%TO.N,GND*%
X134432000Y-117348000D03*
%TD*%
D28*
%TO.P,J1,1,VBUS*%
%TO.N,VBUS*%
X160830000Y-123280000D03*
%TO.P,J1,2,D-*%
%TO.N,unconnected-(J1-Pad2)*%
X160830000Y-122630000D03*
%TO.P,J1,3,D+*%
%TO.N,unconnected-(J1-Pad3)*%
X160830000Y-121980000D03*
%TO.P,J1,4,ID*%
%TO.N,unconnected-(J1-Pad4)*%
X160830000Y-121330000D03*
%TO.P,J1,5,GND*%
%TO.N,GND*%
X160830000Y-120680000D03*
D29*
%TO.P,J1,6,Shield*%
X163480000Y-118405000D03*
D30*
X163480000Y-123105000D03*
X163480000Y-120855000D03*
D31*
X161250000Y-124300000D03*
X161250000Y-119660000D03*
D29*
X163480000Y-125555000D03*
%TD*%
D32*
%TO.N,Net-(SW1-Pad3)*%
X134366000Y-119634000D03*
%TO.N,GND*%
X145796000Y-119380000D03*
X134366000Y-116078000D03*
X134620000Y-123444000D03*
X139700000Y-124714000D03*
X159258000Y-116840000D03*
%TD*%
D33*
%TO.N,Net-(SW1-Pad3)*%
X134440000Y-120408000D02*
X134440000Y-119708000D01*
X134440000Y-119708000D02*
X134366000Y-119634000D01*
%TO.N,GND*%
X134366000Y-116078000D02*
X134366000Y-117282000D01*
X134366000Y-117282000D02*
X134432000Y-117348000D01*
%TO.N,+5V*%
X137668000Y-106426000D02*
X135382000Y-104140000D01*
X137668000Y-114554000D02*
X137668000Y-106426000D01*
X136332000Y-115890000D02*
X137668000Y-114554000D01*
X136332000Y-117348000D02*
X136332000Y-115890000D01*
%TO.N,GND*%
X148066000Y-120904000D02*
X146542000Y-119380000D01*
X146542000Y-119380000D02*
X145796000Y-119380000D01*
X158226000Y-117872000D02*
X159258000Y-116840000D01*
X158226000Y-118364000D02*
X158226000Y-117872000D01*
X158226000Y-119063500D02*
X158226000Y-118364000D01*
X152400000Y-124889500D02*
X158226000Y-119063500D01*
%TO.N,+BATT*%
X148114000Y-110300000D02*
X148320000Y-110506000D01*
X148114000Y-104140000D02*
X148114000Y-110300000D01*
%TO.N,GND*%
X141036000Y-124714000D02*
X139700000Y-124714000D01*
D34*
%TO.N,Net-(L1-Pad1)*%
X135382000Y-124413500D02*
X134573500Y-125222000D01*
D33*
%TO.N,GND*%
X133604000Y-122428000D02*
X134620000Y-123444000D01*
X133604000Y-121760637D02*
X133604000Y-122428000D01*
D34*
%TO.N,Net-(L1-Pad1)*%
X135382000Y-122850000D02*
X135382000Y-124413500D01*
X134440000Y-121908000D02*
X135382000Y-122850000D01*
%TO.N,Net-(R2-Pad1)*%
X149352000Y-121920000D02*
X146558000Y-124714000D01*
X149352000Y-120126000D02*
X149352000Y-121920000D01*
X146066000Y-116840000D02*
X149352000Y-120126000D01*
X142692500Y-116840000D02*
X146066000Y-116840000D01*
X146558000Y-124714000D02*
X146066000Y-124714000D01*
X140848500Y-118684000D02*
X142692500Y-116840000D01*
%TO.N,Net-(D2-Pad1)*%
X156464000Y-124889500D02*
X155369500Y-125984000D01*
X155369500Y-125984000D02*
X149336000Y-125984000D01*
X149336000Y-125984000D02*
X148066000Y-124714000D01*
D33*
%TO.N,+BATT*%
X137340000Y-121908000D02*
X138672000Y-121908000D01*
X147508000Y-113030000D02*
X148320000Y-112218000D01*
X138672000Y-121908000D02*
X138684000Y-121920000D01*
X140848500Y-120584000D02*
X138750000Y-120584000D01*
X152162000Y-110506000D02*
X148320000Y-110506000D01*
X138684000Y-121920000D02*
X138684000Y-124460000D01*
X137922000Y-125222000D02*
X136698500Y-125222000D01*
X138750000Y-120584000D02*
X138684000Y-120650000D01*
X146034000Y-110506000D02*
X141968500Y-110506000D01*
X141968500Y-110506000D02*
X138684000Y-113790500D01*
X148320000Y-110506000D02*
X146034000Y-110506000D01*
X138684000Y-113790500D02*
X138684000Y-120650000D01*
X159560000Y-110506000D02*
X152162000Y-110506000D01*
X138684000Y-120650000D02*
X138684000Y-121920000D01*
X148320000Y-112218000D02*
X148320000Y-110506000D01*
X138684000Y-124460000D02*
X137922000Y-125222000D01*
X147508000Y-113030000D02*
X148016000Y-113538000D01*
X148016000Y-113538000D02*
X151416000Y-113538000D01*
D34*
%TO.N,Net-(R4-Pad2)*%
X162560000Y-111506000D02*
X163068000Y-112014000D01*
X162814000Y-113538000D02*
X158496000Y-113538000D01*
X163068000Y-112014000D02*
X163068000Y-113284000D01*
X155448000Y-111506000D02*
X162560000Y-111506000D01*
X153416000Y-113538000D02*
X155448000Y-111506000D01*
X163068000Y-113284000D02*
X162814000Y-113538000D01*
X158496000Y-113538000D02*
X153924000Y-118110000D01*
X153924000Y-118110000D02*
X153283500Y-118110000D01*
D33*
%TO.N,GND*%
X133956637Y-121408000D02*
X133604000Y-121760637D01*
X139446000Y-117348000D02*
X140208000Y-116586000D01*
X141986000Y-123764000D02*
X141986000Y-119888000D01*
X141336000Y-115458000D02*
X140208000Y-116586000D01*
X139954000Y-119634000D02*
X139446000Y-119126000D01*
X161250000Y-119660000D02*
X159522000Y-119660000D01*
X162445000Y-120855000D02*
X161250000Y-119660000D01*
X163480000Y-120855000D02*
X162445000Y-120855000D01*
X160830000Y-120080000D02*
X161250000Y-119660000D01*
X141336000Y-115250000D02*
X141336000Y-115458000D01*
X163480000Y-120855000D02*
X163480000Y-123105000D01*
X163480000Y-125555000D02*
X163480000Y-123105000D01*
X159522000Y-119660000D02*
X158226000Y-118364000D01*
X141732000Y-119634000D02*
X140848500Y-119634000D01*
X134440000Y-121408000D02*
X133956637Y-121408000D01*
X139446000Y-119126000D02*
X139446000Y-117348000D01*
X163480000Y-118405000D02*
X163480000Y-120855000D01*
X141986000Y-119888000D02*
X141732000Y-119634000D01*
X141036000Y-124714000D02*
X141986000Y-123764000D01*
X162285000Y-124300000D02*
X163480000Y-123105000D01*
X140848500Y-119634000D02*
X139954000Y-119634000D01*
X134440000Y-120908000D02*
X134440000Y-121408000D01*
X161250000Y-124300000D02*
X162285000Y-124300000D01*
X160830000Y-120680000D02*
X160830000Y-120080000D01*
D34*
%TO.N,Net-(R3-Pad2)*%
X155530000Y-119060000D02*
X153283500Y-119060000D01*
X156226000Y-118364000D02*
X155530000Y-119060000D01*
%TO.N,Net-(D1-Pad2)*%
X148066000Y-118348000D02*
X152400000Y-122682000D01*
X148066000Y-116840000D02*
X148066000Y-118348000D01*
X152400000Y-122682000D02*
X152400000Y-123014500D01*
%TO.N,Net-(R1-Pad2)*%
X145343500Y-120904000D02*
X143123500Y-118684000D01*
X146066000Y-120904000D02*
X145343500Y-120904000D01*
D33*
%TO.N,-BATT*%
X153283500Y-117160000D02*
X153604000Y-117160000D01*
X145288000Y-113350000D02*
X142636000Y-113350000D01*
X145608000Y-113030000D02*
X145288000Y-113350000D01*
X147386000Y-114808000D02*
X150931500Y-114808000D01*
X158258000Y-112506000D02*
X159560000Y-112506000D01*
X145608000Y-113030000D02*
X147386000Y-114808000D01*
X150931500Y-114808000D02*
X153283500Y-117160000D01*
X153604000Y-117160000D02*
X158258000Y-112506000D01*
D34*
%TO.N,Net-(Q1-Pad5)*%
X150942000Y-117160000D02*
X149098000Y-115316000D01*
X143542000Y-115316000D02*
X141986000Y-113760000D01*
X141986000Y-113760000D02*
X141986000Y-113350000D01*
X151008500Y-117160000D02*
X150942000Y-117160000D01*
X149098000Y-115316000D02*
X143542000Y-115316000D01*
%TO.N,Net-(Q1-Pad2)*%
X142110000Y-115824000D02*
X148590000Y-115824000D01*
X141986000Y-115700000D02*
X142110000Y-115824000D01*
X149098000Y-116332000D02*
X149098000Y-118364000D01*
X148590000Y-115824000D02*
X149098000Y-116332000D01*
X149794000Y-119060000D02*
X151008500Y-119060000D01*
X141986000Y-115250000D02*
X141986000Y-115700000D01*
X149098000Y-118364000D02*
X149794000Y-119060000D01*
D33*
%TO.N,VBUS*%
X142936000Y-124714000D02*
X142936000Y-120771500D01*
X142936000Y-124714000D02*
X144631000Y-126409000D01*
D35*
X156464000Y-123014500D02*
X156729500Y-123280000D01*
D33*
X158496000Y-125730000D02*
X158496000Y-123444000D01*
X157817000Y-126409000D02*
X158496000Y-125730000D01*
X144631000Y-126409000D02*
X157817000Y-126409000D01*
X142936000Y-120771500D02*
X143123500Y-120584000D01*
D35*
X156729500Y-123280000D02*
X160075000Y-123280000D01*
D33*
%TO.N,+5V*%
X137823363Y-120908000D02*
X138090000Y-120641363D01*
X138090000Y-120641363D02*
X138090000Y-119106000D01*
X137340000Y-120908000D02*
X137823363Y-120908000D01*
X138090000Y-119106000D02*
X136332000Y-117348000D01*
D34*
%TO.N,Net-(Q1-Pad3)*%
X141336000Y-113640000D02*
X141336000Y-113350000D01*
X142636000Y-114940000D02*
X141336000Y-113640000D01*
X142636000Y-115250000D02*
X142636000Y-114940000D01*
%TD*%
M02*
