%TF.GenerationSoftware,KiCad,Pcbnew,(6.0.10)*%
%TF.CreationDate,2023-02-04T18:20:22-05:00*%
%TF.ProjectId,lipo_charger,6c69706f-5f63-4686-9172-6765722e6b69,rev?*%
%TF.SameCoordinates,Original*%
%TF.FileFunction,Drillmap*%
%TF.FilePolarity,Positive*%
%FSLAX45Y45*%
G04 Gerber Fmt 4.5, Leading zero omitted, Abs format (unit mm)*
G04 Created by KiCad (PCBNEW (6.0.10)) date 2023-02-04 18:20:22*
%MOMM*%
%LPD*%
G01*
G04 APERTURE LIST*
%ADD10C,0.100000*%
%ADD11C,0.200000*%
%ADD12C,0.040000*%
%ADD13C,0.045000*%
%ADD14C,0.080000*%
%ADD15C,0.150000*%
G04 APERTURE END LIST*
D10*
X16510000Y-10160000D02*
X16510000Y-12700000D01*
X13284200Y-12700000D02*
X15494000Y-12700000D01*
X16510000Y-12700000D02*
X15494000Y-12700000D01*
X15240000Y-10160000D02*
X13284200Y-10160000D01*
X16510000Y-10160000D02*
X15240000Y-10160000D01*
X13284200Y-10160000D02*
X13284200Y-12700000D01*
D11*
D12*
X13416600Y-11587800D02*
X13456600Y-11627800D01*
X13456600Y-11587800D02*
X13416600Y-11627800D01*
X13416600Y-11943400D02*
X13456600Y-11983400D01*
X13456600Y-11943400D02*
X13416600Y-11983400D01*
X13442000Y-12324400D02*
X13482000Y-12364400D01*
X13482000Y-12324400D02*
X13442000Y-12364400D01*
X13950000Y-12451400D02*
X13990000Y-12491400D01*
X13990000Y-12451400D02*
X13950000Y-12491400D01*
X14559600Y-11918000D02*
X14599600Y-11958000D01*
X14599600Y-11918000D02*
X14559600Y-11958000D01*
X15905800Y-11664000D02*
X15945800Y-11704000D01*
X15945800Y-11664000D02*
X15905800Y-11704000D01*
D13*
X16370500Y-11840500D02*
G75*
G03*
X16370500Y-11840500I-22500J0D01*
G01*
D11*
X16308000Y-11863000D02*
X16388000Y-11863000D01*
X16308000Y-11818000D02*
X16388000Y-11818000D01*
X16388000Y-11863000D02*
G75*
G03*
X16388000Y-11818000I0J22500D01*
G01*
X16308000Y-11818000D02*
G75*
G03*
X16308000Y-11863000I0J-22500D01*
G01*
D13*
X16370500Y-12555500D02*
G75*
G03*
X16370500Y-12555500I-22500J0D01*
G01*
D11*
X16388000Y-12533000D02*
X16308000Y-12533000D01*
X16388000Y-12578000D02*
X16308000Y-12578000D01*
X16308000Y-12533000D02*
G75*
G03*
X16308000Y-12578000I0J-22500D01*
G01*
X16388000Y-12578000D02*
G75*
G03*
X16388000Y-12533000I0J22500D01*
G01*
D14*
X14611400Y-10374000D02*
X14611400Y-10454000D01*
X14571400Y-10414000D02*
X14651400Y-10414000D01*
X14811400Y-10374000D02*
X14811400Y-10454000D01*
X14771400Y-10414000D02*
X14851400Y-10414000D01*
X15011400Y-10374000D02*
X15011400Y-10454000D01*
X14971400Y-10414000D02*
X15051400Y-10414000D01*
D10*
X13573556Y-10449356D02*
X13573556Y-10378644D01*
X13502844Y-10378644D01*
X13502844Y-10449356D01*
X13573556Y-10449356D01*
X13573556Y-10703356D02*
X13573556Y-10632644D01*
X13502844Y-10632644D01*
X13502844Y-10703356D01*
X13573556Y-10703356D01*
D15*
X14401400Y-10489000D02*
X14476400Y-10414000D01*
X14401400Y-10339000D01*
X14326400Y-10414000D01*
X14401400Y-10489000D01*
X15221400Y-10489000D02*
X15296400Y-10414000D01*
X15221400Y-10339000D01*
X15146400Y-10414000D01*
X15221400Y-10489000D01*
D11*
X13536819Y-13015476D02*
X13536819Y-12815476D01*
X13584438Y-12815476D01*
X13613009Y-12825000D01*
X13632057Y-12844048D01*
X13641581Y-12863095D01*
X13651105Y-12901190D01*
X13651105Y-12929762D01*
X13641581Y-12967857D01*
X13632057Y-12986905D01*
X13613009Y-13005952D01*
X13584438Y-13015476D01*
X13536819Y-13015476D01*
X13736819Y-13015476D02*
X13736819Y-12882143D01*
X13736819Y-12920238D02*
X13746343Y-12901190D01*
X13755867Y-12891667D01*
X13774914Y-12882143D01*
X13793962Y-12882143D01*
X13860628Y-13015476D02*
X13860628Y-12882143D01*
X13860628Y-12815476D02*
X13851105Y-12825000D01*
X13860628Y-12834524D01*
X13870152Y-12825000D01*
X13860628Y-12815476D01*
X13860628Y-12834524D01*
X13984438Y-13015476D02*
X13965390Y-13005952D01*
X13955867Y-12986905D01*
X13955867Y-12815476D01*
X14089200Y-13015476D02*
X14070152Y-13005952D01*
X14060628Y-12986905D01*
X14060628Y-12815476D01*
X14317771Y-13015476D02*
X14317771Y-12815476D01*
X14384438Y-12958333D01*
X14451105Y-12815476D01*
X14451105Y-13015476D01*
X14632057Y-13015476D02*
X14632057Y-12910714D01*
X14622533Y-12891667D01*
X14603486Y-12882143D01*
X14565390Y-12882143D01*
X14546343Y-12891667D01*
X14632057Y-13005952D02*
X14613009Y-13015476D01*
X14565390Y-13015476D01*
X14546343Y-13005952D01*
X14536819Y-12986905D01*
X14536819Y-12967857D01*
X14546343Y-12948809D01*
X14565390Y-12939286D01*
X14613009Y-12939286D01*
X14632057Y-12929762D01*
X14727295Y-12882143D02*
X14727295Y-13082143D01*
X14727295Y-12891667D02*
X14746343Y-12882143D01*
X14784438Y-12882143D01*
X14803486Y-12891667D01*
X14813009Y-12901190D01*
X14822533Y-12920238D01*
X14822533Y-12977381D01*
X14813009Y-12996428D01*
X14803486Y-13005952D01*
X14784438Y-13015476D01*
X14746343Y-13015476D01*
X14727295Y-13005952D01*
X14908248Y-12996428D02*
X14917771Y-13005952D01*
X14908248Y-13015476D01*
X14898724Y-13005952D01*
X14908248Y-12996428D01*
X14908248Y-13015476D01*
X14908248Y-12891667D02*
X14917771Y-12901190D01*
X14908248Y-12910714D01*
X14898724Y-12901190D01*
X14908248Y-12891667D01*
X14908248Y-12910714D01*
D12*
X13239200Y-13325000D02*
X13279200Y-13365000D01*
X13279200Y-13325000D02*
X13239200Y-13365000D01*
D11*
X13574914Y-13235476D02*
X13593962Y-13235476D01*
X13613009Y-13245000D01*
X13622533Y-13254524D01*
X13632057Y-13273571D01*
X13641581Y-13311667D01*
X13641581Y-13359286D01*
X13632057Y-13397381D01*
X13622533Y-13416428D01*
X13613009Y-13425952D01*
X13593962Y-13435476D01*
X13574914Y-13435476D01*
X13555867Y-13425952D01*
X13546343Y-13416428D01*
X13536819Y-13397381D01*
X13527295Y-13359286D01*
X13527295Y-13311667D01*
X13536819Y-13273571D01*
X13546343Y-13254524D01*
X13555867Y-13245000D01*
X13574914Y-13235476D01*
X13727295Y-13416428D02*
X13736819Y-13425952D01*
X13727295Y-13435476D01*
X13717771Y-13425952D01*
X13727295Y-13416428D01*
X13727295Y-13435476D01*
X13908248Y-13302143D02*
X13908248Y-13435476D01*
X13860628Y-13225952D02*
X13813009Y-13368809D01*
X13936819Y-13368809D01*
X14051105Y-13235476D02*
X14070152Y-13235476D01*
X14089200Y-13245000D01*
X14098724Y-13254524D01*
X14108248Y-13273571D01*
X14117771Y-13311667D01*
X14117771Y-13359286D01*
X14108248Y-13397381D01*
X14098724Y-13416428D01*
X14089200Y-13425952D01*
X14070152Y-13435476D01*
X14051105Y-13435476D01*
X14032057Y-13425952D01*
X14022533Y-13416428D01*
X14013009Y-13397381D01*
X14003486Y-13359286D01*
X14003486Y-13311667D01*
X14013009Y-13273571D01*
X14022533Y-13254524D01*
X14032057Y-13245000D01*
X14051105Y-13235476D01*
X14241581Y-13235476D02*
X14260628Y-13235476D01*
X14279676Y-13245000D01*
X14289200Y-13254524D01*
X14298724Y-13273571D01*
X14308248Y-13311667D01*
X14308248Y-13359286D01*
X14298724Y-13397381D01*
X14289200Y-13416428D01*
X14279676Y-13425952D01*
X14260628Y-13435476D01*
X14241581Y-13435476D01*
X14222533Y-13425952D01*
X14213009Y-13416428D01*
X14203486Y-13397381D01*
X14193962Y-13359286D01*
X14193962Y-13311667D01*
X14203486Y-13273571D01*
X14213009Y-13254524D01*
X14222533Y-13245000D01*
X14241581Y-13235476D01*
X14393962Y-13435476D02*
X14393962Y-13302143D01*
X14393962Y-13321190D02*
X14403486Y-13311667D01*
X14422533Y-13302143D01*
X14451105Y-13302143D01*
X14470152Y-13311667D01*
X14479676Y-13330714D01*
X14479676Y-13435476D01*
X14479676Y-13330714D02*
X14489200Y-13311667D01*
X14508248Y-13302143D01*
X14536819Y-13302143D01*
X14555867Y-13311667D01*
X14565390Y-13330714D01*
X14565390Y-13435476D01*
X14660628Y-13435476D02*
X14660628Y-13302143D01*
X14660628Y-13321190D02*
X14670152Y-13311667D01*
X14689200Y-13302143D01*
X14717771Y-13302143D01*
X14736819Y-13311667D01*
X14746343Y-13330714D01*
X14746343Y-13435476D01*
X14746343Y-13330714D02*
X14755867Y-13311667D01*
X14774914Y-13302143D01*
X14803486Y-13302143D01*
X14822533Y-13311667D01*
X14832057Y-13330714D01*
X14832057Y-13435476D01*
X15222533Y-13225952D02*
X15051105Y-13483095D01*
X15479676Y-13235476D02*
X15498724Y-13235476D01*
X15517771Y-13245000D01*
X15527295Y-13254524D01*
X15536819Y-13273571D01*
X15546343Y-13311667D01*
X15546343Y-13359286D01*
X15536819Y-13397381D01*
X15527295Y-13416428D01*
X15517771Y-13425952D01*
X15498724Y-13435476D01*
X15479676Y-13435476D01*
X15460628Y-13425952D01*
X15451105Y-13416428D01*
X15441581Y-13397381D01*
X15432057Y-13359286D01*
X15432057Y-13311667D01*
X15441581Y-13273571D01*
X15451105Y-13254524D01*
X15460628Y-13245000D01*
X15479676Y-13235476D01*
X15632057Y-13416428D02*
X15641581Y-13425952D01*
X15632057Y-13435476D01*
X15622533Y-13425952D01*
X15632057Y-13416428D01*
X15632057Y-13435476D01*
X15765390Y-13235476D02*
X15784438Y-13235476D01*
X15803486Y-13245000D01*
X15813009Y-13254524D01*
X15822533Y-13273571D01*
X15832057Y-13311667D01*
X15832057Y-13359286D01*
X15822533Y-13397381D01*
X15813009Y-13416428D01*
X15803486Y-13425952D01*
X15784438Y-13435476D01*
X15765390Y-13435476D01*
X15746343Y-13425952D01*
X15736819Y-13416428D01*
X15727295Y-13397381D01*
X15717771Y-13359286D01*
X15717771Y-13311667D01*
X15727295Y-13273571D01*
X15736819Y-13254524D01*
X15746343Y-13245000D01*
X15765390Y-13235476D01*
X16022533Y-13435476D02*
X15908248Y-13435476D01*
X15965390Y-13435476D02*
X15965390Y-13235476D01*
X15946343Y-13264048D01*
X15927295Y-13283095D01*
X15908248Y-13292619D01*
X16203486Y-13235476D02*
X16108248Y-13235476D01*
X16098724Y-13330714D01*
X16108248Y-13321190D01*
X16127295Y-13311667D01*
X16174914Y-13311667D01*
X16193962Y-13321190D01*
X16203486Y-13330714D01*
X16213009Y-13349762D01*
X16213009Y-13397381D01*
X16203486Y-13416428D01*
X16193962Y-13425952D01*
X16174914Y-13435476D01*
X16127295Y-13435476D01*
X16108248Y-13425952D01*
X16098724Y-13416428D01*
X16279676Y-13235476D02*
X16413009Y-13235476D01*
X16327295Y-13435476D01*
X16479676Y-13235476D02*
X16479676Y-13273571D01*
X16555867Y-13235476D02*
X16555867Y-13273571D01*
X16851105Y-13511667D02*
X16841581Y-13502143D01*
X16822533Y-13473571D01*
X16813010Y-13454524D01*
X16803486Y-13425952D01*
X16793962Y-13378333D01*
X16793962Y-13340238D01*
X16803486Y-13292619D01*
X16813010Y-13264048D01*
X16822533Y-13245000D01*
X16841581Y-13216428D01*
X16851105Y-13206905D01*
X17013010Y-13235476D02*
X16974914Y-13235476D01*
X16955867Y-13245000D01*
X16946343Y-13254524D01*
X16927295Y-13283095D01*
X16917771Y-13321190D01*
X16917771Y-13397381D01*
X16927295Y-13416428D01*
X16936819Y-13425952D01*
X16955867Y-13435476D01*
X16993962Y-13435476D01*
X17013010Y-13425952D01*
X17022533Y-13416428D01*
X17032057Y-13397381D01*
X17032057Y-13349762D01*
X17022533Y-13330714D01*
X17013010Y-13321190D01*
X16993962Y-13311667D01*
X16955867Y-13311667D01*
X16936819Y-13321190D01*
X16927295Y-13330714D01*
X16917771Y-13349762D01*
X17270152Y-13435476D02*
X17270152Y-13235476D01*
X17355867Y-13435476D02*
X17355867Y-13330714D01*
X17346343Y-13311667D01*
X17327295Y-13302143D01*
X17298724Y-13302143D01*
X17279676Y-13311667D01*
X17270152Y-13321190D01*
X17479676Y-13435476D02*
X17460629Y-13425952D01*
X17451105Y-13416428D01*
X17441581Y-13397381D01*
X17441581Y-13340238D01*
X17451105Y-13321190D01*
X17460629Y-13311667D01*
X17479676Y-13302143D01*
X17508248Y-13302143D01*
X17527295Y-13311667D01*
X17536819Y-13321190D01*
X17546343Y-13340238D01*
X17546343Y-13397381D01*
X17536819Y-13416428D01*
X17527295Y-13425952D01*
X17508248Y-13435476D01*
X17479676Y-13435476D01*
X17660629Y-13435476D02*
X17641581Y-13425952D01*
X17632057Y-13406905D01*
X17632057Y-13235476D01*
X17813010Y-13425952D02*
X17793962Y-13435476D01*
X17755867Y-13435476D01*
X17736819Y-13425952D01*
X17727295Y-13406905D01*
X17727295Y-13330714D01*
X17736819Y-13311667D01*
X17755867Y-13302143D01*
X17793962Y-13302143D01*
X17813010Y-13311667D01*
X17822533Y-13330714D01*
X17822533Y-13349762D01*
X17727295Y-13368809D01*
X17898724Y-13425952D02*
X17917771Y-13435476D01*
X17955867Y-13435476D01*
X17974914Y-13425952D01*
X17984438Y-13406905D01*
X17984438Y-13397381D01*
X17974914Y-13378333D01*
X17955867Y-13368809D01*
X17927295Y-13368809D01*
X17908248Y-13359286D01*
X17898724Y-13340238D01*
X17898724Y-13330714D01*
X17908248Y-13311667D01*
X17927295Y-13302143D01*
X17955867Y-13302143D01*
X17974914Y-13311667D01*
X18051105Y-13511667D02*
X18060629Y-13502143D01*
X18079676Y-13473571D01*
X18089200Y-13454524D01*
X18098724Y-13425952D01*
X18108248Y-13378333D01*
X18108248Y-13340238D01*
X18098724Y-13292619D01*
X18089200Y-13264048D01*
X18079676Y-13245000D01*
X18060629Y-13216428D01*
X18051105Y-13206905D01*
D13*
X13279200Y-13609000D02*
G75*
G03*
X13279200Y-13609000I-22500J0D01*
G01*
D11*
X13574914Y-13499476D02*
X13593962Y-13499476D01*
X13613009Y-13509000D01*
X13622533Y-13518524D01*
X13632057Y-13537571D01*
X13641581Y-13575667D01*
X13641581Y-13623286D01*
X13632057Y-13661381D01*
X13622533Y-13680428D01*
X13613009Y-13689952D01*
X13593962Y-13699476D01*
X13574914Y-13699476D01*
X13555867Y-13689952D01*
X13546343Y-13680428D01*
X13536819Y-13661381D01*
X13527295Y-13623286D01*
X13527295Y-13575667D01*
X13536819Y-13537571D01*
X13546343Y-13518524D01*
X13555867Y-13509000D01*
X13574914Y-13499476D01*
X13727295Y-13680428D02*
X13736819Y-13689952D01*
X13727295Y-13699476D01*
X13717771Y-13689952D01*
X13727295Y-13680428D01*
X13727295Y-13699476D01*
X13908248Y-13566143D02*
X13908248Y-13699476D01*
X13860628Y-13489952D02*
X13813009Y-13632809D01*
X13936819Y-13632809D01*
X14108248Y-13499476D02*
X14013009Y-13499476D01*
X14003486Y-13594714D01*
X14013009Y-13585190D01*
X14032057Y-13575667D01*
X14079676Y-13575667D01*
X14098724Y-13585190D01*
X14108248Y-13594714D01*
X14117771Y-13613762D01*
X14117771Y-13661381D01*
X14108248Y-13680428D01*
X14098724Y-13689952D01*
X14079676Y-13699476D01*
X14032057Y-13699476D01*
X14013009Y-13689952D01*
X14003486Y-13680428D01*
X14241581Y-13499476D02*
X14260628Y-13499476D01*
X14279676Y-13509000D01*
X14289200Y-13518524D01*
X14298724Y-13537571D01*
X14308248Y-13575667D01*
X14308248Y-13623286D01*
X14298724Y-13661381D01*
X14289200Y-13680428D01*
X14279676Y-13689952D01*
X14260628Y-13699476D01*
X14241581Y-13699476D01*
X14222533Y-13689952D01*
X14213009Y-13680428D01*
X14203486Y-13661381D01*
X14193962Y-13623286D01*
X14193962Y-13575667D01*
X14203486Y-13537571D01*
X14213009Y-13518524D01*
X14222533Y-13509000D01*
X14241581Y-13499476D01*
X14393962Y-13699476D02*
X14393962Y-13566143D01*
X14393962Y-13585190D02*
X14403486Y-13575667D01*
X14422533Y-13566143D01*
X14451105Y-13566143D01*
X14470152Y-13575667D01*
X14479676Y-13594714D01*
X14479676Y-13699476D01*
X14479676Y-13594714D02*
X14489200Y-13575667D01*
X14508248Y-13566143D01*
X14536819Y-13566143D01*
X14555867Y-13575667D01*
X14565390Y-13594714D01*
X14565390Y-13699476D01*
X14660628Y-13699476D02*
X14660628Y-13566143D01*
X14660628Y-13585190D02*
X14670152Y-13575667D01*
X14689200Y-13566143D01*
X14717771Y-13566143D01*
X14736819Y-13575667D01*
X14746343Y-13594714D01*
X14746343Y-13699476D01*
X14746343Y-13594714D02*
X14755867Y-13575667D01*
X14774914Y-13566143D01*
X14803486Y-13566143D01*
X14822533Y-13575667D01*
X14832057Y-13594714D01*
X14832057Y-13699476D01*
X15222533Y-13489952D02*
X15051105Y-13747095D01*
X15479676Y-13499476D02*
X15498724Y-13499476D01*
X15517771Y-13509000D01*
X15527295Y-13518524D01*
X15536819Y-13537571D01*
X15546343Y-13575667D01*
X15546343Y-13623286D01*
X15536819Y-13661381D01*
X15527295Y-13680428D01*
X15517771Y-13689952D01*
X15498724Y-13699476D01*
X15479676Y-13699476D01*
X15460628Y-13689952D01*
X15451105Y-13680428D01*
X15441581Y-13661381D01*
X15432057Y-13623286D01*
X15432057Y-13575667D01*
X15441581Y-13537571D01*
X15451105Y-13518524D01*
X15460628Y-13509000D01*
X15479676Y-13499476D01*
X15632057Y-13680428D02*
X15641581Y-13689952D01*
X15632057Y-13699476D01*
X15622533Y-13689952D01*
X15632057Y-13680428D01*
X15632057Y-13699476D01*
X15765390Y-13499476D02*
X15784438Y-13499476D01*
X15803486Y-13509000D01*
X15813009Y-13518524D01*
X15822533Y-13537571D01*
X15832057Y-13575667D01*
X15832057Y-13623286D01*
X15822533Y-13661381D01*
X15813009Y-13680428D01*
X15803486Y-13689952D01*
X15784438Y-13699476D01*
X15765390Y-13699476D01*
X15746343Y-13689952D01*
X15736819Y-13680428D01*
X15727295Y-13661381D01*
X15717771Y-13623286D01*
X15717771Y-13575667D01*
X15727295Y-13537571D01*
X15736819Y-13518524D01*
X15746343Y-13509000D01*
X15765390Y-13499476D01*
X16022533Y-13699476D02*
X15908248Y-13699476D01*
X15965390Y-13699476D02*
X15965390Y-13499476D01*
X15946343Y-13528048D01*
X15927295Y-13547095D01*
X15908248Y-13556619D01*
X16089200Y-13499476D02*
X16222533Y-13499476D01*
X16136819Y-13699476D01*
X16279676Y-13499476D02*
X16413009Y-13499476D01*
X16327295Y-13699476D01*
X16479676Y-13499476D02*
X16479676Y-13537571D01*
X16555867Y-13499476D02*
X16555867Y-13537571D01*
X16851105Y-13775667D02*
X16841581Y-13766143D01*
X16822533Y-13737571D01*
X16813010Y-13718524D01*
X16803486Y-13689952D01*
X16793962Y-13642333D01*
X16793962Y-13604238D01*
X16803486Y-13556619D01*
X16813010Y-13528048D01*
X16822533Y-13509000D01*
X16841581Y-13480428D01*
X16851105Y-13470905D01*
X16965390Y-13499476D02*
X16984438Y-13499476D01*
X17003486Y-13509000D01*
X17013010Y-13518524D01*
X17022533Y-13537571D01*
X17032057Y-13575667D01*
X17032057Y-13623286D01*
X17022533Y-13661381D01*
X17013010Y-13680428D01*
X17003486Y-13689952D01*
X16984438Y-13699476D01*
X16965390Y-13699476D01*
X16946343Y-13689952D01*
X16936819Y-13680428D01*
X16927295Y-13661381D01*
X16917771Y-13623286D01*
X16917771Y-13575667D01*
X16927295Y-13537571D01*
X16936819Y-13518524D01*
X16946343Y-13509000D01*
X16965390Y-13499476D01*
X17270152Y-13699476D02*
X17270152Y-13499476D01*
X17355867Y-13699476D02*
X17355867Y-13594714D01*
X17346343Y-13575667D01*
X17327295Y-13566143D01*
X17298724Y-13566143D01*
X17279676Y-13575667D01*
X17270152Y-13585190D01*
X17479676Y-13699476D02*
X17460629Y-13689952D01*
X17451105Y-13680428D01*
X17441581Y-13661381D01*
X17441581Y-13604238D01*
X17451105Y-13585190D01*
X17460629Y-13575667D01*
X17479676Y-13566143D01*
X17508248Y-13566143D01*
X17527295Y-13575667D01*
X17536819Y-13585190D01*
X17546343Y-13604238D01*
X17546343Y-13661381D01*
X17536819Y-13680428D01*
X17527295Y-13689952D01*
X17508248Y-13699476D01*
X17479676Y-13699476D01*
X17660629Y-13699476D02*
X17641581Y-13689952D01*
X17632057Y-13670905D01*
X17632057Y-13499476D01*
X17813010Y-13689952D02*
X17793962Y-13699476D01*
X17755867Y-13699476D01*
X17736819Y-13689952D01*
X17727295Y-13670905D01*
X17727295Y-13594714D01*
X17736819Y-13575667D01*
X17755867Y-13566143D01*
X17793962Y-13566143D01*
X17813010Y-13575667D01*
X17822533Y-13594714D01*
X17822533Y-13613762D01*
X17727295Y-13632809D01*
X17898724Y-13689952D02*
X17917771Y-13699476D01*
X17955867Y-13699476D01*
X17974914Y-13689952D01*
X17984438Y-13670905D01*
X17984438Y-13661381D01*
X17974914Y-13642333D01*
X17955867Y-13632809D01*
X17927295Y-13632809D01*
X17908248Y-13623286D01*
X17898724Y-13604238D01*
X17898724Y-13594714D01*
X17908248Y-13575667D01*
X17927295Y-13566143D01*
X17955867Y-13566143D01*
X17974914Y-13575667D01*
X18222533Y-13623286D02*
X18374914Y-13623286D01*
X18298724Y-13699476D02*
X18298724Y-13547095D01*
X18613010Y-13518524D02*
X18622533Y-13509000D01*
X18641581Y-13499476D01*
X18689200Y-13499476D01*
X18708248Y-13509000D01*
X18717771Y-13518524D01*
X18727295Y-13537571D01*
X18727295Y-13556619D01*
X18717771Y-13585190D01*
X18603486Y-13699476D01*
X18727295Y-13699476D01*
X18955867Y-13689952D02*
X18974914Y-13699476D01*
X19013010Y-13699476D01*
X19032057Y-13689952D01*
X19041581Y-13670905D01*
X19041581Y-13661381D01*
X19032057Y-13642333D01*
X19013010Y-13632809D01*
X18984438Y-13632809D01*
X18965390Y-13623286D01*
X18955867Y-13604238D01*
X18955867Y-13594714D01*
X18965390Y-13575667D01*
X18984438Y-13566143D01*
X19013010Y-13566143D01*
X19032057Y-13575667D01*
X19155867Y-13699476D02*
X19136819Y-13689952D01*
X19127295Y-13670905D01*
X19127295Y-13499476D01*
X19260629Y-13699476D02*
X19241581Y-13689952D01*
X19232057Y-13680428D01*
X19222533Y-13661381D01*
X19222533Y-13604238D01*
X19232057Y-13585190D01*
X19241581Y-13575667D01*
X19260629Y-13566143D01*
X19289200Y-13566143D01*
X19308248Y-13575667D01*
X19317771Y-13585190D01*
X19327295Y-13604238D01*
X19327295Y-13661381D01*
X19317771Y-13680428D01*
X19308248Y-13689952D01*
X19289200Y-13699476D01*
X19260629Y-13699476D01*
X19384438Y-13566143D02*
X19460629Y-13566143D01*
X19413010Y-13499476D02*
X19413010Y-13670905D01*
X19422533Y-13689952D01*
X19441581Y-13699476D01*
X19460629Y-13699476D01*
X19517771Y-13689952D02*
X19536819Y-13699476D01*
X19574914Y-13699476D01*
X19593962Y-13689952D01*
X19603486Y-13670905D01*
X19603486Y-13661381D01*
X19593962Y-13642333D01*
X19574914Y-13632809D01*
X19546343Y-13632809D01*
X19527295Y-13623286D01*
X19517771Y-13604238D01*
X19517771Y-13594714D01*
X19527295Y-13575667D01*
X19546343Y-13566143D01*
X19574914Y-13566143D01*
X19593962Y-13575667D01*
X19670152Y-13775667D02*
X19679676Y-13766143D01*
X19698724Y-13737571D01*
X19708248Y-13718524D01*
X19717771Y-13689952D01*
X19727295Y-13642333D01*
X19727295Y-13604238D01*
X19717771Y-13556619D01*
X19708248Y-13528048D01*
X19698724Y-13509000D01*
X19679676Y-13480428D01*
X19670152Y-13470905D01*
D14*
X13239200Y-13833000D02*
X13239200Y-13913000D01*
X13199200Y-13873000D02*
X13279200Y-13873000D01*
D11*
X13574914Y-13763476D02*
X13593962Y-13763476D01*
X13613009Y-13773000D01*
X13622533Y-13782524D01*
X13632057Y-13801571D01*
X13641581Y-13839667D01*
X13641581Y-13887286D01*
X13632057Y-13925381D01*
X13622533Y-13944428D01*
X13613009Y-13953952D01*
X13593962Y-13963476D01*
X13574914Y-13963476D01*
X13555867Y-13953952D01*
X13546343Y-13944428D01*
X13536819Y-13925381D01*
X13527295Y-13887286D01*
X13527295Y-13839667D01*
X13536819Y-13801571D01*
X13546343Y-13782524D01*
X13555867Y-13773000D01*
X13574914Y-13763476D01*
X13727295Y-13944428D02*
X13736819Y-13953952D01*
X13727295Y-13963476D01*
X13717771Y-13953952D01*
X13727295Y-13944428D01*
X13727295Y-13963476D01*
X13851105Y-13849190D02*
X13832057Y-13839667D01*
X13822533Y-13830143D01*
X13813009Y-13811095D01*
X13813009Y-13801571D01*
X13822533Y-13782524D01*
X13832057Y-13773000D01*
X13851105Y-13763476D01*
X13889200Y-13763476D01*
X13908248Y-13773000D01*
X13917771Y-13782524D01*
X13927295Y-13801571D01*
X13927295Y-13811095D01*
X13917771Y-13830143D01*
X13908248Y-13839667D01*
X13889200Y-13849190D01*
X13851105Y-13849190D01*
X13832057Y-13858714D01*
X13822533Y-13868238D01*
X13813009Y-13887286D01*
X13813009Y-13925381D01*
X13822533Y-13944428D01*
X13832057Y-13953952D01*
X13851105Y-13963476D01*
X13889200Y-13963476D01*
X13908248Y-13953952D01*
X13917771Y-13944428D01*
X13927295Y-13925381D01*
X13927295Y-13887286D01*
X13917771Y-13868238D01*
X13908248Y-13858714D01*
X13889200Y-13849190D01*
X14051105Y-13763476D02*
X14070152Y-13763476D01*
X14089200Y-13773000D01*
X14098724Y-13782524D01*
X14108248Y-13801571D01*
X14117771Y-13839667D01*
X14117771Y-13887286D01*
X14108248Y-13925381D01*
X14098724Y-13944428D01*
X14089200Y-13953952D01*
X14070152Y-13963476D01*
X14051105Y-13963476D01*
X14032057Y-13953952D01*
X14022533Y-13944428D01*
X14013009Y-13925381D01*
X14003486Y-13887286D01*
X14003486Y-13839667D01*
X14013009Y-13801571D01*
X14022533Y-13782524D01*
X14032057Y-13773000D01*
X14051105Y-13763476D01*
X14241581Y-13763476D02*
X14260628Y-13763476D01*
X14279676Y-13773000D01*
X14289200Y-13782524D01*
X14298724Y-13801571D01*
X14308248Y-13839667D01*
X14308248Y-13887286D01*
X14298724Y-13925381D01*
X14289200Y-13944428D01*
X14279676Y-13953952D01*
X14260628Y-13963476D01*
X14241581Y-13963476D01*
X14222533Y-13953952D01*
X14213009Y-13944428D01*
X14203486Y-13925381D01*
X14193962Y-13887286D01*
X14193962Y-13839667D01*
X14203486Y-13801571D01*
X14213009Y-13782524D01*
X14222533Y-13773000D01*
X14241581Y-13763476D01*
X14393962Y-13963476D02*
X14393962Y-13830143D01*
X14393962Y-13849190D02*
X14403486Y-13839667D01*
X14422533Y-13830143D01*
X14451105Y-13830143D01*
X14470152Y-13839667D01*
X14479676Y-13858714D01*
X14479676Y-13963476D01*
X14479676Y-13858714D02*
X14489200Y-13839667D01*
X14508248Y-13830143D01*
X14536819Y-13830143D01*
X14555867Y-13839667D01*
X14565390Y-13858714D01*
X14565390Y-13963476D01*
X14660628Y-13963476D02*
X14660628Y-13830143D01*
X14660628Y-13849190D02*
X14670152Y-13839667D01*
X14689200Y-13830143D01*
X14717771Y-13830143D01*
X14736819Y-13839667D01*
X14746343Y-13858714D01*
X14746343Y-13963476D01*
X14746343Y-13858714D02*
X14755867Y-13839667D01*
X14774914Y-13830143D01*
X14803486Y-13830143D01*
X14822533Y-13839667D01*
X14832057Y-13858714D01*
X14832057Y-13963476D01*
X15222533Y-13753952D02*
X15051105Y-14011095D01*
X15479676Y-13763476D02*
X15498724Y-13763476D01*
X15517771Y-13773000D01*
X15527295Y-13782524D01*
X15536819Y-13801571D01*
X15546343Y-13839667D01*
X15546343Y-13887286D01*
X15536819Y-13925381D01*
X15527295Y-13944428D01*
X15517771Y-13953952D01*
X15498724Y-13963476D01*
X15479676Y-13963476D01*
X15460628Y-13953952D01*
X15451105Y-13944428D01*
X15441581Y-13925381D01*
X15432057Y-13887286D01*
X15432057Y-13839667D01*
X15441581Y-13801571D01*
X15451105Y-13782524D01*
X15460628Y-13773000D01*
X15479676Y-13763476D01*
X15632057Y-13944428D02*
X15641581Y-13953952D01*
X15632057Y-13963476D01*
X15622533Y-13953952D01*
X15632057Y-13944428D01*
X15632057Y-13963476D01*
X15765390Y-13763476D02*
X15784438Y-13763476D01*
X15803486Y-13773000D01*
X15813009Y-13782524D01*
X15822533Y-13801571D01*
X15832057Y-13839667D01*
X15832057Y-13887286D01*
X15822533Y-13925381D01*
X15813009Y-13944428D01*
X15803486Y-13953952D01*
X15784438Y-13963476D01*
X15765390Y-13963476D01*
X15746343Y-13953952D01*
X15736819Y-13944428D01*
X15727295Y-13925381D01*
X15717771Y-13887286D01*
X15717771Y-13839667D01*
X15727295Y-13801571D01*
X15736819Y-13782524D01*
X15746343Y-13773000D01*
X15765390Y-13763476D01*
X15898724Y-13763476D02*
X16022533Y-13763476D01*
X15955867Y-13839667D01*
X15984438Y-13839667D01*
X16003486Y-13849190D01*
X16013009Y-13858714D01*
X16022533Y-13877762D01*
X16022533Y-13925381D01*
X16013009Y-13944428D01*
X16003486Y-13953952D01*
X15984438Y-13963476D01*
X15927295Y-13963476D01*
X15908248Y-13953952D01*
X15898724Y-13944428D01*
X16213009Y-13963476D02*
X16098724Y-13963476D01*
X16155867Y-13963476D02*
X16155867Y-13763476D01*
X16136819Y-13792048D01*
X16117771Y-13811095D01*
X16098724Y-13820619D01*
X16393962Y-13763476D02*
X16298724Y-13763476D01*
X16289200Y-13858714D01*
X16298724Y-13849190D01*
X16317771Y-13839667D01*
X16365390Y-13839667D01*
X16384438Y-13849190D01*
X16393962Y-13858714D01*
X16403486Y-13877762D01*
X16403486Y-13925381D01*
X16393962Y-13944428D01*
X16384438Y-13953952D01*
X16365390Y-13963476D01*
X16317771Y-13963476D01*
X16298724Y-13953952D01*
X16289200Y-13944428D01*
X16479676Y-13763476D02*
X16479676Y-13801571D01*
X16555867Y-13763476D02*
X16555867Y-13801571D01*
X16851105Y-14039667D02*
X16841581Y-14030143D01*
X16822533Y-14001571D01*
X16813010Y-13982524D01*
X16803486Y-13953952D01*
X16793962Y-13906333D01*
X16793962Y-13868238D01*
X16803486Y-13820619D01*
X16813010Y-13792048D01*
X16822533Y-13773000D01*
X16841581Y-13744428D01*
X16851105Y-13734905D01*
X16908248Y-13763476D02*
X17032057Y-13763476D01*
X16965390Y-13839667D01*
X16993962Y-13839667D01*
X17013010Y-13849190D01*
X17022533Y-13858714D01*
X17032057Y-13877762D01*
X17032057Y-13925381D01*
X17022533Y-13944428D01*
X17013010Y-13953952D01*
X16993962Y-13963476D01*
X16936819Y-13963476D01*
X16917771Y-13953952D01*
X16908248Y-13944428D01*
X17270152Y-13963476D02*
X17270152Y-13763476D01*
X17355867Y-13963476D02*
X17355867Y-13858714D01*
X17346343Y-13839667D01*
X17327295Y-13830143D01*
X17298724Y-13830143D01*
X17279676Y-13839667D01*
X17270152Y-13849190D01*
X17479676Y-13963476D02*
X17460629Y-13953952D01*
X17451105Y-13944428D01*
X17441581Y-13925381D01*
X17441581Y-13868238D01*
X17451105Y-13849190D01*
X17460629Y-13839667D01*
X17479676Y-13830143D01*
X17508248Y-13830143D01*
X17527295Y-13839667D01*
X17536819Y-13849190D01*
X17546343Y-13868238D01*
X17546343Y-13925381D01*
X17536819Y-13944428D01*
X17527295Y-13953952D01*
X17508248Y-13963476D01*
X17479676Y-13963476D01*
X17660629Y-13963476D02*
X17641581Y-13953952D01*
X17632057Y-13934905D01*
X17632057Y-13763476D01*
X17813010Y-13953952D02*
X17793962Y-13963476D01*
X17755867Y-13963476D01*
X17736819Y-13953952D01*
X17727295Y-13934905D01*
X17727295Y-13858714D01*
X17736819Y-13839667D01*
X17755867Y-13830143D01*
X17793962Y-13830143D01*
X17813010Y-13839667D01*
X17822533Y-13858714D01*
X17822533Y-13877762D01*
X17727295Y-13896809D01*
X17898724Y-13953952D02*
X17917771Y-13963476D01*
X17955867Y-13963476D01*
X17974914Y-13953952D01*
X17984438Y-13934905D01*
X17984438Y-13925381D01*
X17974914Y-13906333D01*
X17955867Y-13896809D01*
X17927295Y-13896809D01*
X17908248Y-13887286D01*
X17898724Y-13868238D01*
X17898724Y-13858714D01*
X17908248Y-13839667D01*
X17927295Y-13830143D01*
X17955867Y-13830143D01*
X17974914Y-13839667D01*
X18051105Y-14039667D02*
X18060629Y-14030143D01*
X18079676Y-14001571D01*
X18089200Y-13982524D01*
X18098724Y-13953952D01*
X18108248Y-13906333D01*
X18108248Y-13868238D01*
X18098724Y-13820619D01*
X18089200Y-13792048D01*
X18079676Y-13773000D01*
X18060629Y-13744428D01*
X18051105Y-13734905D01*
D10*
X13264556Y-14172356D02*
X13264556Y-14101644D01*
X13193844Y-14101644D01*
X13193844Y-14172356D01*
X13264556Y-14172356D01*
D11*
X13641581Y-14227476D02*
X13527295Y-14227476D01*
X13584438Y-14227476D02*
X13584438Y-14027476D01*
X13565390Y-14056048D01*
X13546343Y-14075095D01*
X13527295Y-14084619D01*
X13727295Y-14208428D02*
X13736819Y-14217952D01*
X13727295Y-14227476D01*
X13717771Y-14217952D01*
X13727295Y-14208428D01*
X13727295Y-14227476D01*
X13860628Y-14027476D02*
X13879676Y-14027476D01*
X13898724Y-14037000D01*
X13908248Y-14046524D01*
X13917771Y-14065571D01*
X13927295Y-14103667D01*
X13927295Y-14151286D01*
X13917771Y-14189381D01*
X13908248Y-14208428D01*
X13898724Y-14217952D01*
X13879676Y-14227476D01*
X13860628Y-14227476D01*
X13841581Y-14217952D01*
X13832057Y-14208428D01*
X13822533Y-14189381D01*
X13813009Y-14151286D01*
X13813009Y-14103667D01*
X13822533Y-14065571D01*
X13832057Y-14046524D01*
X13841581Y-14037000D01*
X13860628Y-14027476D01*
X14051105Y-14027476D02*
X14070152Y-14027476D01*
X14089200Y-14037000D01*
X14098724Y-14046524D01*
X14108248Y-14065571D01*
X14117771Y-14103667D01*
X14117771Y-14151286D01*
X14108248Y-14189381D01*
X14098724Y-14208428D01*
X14089200Y-14217952D01*
X14070152Y-14227476D01*
X14051105Y-14227476D01*
X14032057Y-14217952D01*
X14022533Y-14208428D01*
X14013009Y-14189381D01*
X14003486Y-14151286D01*
X14003486Y-14103667D01*
X14013009Y-14065571D01*
X14022533Y-14046524D01*
X14032057Y-14037000D01*
X14051105Y-14027476D01*
X14241581Y-14027476D02*
X14260628Y-14027476D01*
X14279676Y-14037000D01*
X14289200Y-14046524D01*
X14298724Y-14065571D01*
X14308248Y-14103667D01*
X14308248Y-14151286D01*
X14298724Y-14189381D01*
X14289200Y-14208428D01*
X14279676Y-14217952D01*
X14260628Y-14227476D01*
X14241581Y-14227476D01*
X14222533Y-14217952D01*
X14213009Y-14208428D01*
X14203486Y-14189381D01*
X14193962Y-14151286D01*
X14193962Y-14103667D01*
X14203486Y-14065571D01*
X14213009Y-14046524D01*
X14222533Y-14037000D01*
X14241581Y-14027476D01*
X14393962Y-14227476D02*
X14393962Y-14094143D01*
X14393962Y-14113190D02*
X14403486Y-14103667D01*
X14422533Y-14094143D01*
X14451105Y-14094143D01*
X14470152Y-14103667D01*
X14479676Y-14122714D01*
X14479676Y-14227476D01*
X14479676Y-14122714D02*
X14489200Y-14103667D01*
X14508248Y-14094143D01*
X14536819Y-14094143D01*
X14555867Y-14103667D01*
X14565390Y-14122714D01*
X14565390Y-14227476D01*
X14660628Y-14227476D02*
X14660628Y-14094143D01*
X14660628Y-14113190D02*
X14670152Y-14103667D01*
X14689200Y-14094143D01*
X14717771Y-14094143D01*
X14736819Y-14103667D01*
X14746343Y-14122714D01*
X14746343Y-14227476D01*
X14746343Y-14122714D02*
X14755867Y-14103667D01*
X14774914Y-14094143D01*
X14803486Y-14094143D01*
X14822533Y-14103667D01*
X14832057Y-14122714D01*
X14832057Y-14227476D01*
X15222533Y-14017952D02*
X15051105Y-14275095D01*
X15479676Y-14027476D02*
X15498724Y-14027476D01*
X15517771Y-14037000D01*
X15527295Y-14046524D01*
X15536819Y-14065571D01*
X15546343Y-14103667D01*
X15546343Y-14151286D01*
X15536819Y-14189381D01*
X15527295Y-14208428D01*
X15517771Y-14217952D01*
X15498724Y-14227476D01*
X15479676Y-14227476D01*
X15460628Y-14217952D01*
X15451105Y-14208428D01*
X15441581Y-14189381D01*
X15432057Y-14151286D01*
X15432057Y-14103667D01*
X15441581Y-14065571D01*
X15451105Y-14046524D01*
X15460628Y-14037000D01*
X15479676Y-14027476D01*
X15632057Y-14208428D02*
X15641581Y-14217952D01*
X15632057Y-14227476D01*
X15622533Y-14217952D01*
X15632057Y-14208428D01*
X15632057Y-14227476D01*
X15765390Y-14027476D02*
X15784438Y-14027476D01*
X15803486Y-14037000D01*
X15813009Y-14046524D01*
X15822533Y-14065571D01*
X15832057Y-14103667D01*
X15832057Y-14151286D01*
X15822533Y-14189381D01*
X15813009Y-14208428D01*
X15803486Y-14217952D01*
X15784438Y-14227476D01*
X15765390Y-14227476D01*
X15746343Y-14217952D01*
X15736819Y-14208428D01*
X15727295Y-14189381D01*
X15717771Y-14151286D01*
X15717771Y-14103667D01*
X15727295Y-14065571D01*
X15736819Y-14046524D01*
X15746343Y-14037000D01*
X15765390Y-14027476D01*
X15898724Y-14027476D02*
X16022533Y-14027476D01*
X15955867Y-14103667D01*
X15984438Y-14103667D01*
X16003486Y-14113190D01*
X16013009Y-14122714D01*
X16022533Y-14141762D01*
X16022533Y-14189381D01*
X16013009Y-14208428D01*
X16003486Y-14217952D01*
X15984438Y-14227476D01*
X15927295Y-14227476D01*
X15908248Y-14217952D01*
X15898724Y-14208428D01*
X16117771Y-14227476D02*
X16155867Y-14227476D01*
X16174914Y-14217952D01*
X16184438Y-14208428D01*
X16203486Y-14179857D01*
X16213009Y-14141762D01*
X16213009Y-14065571D01*
X16203486Y-14046524D01*
X16193962Y-14037000D01*
X16174914Y-14027476D01*
X16136819Y-14027476D01*
X16117771Y-14037000D01*
X16108248Y-14046524D01*
X16098724Y-14065571D01*
X16098724Y-14113190D01*
X16108248Y-14132238D01*
X16117771Y-14141762D01*
X16136819Y-14151286D01*
X16174914Y-14151286D01*
X16193962Y-14141762D01*
X16203486Y-14132238D01*
X16213009Y-14113190D01*
X16384438Y-14094143D02*
X16384438Y-14227476D01*
X16336819Y-14017952D02*
X16289200Y-14160809D01*
X16413009Y-14160809D01*
X16479676Y-14027476D02*
X16479676Y-14065571D01*
X16555867Y-14027476D02*
X16555867Y-14065571D01*
X16851105Y-14303667D02*
X16841581Y-14294143D01*
X16822533Y-14265571D01*
X16813010Y-14246524D01*
X16803486Y-14217952D01*
X16793962Y-14170333D01*
X16793962Y-14132238D01*
X16803486Y-14084619D01*
X16813010Y-14056048D01*
X16822533Y-14037000D01*
X16841581Y-14008428D01*
X16851105Y-13998905D01*
X16917771Y-14046524D02*
X16927295Y-14037000D01*
X16946343Y-14027476D01*
X16993962Y-14027476D01*
X17013010Y-14037000D01*
X17022533Y-14046524D01*
X17032057Y-14065571D01*
X17032057Y-14084619D01*
X17022533Y-14113190D01*
X16908248Y-14227476D01*
X17032057Y-14227476D01*
X17270152Y-14227476D02*
X17270152Y-14027476D01*
X17355867Y-14227476D02*
X17355867Y-14122714D01*
X17346343Y-14103667D01*
X17327295Y-14094143D01*
X17298724Y-14094143D01*
X17279676Y-14103667D01*
X17270152Y-14113190D01*
X17479676Y-14227476D02*
X17460629Y-14217952D01*
X17451105Y-14208428D01*
X17441581Y-14189381D01*
X17441581Y-14132238D01*
X17451105Y-14113190D01*
X17460629Y-14103667D01*
X17479676Y-14094143D01*
X17508248Y-14094143D01*
X17527295Y-14103667D01*
X17536819Y-14113190D01*
X17546343Y-14132238D01*
X17546343Y-14189381D01*
X17536819Y-14208428D01*
X17527295Y-14217952D01*
X17508248Y-14227476D01*
X17479676Y-14227476D01*
X17660629Y-14227476D02*
X17641581Y-14217952D01*
X17632057Y-14198905D01*
X17632057Y-14027476D01*
X17813010Y-14217952D02*
X17793962Y-14227476D01*
X17755867Y-14227476D01*
X17736819Y-14217952D01*
X17727295Y-14198905D01*
X17727295Y-14122714D01*
X17736819Y-14103667D01*
X17755867Y-14094143D01*
X17793962Y-14094143D01*
X17813010Y-14103667D01*
X17822533Y-14122714D01*
X17822533Y-14141762D01*
X17727295Y-14160809D01*
X17898724Y-14217952D02*
X17917771Y-14227476D01*
X17955867Y-14227476D01*
X17974914Y-14217952D01*
X17984438Y-14198905D01*
X17984438Y-14189381D01*
X17974914Y-14170333D01*
X17955867Y-14160809D01*
X17927295Y-14160809D01*
X17908248Y-14151286D01*
X17898724Y-14132238D01*
X17898724Y-14122714D01*
X17908248Y-14103667D01*
X17927295Y-14094143D01*
X17955867Y-14094143D01*
X17974914Y-14103667D01*
X18051105Y-14303667D02*
X18060629Y-14294143D01*
X18079676Y-14265571D01*
X18089200Y-14246524D01*
X18098724Y-14217952D01*
X18108248Y-14170333D01*
X18108248Y-14132238D01*
X18098724Y-14084619D01*
X18089200Y-14056048D01*
X18079676Y-14037000D01*
X18060629Y-14008428D01*
X18051105Y-13998905D01*
D15*
X13204200Y-14476000D02*
X13279200Y-14401000D01*
X13204200Y-14326000D01*
X13129200Y-14401000D01*
X13204200Y-14476000D01*
D11*
X13641581Y-14491476D02*
X13527295Y-14491476D01*
X13584438Y-14491476D02*
X13584438Y-14291476D01*
X13565390Y-14320048D01*
X13546343Y-14339095D01*
X13527295Y-14348619D01*
X13727295Y-14472428D02*
X13736819Y-14481952D01*
X13727295Y-14491476D01*
X13717771Y-14481952D01*
X13727295Y-14472428D01*
X13727295Y-14491476D01*
X13917771Y-14291476D02*
X13822533Y-14291476D01*
X13813009Y-14386714D01*
X13822533Y-14377190D01*
X13841581Y-14367667D01*
X13889200Y-14367667D01*
X13908248Y-14377190D01*
X13917771Y-14386714D01*
X13927295Y-14405762D01*
X13927295Y-14453381D01*
X13917771Y-14472428D01*
X13908248Y-14481952D01*
X13889200Y-14491476D01*
X13841581Y-14491476D01*
X13822533Y-14481952D01*
X13813009Y-14472428D01*
X14051105Y-14291476D02*
X14070152Y-14291476D01*
X14089200Y-14301000D01*
X14098724Y-14310524D01*
X14108248Y-14329571D01*
X14117771Y-14367667D01*
X14117771Y-14415286D01*
X14108248Y-14453381D01*
X14098724Y-14472428D01*
X14089200Y-14481952D01*
X14070152Y-14491476D01*
X14051105Y-14491476D01*
X14032057Y-14481952D01*
X14022533Y-14472428D01*
X14013009Y-14453381D01*
X14003486Y-14415286D01*
X14003486Y-14367667D01*
X14013009Y-14329571D01*
X14022533Y-14310524D01*
X14032057Y-14301000D01*
X14051105Y-14291476D01*
X14241581Y-14291476D02*
X14260628Y-14291476D01*
X14279676Y-14301000D01*
X14289200Y-14310524D01*
X14298724Y-14329571D01*
X14308248Y-14367667D01*
X14308248Y-14415286D01*
X14298724Y-14453381D01*
X14289200Y-14472428D01*
X14279676Y-14481952D01*
X14260628Y-14491476D01*
X14241581Y-14491476D01*
X14222533Y-14481952D01*
X14213009Y-14472428D01*
X14203486Y-14453381D01*
X14193962Y-14415286D01*
X14193962Y-14367667D01*
X14203486Y-14329571D01*
X14213009Y-14310524D01*
X14222533Y-14301000D01*
X14241581Y-14291476D01*
X14393962Y-14491476D02*
X14393962Y-14358143D01*
X14393962Y-14377190D02*
X14403486Y-14367667D01*
X14422533Y-14358143D01*
X14451105Y-14358143D01*
X14470152Y-14367667D01*
X14479676Y-14386714D01*
X14479676Y-14491476D01*
X14479676Y-14386714D02*
X14489200Y-14367667D01*
X14508248Y-14358143D01*
X14536819Y-14358143D01*
X14555867Y-14367667D01*
X14565390Y-14386714D01*
X14565390Y-14491476D01*
X14660628Y-14491476D02*
X14660628Y-14358143D01*
X14660628Y-14377190D02*
X14670152Y-14367667D01*
X14689200Y-14358143D01*
X14717771Y-14358143D01*
X14736819Y-14367667D01*
X14746343Y-14386714D01*
X14746343Y-14491476D01*
X14746343Y-14386714D02*
X14755867Y-14367667D01*
X14774914Y-14358143D01*
X14803486Y-14358143D01*
X14822533Y-14367667D01*
X14832057Y-14386714D01*
X14832057Y-14491476D01*
X15222533Y-14281952D02*
X15051105Y-14539095D01*
X15479676Y-14291476D02*
X15498724Y-14291476D01*
X15517771Y-14301000D01*
X15527295Y-14310524D01*
X15536819Y-14329571D01*
X15546343Y-14367667D01*
X15546343Y-14415286D01*
X15536819Y-14453381D01*
X15527295Y-14472428D01*
X15517771Y-14481952D01*
X15498724Y-14491476D01*
X15479676Y-14491476D01*
X15460628Y-14481952D01*
X15451105Y-14472428D01*
X15441581Y-14453381D01*
X15432057Y-14415286D01*
X15432057Y-14367667D01*
X15441581Y-14329571D01*
X15451105Y-14310524D01*
X15460628Y-14301000D01*
X15479676Y-14291476D01*
X15632057Y-14472428D02*
X15641581Y-14481952D01*
X15632057Y-14491476D01*
X15622533Y-14481952D01*
X15632057Y-14472428D01*
X15632057Y-14491476D01*
X15765390Y-14291476D02*
X15784438Y-14291476D01*
X15803486Y-14301000D01*
X15813009Y-14310524D01*
X15822533Y-14329571D01*
X15832057Y-14367667D01*
X15832057Y-14415286D01*
X15822533Y-14453381D01*
X15813009Y-14472428D01*
X15803486Y-14481952D01*
X15784438Y-14491476D01*
X15765390Y-14491476D01*
X15746343Y-14481952D01*
X15736819Y-14472428D01*
X15727295Y-14453381D01*
X15717771Y-14415286D01*
X15717771Y-14367667D01*
X15727295Y-14329571D01*
X15736819Y-14310524D01*
X15746343Y-14301000D01*
X15765390Y-14291476D01*
X16013009Y-14291476D02*
X15917771Y-14291476D01*
X15908248Y-14386714D01*
X15917771Y-14377190D01*
X15936819Y-14367667D01*
X15984438Y-14367667D01*
X16003486Y-14377190D01*
X16013009Y-14386714D01*
X16022533Y-14405762D01*
X16022533Y-14453381D01*
X16013009Y-14472428D01*
X16003486Y-14481952D01*
X15984438Y-14491476D01*
X15936819Y-14491476D01*
X15917771Y-14481952D01*
X15908248Y-14472428D01*
X16117771Y-14491476D02*
X16155867Y-14491476D01*
X16174914Y-14481952D01*
X16184438Y-14472428D01*
X16203486Y-14443857D01*
X16213009Y-14405762D01*
X16213009Y-14329571D01*
X16203486Y-14310524D01*
X16193962Y-14301000D01*
X16174914Y-14291476D01*
X16136819Y-14291476D01*
X16117771Y-14301000D01*
X16108248Y-14310524D01*
X16098724Y-14329571D01*
X16098724Y-14377190D01*
X16108248Y-14396238D01*
X16117771Y-14405762D01*
X16136819Y-14415286D01*
X16174914Y-14415286D01*
X16193962Y-14405762D01*
X16203486Y-14396238D01*
X16213009Y-14377190D01*
X16403486Y-14491476D02*
X16289200Y-14491476D01*
X16346343Y-14491476D02*
X16346343Y-14291476D01*
X16327295Y-14320048D01*
X16308248Y-14339095D01*
X16289200Y-14348619D01*
X16479676Y-14291476D02*
X16479676Y-14329571D01*
X16555867Y-14291476D02*
X16555867Y-14329571D01*
X16851105Y-14567667D02*
X16841581Y-14558143D01*
X16822533Y-14529571D01*
X16813010Y-14510524D01*
X16803486Y-14481952D01*
X16793962Y-14434333D01*
X16793962Y-14396238D01*
X16803486Y-14348619D01*
X16813010Y-14320048D01*
X16822533Y-14301000D01*
X16841581Y-14272428D01*
X16851105Y-14262905D01*
X16917771Y-14310524D02*
X16927295Y-14301000D01*
X16946343Y-14291476D01*
X16993962Y-14291476D01*
X17013010Y-14301000D01*
X17022533Y-14310524D01*
X17032057Y-14329571D01*
X17032057Y-14348619D01*
X17022533Y-14377190D01*
X16908248Y-14491476D01*
X17032057Y-14491476D01*
X17270152Y-14491476D02*
X17270152Y-14291476D01*
X17355867Y-14491476D02*
X17355867Y-14386714D01*
X17346343Y-14367667D01*
X17327295Y-14358143D01*
X17298724Y-14358143D01*
X17279676Y-14367667D01*
X17270152Y-14377190D01*
X17479676Y-14491476D02*
X17460629Y-14481952D01*
X17451105Y-14472428D01*
X17441581Y-14453381D01*
X17441581Y-14396238D01*
X17451105Y-14377190D01*
X17460629Y-14367667D01*
X17479676Y-14358143D01*
X17508248Y-14358143D01*
X17527295Y-14367667D01*
X17536819Y-14377190D01*
X17546343Y-14396238D01*
X17546343Y-14453381D01*
X17536819Y-14472428D01*
X17527295Y-14481952D01*
X17508248Y-14491476D01*
X17479676Y-14491476D01*
X17660629Y-14491476D02*
X17641581Y-14481952D01*
X17632057Y-14462905D01*
X17632057Y-14291476D01*
X17813010Y-14481952D02*
X17793962Y-14491476D01*
X17755867Y-14491476D01*
X17736819Y-14481952D01*
X17727295Y-14462905D01*
X17727295Y-14386714D01*
X17736819Y-14367667D01*
X17755867Y-14358143D01*
X17793962Y-14358143D01*
X17813010Y-14367667D01*
X17822533Y-14386714D01*
X17822533Y-14405762D01*
X17727295Y-14424809D01*
X17898724Y-14481952D02*
X17917771Y-14491476D01*
X17955867Y-14491476D01*
X17974914Y-14481952D01*
X17984438Y-14462905D01*
X17984438Y-14453381D01*
X17974914Y-14434333D01*
X17955867Y-14424809D01*
X17927295Y-14424809D01*
X17908248Y-14415286D01*
X17898724Y-14396238D01*
X17898724Y-14386714D01*
X17908248Y-14367667D01*
X17927295Y-14358143D01*
X17955867Y-14358143D01*
X17974914Y-14367667D01*
X18051105Y-14567667D02*
X18060629Y-14558143D01*
X18079676Y-14529571D01*
X18089200Y-14510524D01*
X18098724Y-14481952D01*
X18108248Y-14434333D01*
X18108248Y-14396238D01*
X18098724Y-14348619D01*
X18089200Y-14320048D01*
X18079676Y-14301000D01*
X18060629Y-14272428D01*
X18051105Y-14262905D01*
M02*
