G04 #@! TF.GenerationSoftware,KiCad,Pcbnew,(6.0.10)*
G04 #@! TF.CreationDate,2023-02-14T21:15:34-05:00*
G04 #@! TF.ProjectId,lipo_charger,6c69706f-5f63-4686-9172-6765722e6b69,rev?*
G04 #@! TF.SameCoordinates,Original*
G04 #@! TF.FileFunction,Legend,Top*
G04 #@! TF.FilePolarity,Positive*
%FSLAX46Y46*%
G04 Gerber Fmt 4.6, Leading zero omitted, Abs format (unit mm)*
G04 Created by KiCad (PCBNEW (6.0.10)) date 2023-02-14 21:15:34*
%MOMM*%
%LPD*%
G01*
G04 APERTURE LIST*
G04 Aperture macros list*
%AMRoundRect*
0 Rectangle with rounded corners*
0 $1 Rounding radius*
0 $2 $3 $4 $5 $6 $7 $8 $9 X,Y pos of 4 corners*
0 Add a 4 corners polygon primitive as box body*
4,1,4,$2,$3,$4,$5,$6,$7,$8,$9,$2,$3,0*
0 Add four circle primitives for the rounded corners*
1,1,$1+$1,$2,$3*
1,1,$1+$1,$4,$5*
1,1,$1+$1,$6,$7*
1,1,$1+$1,$8,$9*
0 Add four rect primitives between the rounded corners*
20,1,$1+$1,$2,$3,$4,$5,0*
20,1,$1+$1,$4,$5,$6,$7,0*
20,1,$1+$1,$6,$7,$8,$9,0*
20,1,$1+$1,$8,$9,$2,$3,0*%
G04 Aperture macros list end*
%ADD10C,0.215129*%
%ADD11C,0.150000*%
%ADD12C,0.120000*%
%ADD13C,0.160000*%
%ADD14R,1.700000X1.700000*%
%ADD15O,1.700000X1.700000*%
%ADD16RoundRect,0.150000X0.512500X0.150000X-0.512500X0.150000X-0.512500X-0.150000X0.512500X-0.150000X0*%
%ADD17RoundRect,0.250000X-2.500000X0.250000X-2.500000X-0.250000X2.500000X-0.250000X2.500000X0.250000X0*%
%ADD18RoundRect,0.250000X-1.250000X0.550000X-1.250000X-0.550000X1.250000X-0.550000X1.250000X0.550000X0*%
%ADD19O,2.200000X3.500000*%
%ADD20R,1.500000X2.500000*%
%ADD21O,1.500000X2.500000*%
%ADD22RoundRect,0.250000X0.250000X0.475000X-0.250000X0.475000X-0.250000X-0.475000X0.250000X-0.475000X0*%
%ADD23RoundRect,0.250000X-0.350000X-0.450000X0.350000X-0.450000X0.350000X0.450000X-0.350000X0.450000X0*%
%ADD24RoundRect,0.250000X-0.450000X0.350000X-0.450000X-0.350000X0.450000X-0.350000X0.450000X0.350000X0*%
%ADD25RoundRect,0.243750X0.456250X-0.243750X0.456250X0.243750X-0.456250X0.243750X-0.456250X-0.243750X0*%
%ADD26R,0.750000X0.300000*%
%ADD27R,1.600000X1.500000*%
%ADD28RoundRect,0.218750X-0.218750X-0.381250X0.218750X-0.381250X0.218750X0.381250X-0.218750X0.381250X0*%
%ADD29RoundRect,0.250000X0.475000X-0.250000X0.475000X0.250000X-0.475000X0.250000X-0.475000X-0.250000X0*%
%ADD30R,1.400000X0.400000*%
%ADD31O,1.900000X1.050000*%
%ADD32R,1.900000X1.750000*%
%ADD33R,1.450000X1.150000*%
G04 APERTURE END LIST*
D10*
X149807564Y-111500000D02*
G75*
G03*
X149807564Y-111500000I-107564J0D01*
G01*
X149707564Y-117460200D02*
G75*
G03*
X149707564Y-117460200I-107564J0D01*
G01*
X137899164Y-115021800D02*
G75*
G03*
X137899164Y-115021800I-107564J0D01*
G01*
D11*
X138239523Y-104862380D02*
X137763333Y-104862380D01*
X137715714Y-105338571D01*
X137763333Y-105290952D01*
X137858571Y-105243333D01*
X138096666Y-105243333D01*
X138191904Y-105290952D01*
X138239523Y-105338571D01*
X138287142Y-105433809D01*
X138287142Y-105671904D01*
X138239523Y-105767142D01*
X138191904Y-105814761D01*
X138096666Y-105862380D01*
X137858571Y-105862380D01*
X137763333Y-105814761D01*
X137715714Y-105767142D01*
X138572857Y-104862380D02*
X138906190Y-105862380D01*
X139239523Y-104862380D01*
X137998247Y-103449428D02*
X138760152Y-103449428D01*
X138379200Y-103830380D02*
X138379200Y-103068476D01*
X159218571Y-105608380D02*
X158885238Y-105132190D01*
X158647142Y-105608380D02*
X158647142Y-104608380D01*
X159028095Y-104608380D01*
X159123333Y-104656000D01*
X159170952Y-104703619D01*
X159218571Y-104798857D01*
X159218571Y-104941714D01*
X159170952Y-105036952D01*
X159123333Y-105084571D01*
X159028095Y-105132190D01*
X158647142Y-105132190D01*
X160028095Y-105560761D02*
X159932857Y-105608380D01*
X159742380Y-105608380D01*
X159647142Y-105560761D01*
X159599523Y-105465523D01*
X159599523Y-105084571D01*
X159647142Y-104989333D01*
X159742380Y-104941714D01*
X159932857Y-104941714D01*
X160028095Y-104989333D01*
X160075714Y-105084571D01*
X160075714Y-105179809D01*
X159599523Y-105275047D01*
X160409047Y-104941714D02*
X160647142Y-105608380D01*
X160885238Y-104941714D01*
X162551904Y-105608380D02*
X161980476Y-105608380D01*
X162266190Y-105608380D02*
X162266190Y-104608380D01*
X162170952Y-104751238D01*
X162075714Y-104846476D01*
X161980476Y-104894095D01*
X162980476Y-105513142D02*
X163028095Y-105560761D01*
X162980476Y-105608380D01*
X162932857Y-105560761D01*
X162980476Y-105513142D01*
X162980476Y-105608380D01*
X163647142Y-104608380D02*
X163742380Y-104608380D01*
X163837619Y-104656000D01*
X163885238Y-104703619D01*
X163932857Y-104798857D01*
X163980476Y-104989333D01*
X163980476Y-105227428D01*
X163932857Y-105417904D01*
X163885238Y-105513142D01*
X163837619Y-105560761D01*
X163742380Y-105608380D01*
X163647142Y-105608380D01*
X163551904Y-105560761D01*
X163504285Y-105513142D01*
X163456666Y-105417904D01*
X163409047Y-105227428D01*
X163409047Y-104989333D01*
X163456666Y-104798857D01*
X163504285Y-104703619D01*
X163551904Y-104656000D01*
X163647142Y-104608380D01*
X156020000Y-103830380D02*
X156020000Y-102830380D01*
X156591428Y-103830380D01*
X156591428Y-102830380D01*
X157210476Y-103830380D02*
X157115238Y-103782761D01*
X157067619Y-103735142D01*
X157020000Y-103639904D01*
X157020000Y-103354190D01*
X157067619Y-103258952D01*
X157115238Y-103211333D01*
X157210476Y-103163714D01*
X157353333Y-103163714D01*
X157448571Y-103211333D01*
X157496190Y-103258952D01*
X157543809Y-103354190D01*
X157543809Y-103639904D01*
X157496190Y-103735142D01*
X157448571Y-103782761D01*
X157353333Y-103830380D01*
X157210476Y-103830380D01*
X158400952Y-103830380D02*
X158400952Y-103306571D01*
X158353333Y-103211333D01*
X158258095Y-103163714D01*
X158067619Y-103163714D01*
X157972380Y-103211333D01*
X158400952Y-103782761D02*
X158305714Y-103830380D01*
X158067619Y-103830380D01*
X157972380Y-103782761D01*
X157924761Y-103687523D01*
X157924761Y-103592285D01*
X157972380Y-103497047D01*
X158067619Y-103449428D01*
X158305714Y-103449428D01*
X158400952Y-103401809D01*
X158877142Y-103830380D02*
X158877142Y-102830380D01*
X159305714Y-103830380D02*
X159305714Y-103306571D01*
X159258095Y-103211333D01*
X159162857Y-103163714D01*
X159020000Y-103163714D01*
X158924761Y-103211333D01*
X158877142Y-103258952D01*
X160448571Y-102830380D02*
X160686666Y-103830380D01*
X160877142Y-103116095D01*
X161067619Y-103830380D01*
X161305714Y-102830380D01*
X161686666Y-103830380D02*
X161686666Y-102830380D01*
X162115238Y-103830380D02*
X162115238Y-103306571D01*
X162067619Y-103211333D01*
X161972380Y-103163714D01*
X161829523Y-103163714D01*
X161734285Y-103211333D01*
X161686666Y-103258952D01*
X162591428Y-103830380D02*
X162591428Y-103163714D01*
X162591428Y-102830380D02*
X162543809Y-102878000D01*
X162591428Y-102925619D01*
X162639047Y-102878000D01*
X162591428Y-102830380D01*
X162591428Y-102925619D01*
X162924761Y-103163714D02*
X163305714Y-103163714D01*
X163067619Y-102830380D02*
X163067619Y-103687523D01*
X163115238Y-103782761D01*
X163210476Y-103830380D01*
X163305714Y-103830380D01*
X164020000Y-103782761D02*
X163924761Y-103830380D01*
X163734285Y-103830380D01*
X163639047Y-103782761D01*
X163591428Y-103687523D01*
X163591428Y-103306571D01*
X163639047Y-103211333D01*
X163734285Y-103163714D01*
X163924761Y-103163714D01*
X164020000Y-103211333D01*
X164067619Y-103306571D01*
X164067619Y-103401809D01*
X163591428Y-103497047D01*
X137998247Y-107259428D02*
X138760152Y-107259428D01*
X135138095Y-113052380D02*
X135138095Y-113861904D01*
X135185714Y-113957142D01*
X135233333Y-114004761D01*
X135328571Y-114052380D01*
X135519047Y-114052380D01*
X135614285Y-114004761D01*
X135661904Y-113957142D01*
X135709523Y-113861904D01*
X135709523Y-113052380D01*
X136709523Y-114052380D02*
X136138095Y-114052380D01*
X136423809Y-114052380D02*
X136423809Y-113052380D01*
X136328571Y-113195238D01*
X136233333Y-113290476D01*
X136138095Y-113338095D01*
X140906666Y-103528761D02*
X141049523Y-103576380D01*
X141287619Y-103576380D01*
X141382857Y-103528761D01*
X141430476Y-103481142D01*
X141478095Y-103385904D01*
X141478095Y-103290666D01*
X141430476Y-103195428D01*
X141382857Y-103147809D01*
X141287619Y-103100190D01*
X141097142Y-103052571D01*
X141001904Y-103004952D01*
X140954285Y-102957333D01*
X140906666Y-102862095D01*
X140906666Y-102766857D01*
X140954285Y-102671619D01*
X141001904Y-102624000D01*
X141097142Y-102576380D01*
X141335238Y-102576380D01*
X141478095Y-102624000D01*
X141811428Y-102576380D02*
X142049523Y-103576380D01*
X142240000Y-102862095D01*
X142430476Y-103576380D01*
X142668571Y-102576380D01*
X143573333Y-103576380D02*
X143001904Y-103576380D01*
X143287619Y-103576380D02*
X143287619Y-102576380D01*
X143192380Y-102719238D01*
X143097142Y-102814476D01*
X143001904Y-102862095D01*
X135333333Y-122437142D02*
X135285714Y-122484761D01*
X135142857Y-122532380D01*
X135047619Y-122532380D01*
X134904761Y-122484761D01*
X134809523Y-122389523D01*
X134761904Y-122294285D01*
X134714285Y-122103809D01*
X134714285Y-121960952D01*
X134761904Y-121770476D01*
X134809523Y-121675238D01*
X134904761Y-121580000D01*
X135047619Y-121532380D01*
X135142857Y-121532380D01*
X135285714Y-121580000D01*
X135333333Y-121627619D01*
X135714285Y-121627619D02*
X135761904Y-121580000D01*
X135857142Y-121532380D01*
X136095238Y-121532380D01*
X136190476Y-121580000D01*
X136238095Y-121627619D01*
X136285714Y-121722857D01*
X136285714Y-121818095D01*
X136238095Y-121960952D01*
X135666666Y-122532380D01*
X136285714Y-122532380D01*
X147604761Y-108047619D02*
X147509523Y-108000000D01*
X147414285Y-107904761D01*
X147271428Y-107761904D01*
X147176190Y-107714285D01*
X147080952Y-107714285D01*
X147128571Y-107952380D02*
X147033333Y-107904761D01*
X146938095Y-107809523D01*
X146890476Y-107619047D01*
X146890476Y-107285714D01*
X146938095Y-107095238D01*
X147033333Y-107000000D01*
X147128571Y-106952380D01*
X147319047Y-106952380D01*
X147414285Y-107000000D01*
X147509523Y-107095238D01*
X147557142Y-107285714D01*
X147557142Y-107619047D01*
X147509523Y-107809523D01*
X147414285Y-107904761D01*
X147319047Y-107952380D01*
X147128571Y-107952380D01*
X148509523Y-107952380D02*
X147938095Y-107952380D01*
X148223809Y-107952380D02*
X148223809Y-106952380D01*
X148128571Y-107095238D01*
X148033333Y-107190476D01*
X147938095Y-107238095D01*
X147633333Y-121152380D02*
X147300000Y-120676190D01*
X147061904Y-121152380D02*
X147061904Y-120152380D01*
X147442857Y-120152380D01*
X147538095Y-120200000D01*
X147585714Y-120247619D01*
X147633333Y-120342857D01*
X147633333Y-120485714D01*
X147585714Y-120580952D01*
X147538095Y-120628571D01*
X147442857Y-120676190D01*
X147061904Y-120676190D01*
X147966666Y-120152380D02*
X148585714Y-120152380D01*
X148252380Y-120533333D01*
X148395238Y-120533333D01*
X148490476Y-120580952D01*
X148538095Y-120628571D01*
X148585714Y-120723809D01*
X148585714Y-120961904D01*
X148538095Y-121057142D01*
X148490476Y-121104761D01*
X148395238Y-121152380D01*
X148109523Y-121152380D01*
X148014285Y-121104761D01*
X147966666Y-121057142D01*
X138127333Y-111452380D02*
X137794000Y-110976190D01*
X137555904Y-111452380D02*
X137555904Y-110452380D01*
X137936857Y-110452380D01*
X138032095Y-110500000D01*
X138079714Y-110547619D01*
X138127333Y-110642857D01*
X138127333Y-110785714D01*
X138079714Y-110880952D01*
X138032095Y-110928571D01*
X137936857Y-110976190D01*
X137555904Y-110976190D01*
X139079714Y-111452380D02*
X138508285Y-111452380D01*
X138794000Y-111452380D02*
X138794000Y-110452380D01*
X138698761Y-110595238D01*
X138603523Y-110690476D01*
X138508285Y-110738095D01*
X150633333Y-119324380D02*
X150300000Y-118848190D01*
X150061904Y-119324380D02*
X150061904Y-118324380D01*
X150442857Y-118324380D01*
X150538095Y-118372000D01*
X150585714Y-118419619D01*
X150633333Y-118514857D01*
X150633333Y-118657714D01*
X150585714Y-118752952D01*
X150538095Y-118800571D01*
X150442857Y-118848190D01*
X150061904Y-118848190D01*
X151014285Y-118419619D02*
X151061904Y-118372000D01*
X151157142Y-118324380D01*
X151395238Y-118324380D01*
X151490476Y-118372000D01*
X151538095Y-118419619D01*
X151585714Y-118514857D01*
X151585714Y-118610095D01*
X151538095Y-118752952D01*
X150966666Y-119324380D01*
X151585714Y-119324380D01*
X151961904Y-126052380D02*
X151961904Y-125052380D01*
X152200000Y-125052380D01*
X152342857Y-125100000D01*
X152438095Y-125195238D01*
X152485714Y-125290476D01*
X152533333Y-125480952D01*
X152533333Y-125623809D01*
X152485714Y-125814285D01*
X152438095Y-125909523D01*
X152342857Y-126004761D01*
X152200000Y-126052380D01*
X151961904Y-126052380D01*
X153485714Y-126052380D02*
X152914285Y-126052380D01*
X153200000Y-126052380D02*
X153200000Y-125052380D01*
X153104761Y-125195238D01*
X153009523Y-125290476D01*
X152914285Y-125338095D01*
X141224095Y-110450380D02*
X141224095Y-111259904D01*
X141271714Y-111355142D01*
X141319333Y-111402761D01*
X141414571Y-111450380D01*
X141605047Y-111450380D01*
X141700285Y-111402761D01*
X141747904Y-111355142D01*
X141795523Y-111259904D01*
X141795523Y-110450380D01*
X142224095Y-110545619D02*
X142271714Y-110498000D01*
X142366952Y-110450380D01*
X142605047Y-110450380D01*
X142700285Y-110498000D01*
X142747904Y-110545619D01*
X142795523Y-110640857D01*
X142795523Y-110736095D01*
X142747904Y-110878952D01*
X142176476Y-111450380D01*
X142795523Y-111450380D01*
X155471904Y-126182380D02*
X155471904Y-125182380D01*
X155710000Y-125182380D01*
X155852857Y-125230000D01*
X155948095Y-125325238D01*
X155995714Y-125420476D01*
X156043333Y-125610952D01*
X156043333Y-125753809D01*
X155995714Y-125944285D01*
X155948095Y-126039523D01*
X155852857Y-126134761D01*
X155710000Y-126182380D01*
X155471904Y-126182380D01*
X156424285Y-125277619D02*
X156471904Y-125230000D01*
X156567142Y-125182380D01*
X156805238Y-125182380D01*
X156900476Y-125230000D01*
X156948095Y-125277619D01*
X156995714Y-125372857D01*
X156995714Y-125468095D01*
X156948095Y-125610952D01*
X156376666Y-126182380D01*
X156995714Y-126182380D01*
X141819333Y-118054380D02*
X141343142Y-118054380D01*
X141343142Y-117054380D01*
X142676476Y-118054380D02*
X142105047Y-118054380D01*
X142390761Y-118054380D02*
X142390761Y-117054380D01*
X142295523Y-117197238D01*
X142200285Y-117292476D01*
X142105047Y-117340095D01*
X151471333Y-113895142D02*
X151423714Y-113942761D01*
X151280857Y-113990380D01*
X151185619Y-113990380D01*
X151042761Y-113942761D01*
X150947523Y-113847523D01*
X150899904Y-113752285D01*
X150852285Y-113561809D01*
X150852285Y-113418952D01*
X150899904Y-113228476D01*
X150947523Y-113133238D01*
X151042761Y-113038000D01*
X151185619Y-112990380D01*
X151280857Y-112990380D01*
X151423714Y-113038000D01*
X151471333Y-113085619D01*
X151804666Y-112990380D02*
X152423714Y-112990380D01*
X152090380Y-113371333D01*
X152233238Y-113371333D01*
X152328476Y-113418952D01*
X152376095Y-113466571D01*
X152423714Y-113561809D01*
X152423714Y-113799904D01*
X152376095Y-113895142D01*
X152328476Y-113942761D01*
X152233238Y-113990380D01*
X151947523Y-113990380D01*
X151852285Y-113942761D01*
X151804666Y-113895142D01*
X146812095Y-112736380D02*
X146812095Y-113545904D01*
X146859714Y-113641142D01*
X146907333Y-113688761D01*
X147002571Y-113736380D01*
X147193047Y-113736380D01*
X147288285Y-113688761D01*
X147335904Y-113641142D01*
X147383523Y-113545904D01*
X147383523Y-112736380D01*
X147764476Y-112736380D02*
X148383523Y-112736380D01*
X148050190Y-113117333D01*
X148193047Y-113117333D01*
X148288285Y-113164952D01*
X148335904Y-113212571D01*
X148383523Y-113307809D01*
X148383523Y-113545904D01*
X148335904Y-113641142D01*
X148288285Y-113688761D01*
X148193047Y-113736380D01*
X147907333Y-113736380D01*
X147812095Y-113688761D01*
X147764476Y-113641142D01*
X151471333Y-110434380D02*
X151138000Y-109958190D01*
X150899904Y-110434380D02*
X150899904Y-109434380D01*
X151280857Y-109434380D01*
X151376095Y-109482000D01*
X151423714Y-109529619D01*
X151471333Y-109624857D01*
X151471333Y-109767714D01*
X151423714Y-109862952D01*
X151376095Y-109910571D01*
X151280857Y-109958190D01*
X150899904Y-109958190D01*
X152328476Y-109767714D02*
X152328476Y-110434380D01*
X152090380Y-109386761D02*
X151852285Y-110101047D01*
X152471333Y-110101047D01*
X158075333Y-119324380D02*
X157742000Y-118848190D01*
X157503904Y-119324380D02*
X157503904Y-118324380D01*
X157884857Y-118324380D01*
X157980095Y-118372000D01*
X158027714Y-118419619D01*
X158075333Y-118514857D01*
X158075333Y-118657714D01*
X158027714Y-118752952D01*
X157980095Y-118800571D01*
X157884857Y-118848190D01*
X157503904Y-118848190D01*
X158980095Y-118324380D02*
X158503904Y-118324380D01*
X158456285Y-118800571D01*
X158503904Y-118752952D01*
X158599142Y-118705333D01*
X158837238Y-118705333D01*
X158932476Y-118752952D01*
X158980095Y-118800571D01*
X159027714Y-118895809D01*
X159027714Y-119133904D01*
X158980095Y-119229142D01*
X158932476Y-119276761D01*
X158837238Y-119324380D01*
X158599142Y-119324380D01*
X158503904Y-119276761D01*
X158456285Y-119229142D01*
X141884733Y-107141542D02*
X141837114Y-107189161D01*
X141694257Y-107236780D01*
X141599019Y-107236780D01*
X141456161Y-107189161D01*
X141360923Y-107093923D01*
X141313304Y-106998685D01*
X141265685Y-106808209D01*
X141265685Y-106665352D01*
X141313304Y-106474876D01*
X141360923Y-106379638D01*
X141456161Y-106284400D01*
X141599019Y-106236780D01*
X141694257Y-106236780D01*
X141837114Y-106284400D01*
X141884733Y-106332019D01*
X142837114Y-107236780D02*
X142265685Y-107236780D01*
X142551400Y-107236780D02*
X142551400Y-106236780D01*
X142456161Y-106379638D01*
X142360923Y-106474876D01*
X142265685Y-106522495D01*
D12*
X134052000Y-108010000D02*
X136712000Y-108010000D01*
X134052000Y-102810000D02*
X135382000Y-102810000D01*
X134052000Y-105410000D02*
X136712000Y-105410000D01*
X134052000Y-104140000D02*
X134052000Y-102810000D01*
X134052000Y-105410000D02*
X134052000Y-108010000D01*
X136712000Y-105410000D02*
X136712000Y-108010000D01*
X135800000Y-117860000D02*
X135000000Y-117860000D01*
X135800000Y-114740000D02*
X136600000Y-114740000D01*
X135800000Y-117860000D02*
X137600000Y-117860000D01*
X135800000Y-114740000D02*
X135000000Y-114740000D01*
X159422000Y-115575000D02*
X159422000Y-113250000D01*
X160272000Y-107405000D02*
X159422000Y-107405000D01*
X164642000Y-115575000D02*
X163792000Y-115575000D01*
X160272000Y-115575000D02*
X159422000Y-115575000D01*
X159422000Y-109730000D02*
X157032000Y-109730000D01*
X163792000Y-107405000D02*
X164642000Y-107405000D01*
X159422000Y-107405000D02*
X159422000Y-109730000D01*
X164642000Y-107405000D02*
X164642000Y-115575000D01*
D11*
X153938000Y-106440000D02*
X145338000Y-106440000D01*
X153938000Y-101840000D02*
X151738000Y-101840000D01*
X147638000Y-101840000D02*
X145338000Y-101840000D01*
D12*
X135761252Y-119665000D02*
X135238748Y-119665000D01*
X135761252Y-121135000D02*
X135238748Y-121135000D01*
X147726400Y-108345800D02*
X148526400Y-108345800D01*
X147726400Y-111465800D02*
X146926400Y-111465800D01*
X147726400Y-111465800D02*
X149526400Y-111465800D01*
X147726400Y-108345800D02*
X146926400Y-108345800D01*
X147499336Y-119607000D02*
X147953464Y-119607000D01*
X147499336Y-118137000D02*
X147953464Y-118137000D01*
X135272936Y-110265000D02*
X135727064Y-110265000D01*
X135272936Y-111735000D02*
X135727064Y-111735000D01*
X153389000Y-118644936D02*
X153389000Y-119099064D01*
X151919000Y-118644936D02*
X151919000Y-119099064D01*
X151694000Y-121857500D02*
X151694000Y-124542500D01*
X153614000Y-124542500D02*
X153614000Y-121857500D01*
X151694000Y-124542500D02*
X153614000Y-124542500D01*
X144129900Y-111838600D02*
X143229900Y-111838600D01*
X144129900Y-114238600D02*
X143229900Y-114238600D01*
X139879900Y-113838600D02*
X139879900Y-114238600D01*
X139879900Y-114238600D02*
X140779900Y-114238600D01*
X144129900Y-113838600D02*
X144129900Y-114238600D01*
X144129900Y-112238600D02*
X144129900Y-111838600D01*
D13*
X139989900Y-111898600D02*
G75*
G03*
X139989900Y-111898600I-80000J0D01*
G01*
D12*
X155250000Y-124621000D02*
X157170000Y-124621000D01*
X155250000Y-121936000D02*
X155250000Y-124621000D01*
X157170000Y-124621000D02*
X157170000Y-121936000D01*
X141586378Y-116358600D02*
X142385622Y-116358600D01*
X141586378Y-115238600D02*
X142385622Y-115238600D01*
X153087400Y-114688252D02*
X153087400Y-114165748D01*
X154557400Y-114688252D02*
X154557400Y-114165748D01*
X147701000Y-114340200D02*
X146901000Y-114340200D01*
X147701000Y-114340200D02*
X148501000Y-114340200D01*
X147701000Y-117460200D02*
X146901000Y-117460200D01*
X147701000Y-117460200D02*
X149501000Y-117460200D01*
X154430400Y-109729536D02*
X154430400Y-110183664D01*
X152960400Y-109729536D02*
X152960400Y-110183664D01*
X155475000Y-118644936D02*
X155475000Y-119099064D01*
X156945000Y-118644936D02*
X156945000Y-119099064D01*
X142272652Y-109599400D02*
X141750148Y-109599400D01*
X142272652Y-108129400D02*
X141750148Y-108129400D01*
X159870000Y-123740000D02*
X159870000Y-123290000D01*
X159870000Y-123740000D02*
X160260000Y-123740000D01*
X160570000Y-125790000D02*
X160570000Y-125130000D01*
X162300000Y-125790000D02*
X160570000Y-125790000D01*
X164870000Y-125790000D02*
X164660000Y-125790000D01*
X164870000Y-118170000D02*
X164660000Y-118170000D01*
X160570000Y-118170000D02*
X160570000Y-118820000D01*
X162300000Y-118170000D02*
X160570000Y-118170000D01*
%LPC*%
D14*
X135382000Y-104140000D03*
D15*
X135382000Y-106680000D03*
D16*
X136937500Y-117250000D03*
X136937500Y-116300000D03*
X136937500Y-115350000D03*
X134662500Y-115350000D03*
X134662500Y-117250000D03*
D17*
X159782000Y-110490000D03*
X159782000Y-112490000D03*
D18*
X162032000Y-108090000D03*
X162032000Y-114890000D03*
D19*
X145538000Y-104140000D03*
X153738000Y-104140000D03*
D20*
X151638000Y-104140000D03*
D21*
X149638000Y-104140000D03*
X147638000Y-104140000D03*
D22*
X136450000Y-120400000D03*
X134550000Y-120400000D03*
D16*
X148863900Y-110855800D03*
X148863900Y-109905800D03*
X148863900Y-108955800D03*
X146588900Y-108955800D03*
X146588900Y-109905800D03*
X146588900Y-110855800D03*
D23*
X146726400Y-118872000D03*
X148726400Y-118872000D03*
X134500000Y-111000000D03*
X136500000Y-111000000D03*
D24*
X152654000Y-117872000D03*
X152654000Y-119872000D03*
D25*
X152654000Y-123795000D03*
X152654000Y-121920000D03*
D26*
X140354900Y-112288600D03*
X140354900Y-112788600D03*
X140354900Y-113288600D03*
X140354900Y-113788600D03*
X143659900Y-113788600D03*
X143659900Y-113288600D03*
X143659900Y-112788600D03*
X143659900Y-112288600D03*
D27*
X142029900Y-113038600D03*
D25*
X156210000Y-123873500D03*
X156210000Y-121998500D03*
D28*
X140923500Y-115798600D03*
X143048500Y-115798600D03*
D29*
X153822400Y-115377000D03*
X153822400Y-113477000D03*
D16*
X148838500Y-116850200D03*
X148838500Y-115900200D03*
X148838500Y-114950200D03*
X146563500Y-114950200D03*
X146563500Y-116850200D03*
D24*
X153695400Y-108956600D03*
X153695400Y-110956600D03*
X156210000Y-117872000D03*
X156210000Y-119872000D03*
D22*
X142961400Y-108864400D03*
X141061400Y-108864400D03*
D30*
X160830000Y-123280000D03*
X160830000Y-122630000D03*
X160830000Y-121980000D03*
X160830000Y-121330000D03*
X160830000Y-120680000D03*
D31*
X163480000Y-118405000D03*
D32*
X163480000Y-123105000D03*
X163480000Y-120855000D03*
D33*
X161250000Y-124300000D03*
X161250000Y-119660000D03*
D31*
X163480000Y-125555000D03*
M02*
