%TF.GenerationSoftware,KiCad,Pcbnew,(6.0.10)*%
%TF.CreationDate,2023-02-04T18:20:05-05:00*%
%TF.ProjectId,lipo_charger,6c69706f-5f63-4686-9172-6765722e6b69,rev?*%
%TF.SameCoordinates,Original*%
%TF.FileFunction,Copper,L2,Bot*%
%TF.FilePolarity,Positive*%
%FSLAX46Y46*%
G04 Gerber Fmt 4.6, Leading zero omitted, Abs format (unit mm)*
G04 Created by KiCad (PCBNEW (6.0.10)) date 2023-02-04 18:20:05*
%MOMM*%
%LPD*%
G01*
G04 APERTURE LIST*
%TA.AperFunction,ComponentPad*%
%ADD10R,1.700000X1.700000*%
%TD*%
%TA.AperFunction,ComponentPad*%
%ADD11O,1.700000X1.700000*%
%TD*%
%TA.AperFunction,ComponentPad*%
%ADD12O,2.200000X3.500000*%
%TD*%
%TA.AperFunction,ComponentPad*%
%ADD13R,1.500000X2.500000*%
%TD*%
%TA.AperFunction,ComponentPad*%
%ADD14O,1.500000X2.500000*%
%TD*%
%TA.AperFunction,ComponentPad*%
%ADD15O,1.900000X1.050000*%
%TD*%
%TA.AperFunction,ViaPad*%
%ADD16C,0.800000*%
%TD*%
%TA.AperFunction,Conductor*%
%ADD17C,0.300000*%
%TD*%
G04 APERTURE END LIST*
D10*
%TO.P,J2,1*%
%TO.N,+5V*%
X135382000Y-104140000D03*
D11*
%TO.P,J2,2*%
%TO.N,GND*%
X135382000Y-106680000D03*
%TD*%
D12*
%TO.P,SW1,*%
%TO.N,*%
X144014000Y-104140000D03*
X152214000Y-104140000D03*
D13*
%TO.P,SW1,1,A*%
%TO.N,unconnected-(SW1-Pad1)*%
X150114000Y-104140000D03*
D14*
%TO.P,SW1,2,B*%
%TO.N,+BATT*%
X148114000Y-104140000D03*
%TO.P,SW1,3,C*%
%TO.N,Net-(SW1-Pad3)*%
X146114000Y-104140000D03*
%TD*%
D15*
%TO.P,J1,6,Shield*%
%TO.N,GND*%
X163480000Y-118405000D03*
X163480000Y-125555000D03*
%TD*%
D16*
%TO.N,Net-(SW1-Pad3)*%
X134366000Y-119634000D03*
%TO.N,GND*%
X145796000Y-119380000D03*
X134366000Y-116078000D03*
X134620000Y-123444000D03*
X139700000Y-124714000D03*
X159258000Y-116840000D03*
%TD*%
D17*
%TO.N,Net-(SW1-Pad3)*%
X146114000Y-107886000D02*
X134366000Y-119634000D01*
X146114000Y-104140000D02*
X146114000Y-107886000D01*
%TD*%
%TA.AperFunction,Conductor*%
%TO.N,GND*%
G36*
X164787621Y-101874502D02*
G01*
X164834114Y-101928158D01*
X164845500Y-101980500D01*
X164845500Y-117575423D01*
X164825498Y-117643544D01*
X164771842Y-117690037D01*
X164701568Y-117700141D01*
X164638509Y-117671945D01*
X164496156Y-117552496D01*
X164486031Y-117545563D01*
X164319308Y-117453906D01*
X164308038Y-117449076D01*
X164126685Y-117391548D01*
X164114691Y-117388998D01*
X163966650Y-117372393D01*
X163959626Y-117372000D01*
X163752115Y-117372000D01*
X163736876Y-117376475D01*
X163735671Y-117377865D01*
X163734000Y-117385548D01*
X163734000Y-119419885D01*
X163738475Y-119435124D01*
X163739865Y-119436329D01*
X163747548Y-119438000D01*
X163952890Y-119438000D01*
X163959035Y-119437700D01*
X164100481Y-119423830D01*
X164112519Y-119421447D01*
X164294651Y-119366458D01*
X164305993Y-119361783D01*
X164473977Y-119272465D01*
X164484193Y-119265678D01*
X164636409Y-119141533D01*
X164637384Y-119142729D01*
X164693146Y-119112532D01*
X164763944Y-119117844D01*
X164820631Y-119160588D01*
X164845210Y-119227194D01*
X164845500Y-119235745D01*
X164845500Y-124725423D01*
X164825498Y-124793544D01*
X164771842Y-124840037D01*
X164701568Y-124850141D01*
X164638509Y-124821945D01*
X164496156Y-124702496D01*
X164486031Y-124695563D01*
X164319308Y-124603906D01*
X164308038Y-124599076D01*
X164126685Y-124541548D01*
X164114691Y-124538998D01*
X163966650Y-124522393D01*
X163959626Y-124522000D01*
X163752115Y-124522000D01*
X163736876Y-124526475D01*
X163735671Y-124527865D01*
X163734000Y-124535548D01*
X163734000Y-125683000D01*
X163713998Y-125751121D01*
X163660342Y-125797614D01*
X163608000Y-125809000D01*
X162071014Y-125809000D01*
X162057483Y-125812973D01*
X162056363Y-125820768D01*
X162090846Y-125937932D01*
X162095439Y-125949300D01*
X162183586Y-126117911D01*
X162190302Y-126128173D01*
X162309515Y-126276443D01*
X162318103Y-126285213D01*
X162463838Y-126407499D01*
X162473969Y-126414437D01*
X162646089Y-126509061D01*
X162644681Y-126511622D01*
X162689811Y-126548907D01*
X162711409Y-126616538D01*
X162693014Y-126685110D01*
X162640466Y-126732852D01*
X162585444Y-126745500D01*
X133222500Y-126745500D01*
X133154379Y-126725498D01*
X133107886Y-126671842D01*
X133096500Y-126619500D01*
X133096500Y-125297795D01*
X162057372Y-125297795D01*
X162064127Y-125301000D01*
X163207885Y-125301000D01*
X163223124Y-125296525D01*
X163224329Y-125295135D01*
X163226000Y-125287452D01*
X163226000Y-124540115D01*
X163221525Y-124524876D01*
X163220135Y-124523671D01*
X163212452Y-124522000D01*
X163007110Y-124522000D01*
X163000965Y-124522300D01*
X162859519Y-124536170D01*
X162847481Y-124538553D01*
X162665349Y-124593542D01*
X162654007Y-124598217D01*
X162486023Y-124687535D01*
X162475807Y-124694322D01*
X162328366Y-124814572D01*
X162319662Y-124823216D01*
X162198390Y-124969809D01*
X162191530Y-124979980D01*
X162101038Y-125147342D01*
X162096286Y-125158647D01*
X162057578Y-125283692D01*
X162057372Y-125297795D01*
X133096500Y-125297795D01*
X133096500Y-119627096D01*
X133706729Y-119627096D01*
X133724113Y-119784553D01*
X133778553Y-119933319D01*
X133866908Y-120064805D01*
X133872527Y-120069918D01*
X133872528Y-120069919D01*
X133883903Y-120080269D01*
X133984076Y-120171419D01*
X134123293Y-120247008D01*
X134276522Y-120287207D01*
X134360477Y-120288526D01*
X134427319Y-120289576D01*
X134427322Y-120289576D01*
X134434916Y-120289695D01*
X134589332Y-120254329D01*
X134659742Y-120218917D01*
X134724072Y-120186563D01*
X134724075Y-120186561D01*
X134730855Y-120183151D01*
X134736626Y-120178222D01*
X134736629Y-120178220D01*
X134845536Y-120085204D01*
X134845536Y-120085203D01*
X134851314Y-120080269D01*
X134943755Y-119951624D01*
X135002842Y-119804641D01*
X135025162Y-119647807D01*
X135025307Y-119634000D01*
X135024812Y-119629906D01*
X135024811Y-119629895D01*
X135023255Y-119617035D01*
X135034928Y-119547005D01*
X135059247Y-119512803D01*
X135901282Y-118670768D01*
X162056363Y-118670768D01*
X162090846Y-118787932D01*
X162095439Y-118799300D01*
X162183586Y-118967911D01*
X162190302Y-118978173D01*
X162309515Y-119126443D01*
X162318103Y-119135213D01*
X162463838Y-119257499D01*
X162473969Y-119264437D01*
X162640692Y-119356094D01*
X162651962Y-119360924D01*
X162833315Y-119418452D01*
X162845309Y-119421002D01*
X162993350Y-119437607D01*
X163000374Y-119438000D01*
X163207885Y-119438000D01*
X163223124Y-119433525D01*
X163224329Y-119432135D01*
X163226000Y-119424452D01*
X163226000Y-118677115D01*
X163221525Y-118661876D01*
X163220135Y-118660671D01*
X163212452Y-118659000D01*
X162071014Y-118659000D01*
X162057483Y-118662973D01*
X162056363Y-118670768D01*
X135901282Y-118670768D01*
X136424255Y-118147795D01*
X162057372Y-118147795D01*
X162064127Y-118151000D01*
X163207885Y-118151000D01*
X163223124Y-118146525D01*
X163224329Y-118145135D01*
X163226000Y-118137452D01*
X163226000Y-117390115D01*
X163221525Y-117374876D01*
X163220135Y-117373671D01*
X163212452Y-117372000D01*
X163007110Y-117372000D01*
X163000965Y-117372300D01*
X162859519Y-117386170D01*
X162847481Y-117388553D01*
X162665349Y-117443542D01*
X162654007Y-117448217D01*
X162486023Y-117537535D01*
X162475807Y-117544322D01*
X162328366Y-117664572D01*
X162319662Y-117673216D01*
X162198390Y-117819809D01*
X162191530Y-117829980D01*
X162101038Y-117997342D01*
X162096286Y-118008647D01*
X162057578Y-118133692D01*
X162057372Y-118147795D01*
X136424255Y-118147795D01*
X146422535Y-108149515D01*
X146422538Y-108149511D01*
X146445326Y-108126723D01*
X146455455Y-108106844D01*
X146465784Y-108089989D01*
X146473075Y-108079953D01*
X146478905Y-108071929D01*
X146485801Y-108050704D01*
X146493367Y-108032438D01*
X146498997Y-108021388D01*
X146503498Y-108012555D01*
X146506989Y-107990513D01*
X146511605Y-107971287D01*
X146515435Y-107959500D01*
X146515435Y-107959498D01*
X146518500Y-107950066D01*
X146518500Y-105641256D01*
X146538502Y-105573135D01*
X146578101Y-105534172D01*
X146730051Y-105439959D01*
X146878323Y-105299746D01*
X146884435Y-105291018D01*
X146991708Y-105137815D01*
X146991709Y-105137814D01*
X146995372Y-105132582D01*
X147000281Y-105121238D01*
X147045692Y-105066664D01*
X147113399Y-105045304D01*
X147181906Y-105063941D01*
X147226120Y-105110193D01*
X147235282Y-105126721D01*
X147284902Y-105216238D01*
X147417705Y-105371182D01*
X147578951Y-105496257D01*
X147584673Y-105499072D01*
X147584672Y-105499072D01*
X147756332Y-105583540D01*
X147756337Y-105583542D01*
X147762054Y-105586355D01*
X147768227Y-105587963D01*
X147768230Y-105587964D01*
X147861348Y-105612219D01*
X147959533Y-105637794D01*
X148061428Y-105643134D01*
X148156942Y-105648141D01*
X148156946Y-105648141D01*
X148163323Y-105648475D01*
X148365097Y-105617959D01*
X148556615Y-105547494D01*
X148730051Y-105439959D01*
X148878323Y-105299746D01*
X148881986Y-105294515D01*
X148886152Y-105289688D01*
X148887693Y-105291018D01*
X148935751Y-105252608D01*
X149006371Y-105245303D01*
X149069730Y-105277337D01*
X149105711Y-105338540D01*
X149109501Y-105369210D01*
X149109501Y-105415066D01*
X149124266Y-105489301D01*
X149131161Y-105499621D01*
X149131162Y-105499622D01*
X149154246Y-105534169D01*
X149180516Y-105573484D01*
X149264699Y-105629734D01*
X149338933Y-105644500D01*
X150113874Y-105644500D01*
X150889066Y-105644499D01*
X150930877Y-105636183D01*
X150951126Y-105632156D01*
X150951128Y-105632155D01*
X150963301Y-105629734D01*
X150985875Y-105614650D01*
X151053626Y-105593436D01*
X151122093Y-105612219D01*
X151153078Y-105639586D01*
X151154570Y-105641803D01*
X151313236Y-105808128D01*
X151497658Y-105945342D01*
X151502409Y-105947758D01*
X151502413Y-105947760D01*
X151667589Y-106031739D01*
X151702562Y-106049520D01*
X151922089Y-106117685D01*
X151927378Y-106118386D01*
X152144681Y-106147188D01*
X152144684Y-106147188D01*
X152149964Y-106147888D01*
X152155293Y-106147688D01*
X152155294Y-106147688D01*
X152248660Y-106144183D01*
X152379669Y-106139264D01*
X152490054Y-106116103D01*
X152599410Y-106093158D01*
X152599413Y-106093157D01*
X152604637Y-106092061D01*
X152757383Y-106031739D01*
X152813466Y-106009591D01*
X152813469Y-106009590D01*
X152818436Y-106007628D01*
X152926330Y-105942156D01*
X153010391Y-105891147D01*
X153010394Y-105891145D01*
X153014952Y-105888379D01*
X153065222Y-105844757D01*
X153184533Y-105741224D01*
X153184535Y-105741222D01*
X153188566Y-105737724D01*
X153223411Y-105695228D01*
X153330931Y-105564099D01*
X153330935Y-105564093D01*
X153334315Y-105559971D01*
X153341418Y-105547494D01*
X153445387Y-105364845D01*
X153448030Y-105360202D01*
X153526461Y-105144129D01*
X153530601Y-105121238D01*
X153566625Y-104922015D01*
X153567364Y-104917931D01*
X153568500Y-104893842D01*
X153568500Y-103432288D01*
X153554825Y-103271123D01*
X153554413Y-103266267D01*
X153554412Y-103266263D01*
X153553962Y-103260956D01*
X153552624Y-103255801D01*
X153552623Y-103255795D01*
X153501068Y-103057162D01*
X153496214Y-103038461D01*
X153401803Y-102828877D01*
X153273430Y-102638197D01*
X153267978Y-102632481D01*
X153118443Y-102475729D01*
X153114764Y-102471872D01*
X152930342Y-102334658D01*
X152925591Y-102332242D01*
X152925587Y-102332240D01*
X152730194Y-102232898D01*
X152730193Y-102232898D01*
X152725438Y-102230480D01*
X152505911Y-102162315D01*
X152487186Y-102159833D01*
X152283319Y-102132812D01*
X152283316Y-102132812D01*
X152278036Y-102132112D01*
X152272707Y-102132312D01*
X152272706Y-102132312D01*
X152179340Y-102135817D01*
X152048331Y-102140736D01*
X151964345Y-102158358D01*
X151828590Y-102186842D01*
X151828587Y-102186843D01*
X151823363Y-102187939D01*
X151719648Y-102228898D01*
X151614534Y-102270409D01*
X151614531Y-102270410D01*
X151609564Y-102272372D01*
X151604998Y-102275143D01*
X151417609Y-102388853D01*
X151417606Y-102388855D01*
X151413048Y-102391621D01*
X151239434Y-102542276D01*
X151236047Y-102546407D01*
X151156931Y-102642895D01*
X151098271Y-102682890D01*
X151027301Y-102684821D01*
X150989497Y-102667770D01*
X150963301Y-102650266D01*
X150889067Y-102635500D01*
X150114126Y-102635500D01*
X149338934Y-102635501D01*
X149306902Y-102641872D01*
X149276874Y-102647844D01*
X149276872Y-102647845D01*
X149264699Y-102650266D01*
X149254379Y-102657161D01*
X149254378Y-102657162D01*
X149215874Y-102682890D01*
X149180516Y-102706516D01*
X149124266Y-102790699D01*
X149109500Y-102864933D01*
X149109500Y-102917284D01*
X149089498Y-102985405D01*
X149035842Y-103031898D01*
X148965568Y-103042002D01*
X148900988Y-103012508D01*
X148887832Y-102999282D01*
X148885026Y-102996009D01*
X148810295Y-102908818D01*
X148649049Y-102783743D01*
X148540439Y-102730300D01*
X148471668Y-102696460D01*
X148471663Y-102696458D01*
X148465946Y-102693645D01*
X148459773Y-102692037D01*
X148459770Y-102692036D01*
X148299410Y-102650266D01*
X148268467Y-102642206D01*
X148163548Y-102636707D01*
X148071058Y-102631859D01*
X148071054Y-102631859D01*
X148064677Y-102631525D01*
X147862903Y-102662041D01*
X147671385Y-102732506D01*
X147497949Y-102840041D01*
X147349677Y-102980254D01*
X147346015Y-102985484D01*
X147346014Y-102985485D01*
X147294595Y-103058919D01*
X147232628Y-103147418D01*
X147230092Y-103153279D01*
X147227719Y-103158762D01*
X147182308Y-103213336D01*
X147114601Y-103234696D01*
X147046094Y-103216059D01*
X147001880Y-103169807D01*
X146946191Y-103069342D01*
X146943098Y-103063762D01*
X146810295Y-102908818D01*
X146649049Y-102783743D01*
X146540439Y-102730300D01*
X146471668Y-102696460D01*
X146471663Y-102696458D01*
X146465946Y-102693645D01*
X146459773Y-102692037D01*
X146459770Y-102692036D01*
X146299410Y-102650266D01*
X146268467Y-102642206D01*
X146163548Y-102636707D01*
X146071058Y-102631859D01*
X146071054Y-102631859D01*
X146064677Y-102631525D01*
X145862903Y-102662041D01*
X145671385Y-102732506D01*
X145497949Y-102840041D01*
X145493311Y-102844427D01*
X145493306Y-102844431D01*
X145422500Y-102911389D01*
X145359262Y-102943661D01*
X145288616Y-102936621D01*
X145232990Y-102892504D01*
X145221045Y-102871592D01*
X145203993Y-102833738D01*
X145203992Y-102833735D01*
X145201803Y-102828877D01*
X145073430Y-102638197D01*
X145067978Y-102632481D01*
X144918443Y-102475729D01*
X144914764Y-102471872D01*
X144730342Y-102334658D01*
X144725591Y-102332242D01*
X144725587Y-102332240D01*
X144530194Y-102232898D01*
X144530193Y-102232898D01*
X144525438Y-102230480D01*
X144305911Y-102162315D01*
X144287186Y-102159833D01*
X144083319Y-102132812D01*
X144083316Y-102132812D01*
X144078036Y-102132112D01*
X144072707Y-102132312D01*
X144072706Y-102132312D01*
X143979340Y-102135817D01*
X143848331Y-102140736D01*
X143764345Y-102158358D01*
X143628590Y-102186842D01*
X143628587Y-102186843D01*
X143623363Y-102187939D01*
X143519648Y-102228898D01*
X143414534Y-102270409D01*
X143414531Y-102270410D01*
X143409564Y-102272372D01*
X143404998Y-102275143D01*
X143217609Y-102388853D01*
X143217606Y-102388855D01*
X143213048Y-102391621D01*
X143039434Y-102542276D01*
X143036047Y-102546407D01*
X142897069Y-102715901D01*
X142897065Y-102715907D01*
X142893685Y-102720029D01*
X142891046Y-102724665D01*
X142891044Y-102724668D01*
X142876585Y-102750069D01*
X142779970Y-102919798D01*
X142701539Y-103135871D01*
X142700590Y-103141120D01*
X142700589Y-103141123D01*
X142689423Y-103202872D01*
X142660636Y-103362069D01*
X142659500Y-103386158D01*
X142659500Y-104847712D01*
X142665458Y-104917931D01*
X142673176Y-105008880D01*
X142674038Y-105019044D01*
X142675376Y-105024199D01*
X142675377Y-105024205D01*
X142715912Y-105180377D01*
X142731786Y-105241539D01*
X142791948Y-105375094D01*
X142816851Y-105430375D01*
X142826197Y-105451123D01*
X142954570Y-105641803D01*
X142958249Y-105645660D01*
X142958251Y-105645662D01*
X142976458Y-105664748D01*
X143113236Y-105808128D01*
X143297658Y-105945342D01*
X143302409Y-105947758D01*
X143302413Y-105947760D01*
X143467589Y-106031739D01*
X143502562Y-106049520D01*
X143722089Y-106117685D01*
X143727378Y-106118386D01*
X143944681Y-106147188D01*
X143944684Y-106147188D01*
X143949964Y-106147888D01*
X143955293Y-106147688D01*
X143955294Y-106147688D01*
X144048660Y-106144183D01*
X144179669Y-106139264D01*
X144290054Y-106116103D01*
X144399410Y-106093158D01*
X144399413Y-106093157D01*
X144404637Y-106092061D01*
X144557383Y-106031739D01*
X144613466Y-106009591D01*
X144613469Y-106009590D01*
X144618436Y-106007628D01*
X144726330Y-105942156D01*
X144810391Y-105891147D01*
X144810394Y-105891145D01*
X144814952Y-105888379D01*
X144865222Y-105844757D01*
X144984533Y-105741224D01*
X144984535Y-105741222D01*
X144988566Y-105737724D01*
X145023411Y-105695228D01*
X145130931Y-105564099D01*
X145130935Y-105564093D01*
X145134315Y-105559971D01*
X145224241Y-105401993D01*
X145275322Y-105352688D01*
X145344952Y-105338826D01*
X145411023Y-105364809D01*
X145415672Y-105368810D01*
X145417705Y-105371182D01*
X145578951Y-105496257D01*
X145584668Y-105499070D01*
X145584679Y-105499077D01*
X145639130Y-105525870D01*
X145691421Y-105573893D01*
X145709500Y-105638924D01*
X145709500Y-107666260D01*
X145689498Y-107734381D01*
X145672595Y-107755355D01*
X134485239Y-118942711D01*
X134422927Y-118976737D01*
X134395487Y-118979614D01*
X134290221Y-118979062D01*
X134282841Y-118980834D01*
X134282839Y-118980834D01*
X134143563Y-119014271D01*
X134143560Y-119014272D01*
X134136184Y-119016043D01*
X133995414Y-119088700D01*
X133876039Y-119192838D01*
X133784950Y-119322444D01*
X133767790Y-119366458D01*
X133739897Y-119438000D01*
X133727406Y-119470037D01*
X133726414Y-119477570D01*
X133726414Y-119477571D01*
X133708054Y-119617035D01*
X133706729Y-119627096D01*
X133096500Y-119627096D01*
X133096500Y-106947966D01*
X134050257Y-106947966D01*
X134080565Y-107082446D01*
X134083645Y-107092275D01*
X134163770Y-107289603D01*
X134168413Y-107298794D01*
X134279694Y-107480388D01*
X134285777Y-107488699D01*
X134425213Y-107649667D01*
X134432580Y-107656883D01*
X134596434Y-107792916D01*
X134604881Y-107798831D01*
X134788756Y-107906279D01*
X134798042Y-107910729D01*
X134997001Y-107986703D01*
X135006899Y-107989579D01*
X135110250Y-108010606D01*
X135124299Y-108009410D01*
X135128000Y-107999065D01*
X135128000Y-107998517D01*
X135636000Y-107998517D01*
X135640064Y-108012359D01*
X135653478Y-108014393D01*
X135660184Y-108013534D01*
X135670262Y-108011392D01*
X135874255Y-107950191D01*
X135883842Y-107946433D01*
X136075095Y-107852739D01*
X136083945Y-107847464D01*
X136257328Y-107723792D01*
X136265200Y-107717139D01*
X136416052Y-107566812D01*
X136422730Y-107558965D01*
X136547003Y-107386020D01*
X136552313Y-107377183D01*
X136646670Y-107186267D01*
X136650469Y-107176672D01*
X136712377Y-106972910D01*
X136714555Y-106962837D01*
X136715986Y-106951962D01*
X136713775Y-106937778D01*
X136700617Y-106934000D01*
X135654115Y-106934000D01*
X135638876Y-106938475D01*
X135637671Y-106939865D01*
X135636000Y-106947548D01*
X135636000Y-107998517D01*
X135128000Y-107998517D01*
X135128000Y-106952115D01*
X135123525Y-106936876D01*
X135122135Y-106935671D01*
X135114452Y-106934000D01*
X134065225Y-106934000D01*
X134051694Y-106937973D01*
X134050257Y-106947966D01*
X133096500Y-106947966D01*
X133096500Y-106414183D01*
X134046389Y-106414183D01*
X134047912Y-106422607D01*
X134060292Y-106426000D01*
X136700344Y-106426000D01*
X136713875Y-106422027D01*
X136715180Y-106412947D01*
X136673214Y-106245875D01*
X136669894Y-106236124D01*
X136584972Y-106040814D01*
X136580105Y-106031739D01*
X136464426Y-105852926D01*
X136458136Y-105844757D01*
X136314806Y-105687240D01*
X136307273Y-105680215D01*
X136140139Y-105548222D01*
X136131552Y-105542517D01*
X136019765Y-105480807D01*
X135969795Y-105430375D01*
X135955023Y-105360932D01*
X135980139Y-105294527D01*
X136037170Y-105252242D01*
X136080658Y-105244499D01*
X136257066Y-105244499D01*
X136297947Y-105236368D01*
X136319126Y-105232156D01*
X136319128Y-105232155D01*
X136331301Y-105229734D01*
X136341621Y-105222839D01*
X136341622Y-105222838D01*
X136405168Y-105180377D01*
X136415484Y-105173484D01*
X136471734Y-105089301D01*
X136486500Y-105015067D01*
X136486499Y-103264934D01*
X136476778Y-103216059D01*
X136474156Y-103202874D01*
X136474155Y-103202872D01*
X136471734Y-103190699D01*
X136457775Y-103169807D01*
X136422377Y-103116832D01*
X136415484Y-103106516D01*
X136331301Y-103050266D01*
X136257067Y-103035500D01*
X135382142Y-103035500D01*
X134506934Y-103035501D01*
X134471182Y-103042612D01*
X134444874Y-103047844D01*
X134444872Y-103047845D01*
X134432699Y-103050266D01*
X134422379Y-103057161D01*
X134422378Y-103057162D01*
X134419749Y-103058919D01*
X134348516Y-103106516D01*
X134292266Y-103190699D01*
X134277500Y-103264933D01*
X134277501Y-105015066D01*
X134279319Y-105024205D01*
X134287764Y-105066664D01*
X134292266Y-105089301D01*
X134299161Y-105099620D01*
X134299162Y-105099622D01*
X134321186Y-105132582D01*
X134348516Y-105173484D01*
X134432699Y-105229734D01*
X134506933Y-105244500D01*
X134683500Y-105244500D01*
X134751621Y-105264502D01*
X134798114Y-105318158D01*
X134808218Y-105388432D01*
X134778724Y-105453012D01*
X134741681Y-105482263D01*
X134660458Y-105524545D01*
X134651738Y-105530036D01*
X134481433Y-105657905D01*
X134473726Y-105664748D01*
X134326590Y-105818717D01*
X134320104Y-105826727D01*
X134200098Y-106002649D01*
X134195000Y-106011623D01*
X134105338Y-106204783D01*
X134101775Y-106214470D01*
X134046389Y-106414183D01*
X133096500Y-106414183D01*
X133096500Y-101980500D01*
X133116502Y-101912379D01*
X133170158Y-101865886D01*
X133222500Y-101854500D01*
X164719500Y-101854500D01*
X164787621Y-101874502D01*
G37*
%TD.AperFunction*%
%TD*%
M02*
