G04 #@! TF.GenerationSoftware,KiCad,Pcbnew,(6.0.10)*
G04 #@! TF.CreationDate,2023-02-14T21:15:34-05:00*
G04 #@! TF.ProjectId,lipo_charger,6c69706f-5f63-4686-9172-6765722e6b69,rev?*
G04 #@! TF.SameCoordinates,Original*
G04 #@! TF.FileFunction,Soldermask,Top*
G04 #@! TF.FilePolarity,Negative*
%FSLAX46Y46*%
G04 Gerber Fmt 4.6, Leading zero omitted, Abs format (unit mm)*
G04 Created by KiCad (PCBNEW (6.0.10)) date 2023-02-14 21:15:34*
%MOMM*%
%LPD*%
G01*
G04 APERTURE LIST*
G04 Aperture macros list*
%AMRoundRect*
0 Rectangle with rounded corners*
0 $1 Rounding radius*
0 $2 $3 $4 $5 $6 $7 $8 $9 X,Y pos of 4 corners*
0 Add a 4 corners polygon primitive as box body*
4,1,4,$2,$3,$4,$5,$6,$7,$8,$9,$2,$3,0*
0 Add four circle primitives for the rounded corners*
1,1,$1+$1,$2,$3*
1,1,$1+$1,$4,$5*
1,1,$1+$1,$6,$7*
1,1,$1+$1,$8,$9*
0 Add four rect primitives between the rounded corners*
20,1,$1+$1,$2,$3,$4,$5,0*
20,1,$1+$1,$4,$5,$6,$7,0*
20,1,$1+$1,$6,$7,$8,$9,0*
20,1,$1+$1,$8,$9,$2,$3,0*%
G04 Aperture macros list end*
%ADD10R,1.700000X1.700000*%
%ADD11O,1.700000X1.700000*%
%ADD12RoundRect,0.150000X0.512500X0.150000X-0.512500X0.150000X-0.512500X-0.150000X0.512500X-0.150000X0*%
%ADD13RoundRect,0.250000X-2.500000X0.250000X-2.500000X-0.250000X2.500000X-0.250000X2.500000X0.250000X0*%
%ADD14RoundRect,0.250000X-1.250000X0.550000X-1.250000X-0.550000X1.250000X-0.550000X1.250000X0.550000X0*%
%ADD15O,2.200000X3.500000*%
%ADD16R,1.500000X2.500000*%
%ADD17O,1.500000X2.500000*%
%ADD18RoundRect,0.250000X0.250000X0.475000X-0.250000X0.475000X-0.250000X-0.475000X0.250000X-0.475000X0*%
%ADD19RoundRect,0.250000X-0.350000X-0.450000X0.350000X-0.450000X0.350000X0.450000X-0.350000X0.450000X0*%
%ADD20RoundRect,0.250000X-0.450000X0.350000X-0.450000X-0.350000X0.450000X-0.350000X0.450000X0.350000X0*%
%ADD21RoundRect,0.243750X0.456250X-0.243750X0.456250X0.243750X-0.456250X0.243750X-0.456250X-0.243750X0*%
%ADD22R,0.750000X0.300000*%
%ADD23R,1.600000X1.500000*%
%ADD24RoundRect,0.218750X-0.218750X-0.381250X0.218750X-0.381250X0.218750X0.381250X-0.218750X0.381250X0*%
%ADD25RoundRect,0.250000X0.475000X-0.250000X0.475000X0.250000X-0.475000X0.250000X-0.475000X-0.250000X0*%
%ADD26R,1.400000X0.400000*%
%ADD27O,1.900000X1.050000*%
%ADD28R,1.900000X1.750000*%
%ADD29R,1.450000X1.150000*%
G04 APERTURE END LIST*
D10*
X135382000Y-104140000D03*
D11*
X135382000Y-106680000D03*
D12*
X136937500Y-117250000D03*
X136937500Y-116300000D03*
X136937500Y-115350000D03*
X134662500Y-115350000D03*
X134662500Y-117250000D03*
D13*
X159782000Y-110490000D03*
X159782000Y-112490000D03*
D14*
X162032000Y-108090000D03*
X162032000Y-114890000D03*
D15*
X145538000Y-104140000D03*
X153738000Y-104140000D03*
D16*
X151638000Y-104140000D03*
D17*
X149638000Y-104140000D03*
X147638000Y-104140000D03*
D18*
X136450000Y-120400000D03*
X134550000Y-120400000D03*
D12*
X148863900Y-110855800D03*
X148863900Y-109905800D03*
X148863900Y-108955800D03*
X146588900Y-108955800D03*
X146588900Y-109905800D03*
X146588900Y-110855800D03*
D19*
X146726400Y-118872000D03*
X148726400Y-118872000D03*
X134500000Y-111000000D03*
X136500000Y-111000000D03*
D20*
X152654000Y-117872000D03*
X152654000Y-119872000D03*
D21*
X152654000Y-123795000D03*
X152654000Y-121920000D03*
D22*
X140354900Y-112288600D03*
X140354900Y-112788600D03*
X140354900Y-113288600D03*
X140354900Y-113788600D03*
X143659900Y-113788600D03*
X143659900Y-113288600D03*
X143659900Y-112788600D03*
X143659900Y-112288600D03*
D23*
X142029900Y-113038600D03*
D21*
X156210000Y-123873500D03*
X156210000Y-121998500D03*
D24*
X140923500Y-115798600D03*
X143048500Y-115798600D03*
D25*
X153822400Y-115377000D03*
X153822400Y-113477000D03*
D12*
X148838500Y-116850200D03*
X148838500Y-115900200D03*
X148838500Y-114950200D03*
X146563500Y-114950200D03*
X146563500Y-116850200D03*
D20*
X153695400Y-108956600D03*
X153695400Y-110956600D03*
X156210000Y-117872000D03*
X156210000Y-119872000D03*
D18*
X142961400Y-108864400D03*
X141061400Y-108864400D03*
D26*
X160830000Y-123280000D03*
X160830000Y-122630000D03*
X160830000Y-121980000D03*
X160830000Y-121330000D03*
X160830000Y-120680000D03*
D27*
X163480000Y-118405000D03*
D28*
X163480000Y-123105000D03*
X163480000Y-120855000D03*
D29*
X161250000Y-124300000D03*
X161250000Y-119660000D03*
D27*
X163480000Y-125555000D03*
M02*
