%TF.GenerationSoftware,KiCad,Pcbnew,(6.0.10)*%
%TF.CreationDate,2023-02-04T18:20:05-05:00*%
%TF.ProjectId,lipo_charger,6c69706f-5f63-4686-9172-6765722e6b69,rev?*%
%TF.SameCoordinates,Original*%
%TF.FileFunction,Legend,Top*%
%TF.FilePolarity,Positive*%
%FSLAX46Y46*%
G04 Gerber Fmt 4.6, Leading zero omitted, Abs format (unit mm)*
G04 Created by KiCad (PCBNEW (6.0.10)) date 2023-02-04 18:20:05*
%MOMM*%
%LPD*%
G01*
G04 APERTURE LIST*
%ADD10C,0.150000*%
%ADD11C,0.120000*%
%ADD12C,0.100000*%
G04 APERTURE END LIST*
D10*
X157694571Y-105608380D02*
X157361238Y-105132190D01*
X157123142Y-105608380D02*
X157123142Y-104608380D01*
X157504095Y-104608380D01*
X157599333Y-104656000D01*
X157646952Y-104703619D01*
X157694571Y-104798857D01*
X157694571Y-104941714D01*
X157646952Y-105036952D01*
X157599333Y-105084571D01*
X157504095Y-105132190D01*
X157123142Y-105132190D01*
X158504095Y-105560761D02*
X158408857Y-105608380D01*
X158218380Y-105608380D01*
X158123142Y-105560761D01*
X158075523Y-105465523D01*
X158075523Y-105084571D01*
X158123142Y-104989333D01*
X158218380Y-104941714D01*
X158408857Y-104941714D01*
X158504095Y-104989333D01*
X158551714Y-105084571D01*
X158551714Y-105179809D01*
X158075523Y-105275047D01*
X158885047Y-104941714D02*
X159123142Y-105608380D01*
X159361238Y-104941714D01*
X161027904Y-105608380D02*
X160456476Y-105608380D01*
X160742190Y-105608380D02*
X160742190Y-104608380D01*
X160646952Y-104751238D01*
X160551714Y-104846476D01*
X160456476Y-104894095D01*
X161456476Y-105513142D02*
X161504095Y-105560761D01*
X161456476Y-105608380D01*
X161408857Y-105560761D01*
X161456476Y-105513142D01*
X161456476Y-105608380D01*
X162123142Y-104608380D02*
X162218380Y-104608380D01*
X162313619Y-104656000D01*
X162361238Y-104703619D01*
X162408857Y-104798857D01*
X162456476Y-104989333D01*
X162456476Y-105227428D01*
X162408857Y-105417904D01*
X162361238Y-105513142D01*
X162313619Y-105560761D01*
X162218380Y-105608380D01*
X162123142Y-105608380D01*
X162027904Y-105560761D01*
X161980285Y-105513142D01*
X161932666Y-105417904D01*
X161885047Y-105227428D01*
X161885047Y-104989333D01*
X161932666Y-104798857D01*
X161980285Y-104703619D01*
X162027904Y-104656000D01*
X162123142Y-104608380D01*
X138239523Y-104862380D02*
X137763333Y-104862380D01*
X137715714Y-105338571D01*
X137763333Y-105290952D01*
X137858571Y-105243333D01*
X138096666Y-105243333D01*
X138191904Y-105290952D01*
X138239523Y-105338571D01*
X138287142Y-105433809D01*
X138287142Y-105671904D01*
X138239523Y-105767142D01*
X138191904Y-105814761D01*
X138096666Y-105862380D01*
X137858571Y-105862380D01*
X137763333Y-105814761D01*
X137715714Y-105767142D01*
X138572857Y-104862380D02*
X138906190Y-105862380D01*
X139239523Y-104862380D01*
X137998247Y-107259428D02*
X138760152Y-107259428D01*
X137998247Y-103449428D02*
X138760152Y-103449428D01*
X138379200Y-103830380D02*
X138379200Y-103068476D01*
X154496000Y-103830380D02*
X154496000Y-102830380D01*
X155067428Y-103830380D01*
X155067428Y-102830380D01*
X155686476Y-103830380D02*
X155591238Y-103782761D01*
X155543619Y-103735142D01*
X155496000Y-103639904D01*
X155496000Y-103354190D01*
X155543619Y-103258952D01*
X155591238Y-103211333D01*
X155686476Y-103163714D01*
X155829333Y-103163714D01*
X155924571Y-103211333D01*
X155972190Y-103258952D01*
X156019809Y-103354190D01*
X156019809Y-103639904D01*
X155972190Y-103735142D01*
X155924571Y-103782761D01*
X155829333Y-103830380D01*
X155686476Y-103830380D01*
X156876952Y-103830380D02*
X156876952Y-103306571D01*
X156829333Y-103211333D01*
X156734095Y-103163714D01*
X156543619Y-103163714D01*
X156448380Y-103211333D01*
X156876952Y-103782761D02*
X156781714Y-103830380D01*
X156543619Y-103830380D01*
X156448380Y-103782761D01*
X156400761Y-103687523D01*
X156400761Y-103592285D01*
X156448380Y-103497047D01*
X156543619Y-103449428D01*
X156781714Y-103449428D01*
X156876952Y-103401809D01*
X157353142Y-103830380D02*
X157353142Y-102830380D01*
X157781714Y-103830380D02*
X157781714Y-103306571D01*
X157734095Y-103211333D01*
X157638857Y-103163714D01*
X157496000Y-103163714D01*
X157400761Y-103211333D01*
X157353142Y-103258952D01*
X158924571Y-102830380D02*
X159162666Y-103830380D01*
X159353142Y-103116095D01*
X159543619Y-103830380D01*
X159781714Y-102830380D01*
X160162666Y-103830380D02*
X160162666Y-102830380D01*
X160591238Y-103830380D02*
X160591238Y-103306571D01*
X160543619Y-103211333D01*
X160448380Y-103163714D01*
X160305523Y-103163714D01*
X160210285Y-103211333D01*
X160162666Y-103258952D01*
X161067428Y-103830380D02*
X161067428Y-103163714D01*
X161067428Y-102830380D02*
X161019809Y-102878000D01*
X161067428Y-102925619D01*
X161115047Y-102878000D01*
X161067428Y-102830380D01*
X161067428Y-102925619D01*
X161400761Y-103163714D02*
X161781714Y-103163714D01*
X161543619Y-102830380D02*
X161543619Y-103687523D01*
X161591238Y-103782761D01*
X161686476Y-103830380D01*
X161781714Y-103830380D01*
X162496000Y-103782761D02*
X162400761Y-103830380D01*
X162210285Y-103830380D01*
X162115047Y-103782761D01*
X162067428Y-103687523D01*
X162067428Y-103306571D01*
X162115047Y-103211333D01*
X162210285Y-103163714D01*
X162400761Y-103163714D01*
X162496000Y-103211333D01*
X162543619Y-103306571D01*
X162543619Y-103401809D01*
X162067428Y-103497047D01*
%TO.C,J2*%
X135048666Y-108926380D02*
X135048666Y-109640666D01*
X135001047Y-109783523D01*
X134905809Y-109878761D01*
X134762952Y-109926380D01*
X134667714Y-109926380D01*
X135477238Y-109021619D02*
X135524857Y-108974000D01*
X135620095Y-108926380D01*
X135858190Y-108926380D01*
X135953428Y-108974000D01*
X136001047Y-109021619D01*
X136048666Y-109116857D01*
X136048666Y-109212095D01*
X136001047Y-109354952D01*
X135429619Y-109926380D01*
X136048666Y-109926380D01*
%TO.C,BT1*%
X154001885Y-108361171D02*
X154144742Y-108408790D01*
X154192361Y-108456409D01*
X154239980Y-108551647D01*
X154239980Y-108694504D01*
X154192361Y-108789742D01*
X154144742Y-108837361D01*
X154049504Y-108884980D01*
X153668552Y-108884980D01*
X153668552Y-107884980D01*
X154001885Y-107884980D01*
X154097123Y-107932600D01*
X154144742Y-107980219D01*
X154192361Y-108075457D01*
X154192361Y-108170695D01*
X154144742Y-108265933D01*
X154097123Y-108313552D01*
X154001885Y-108361171D01*
X153668552Y-108361171D01*
X154525695Y-107884980D02*
X155097123Y-107884980D01*
X154811409Y-108884980D02*
X154811409Y-107884980D01*
X155954266Y-108884980D02*
X155382838Y-108884980D01*
X155668552Y-108884980D02*
X155668552Y-107884980D01*
X155573314Y-108027838D01*
X155478076Y-108123076D01*
X155382838Y-108170695D01*
%TO.C,C2*%
X141819333Y-123391142D02*
X141771714Y-123438761D01*
X141628857Y-123486380D01*
X141533619Y-123486380D01*
X141390761Y-123438761D01*
X141295523Y-123343523D01*
X141247904Y-123248285D01*
X141200285Y-123057809D01*
X141200285Y-122914952D01*
X141247904Y-122724476D01*
X141295523Y-122629238D01*
X141390761Y-122534000D01*
X141533619Y-122486380D01*
X141628857Y-122486380D01*
X141771714Y-122534000D01*
X141819333Y-122581619D01*
X142200285Y-122581619D02*
X142247904Y-122534000D01*
X142343142Y-122486380D01*
X142581238Y-122486380D01*
X142676476Y-122534000D01*
X142724095Y-122581619D01*
X142771714Y-122676857D01*
X142771714Y-122772095D01*
X142724095Y-122914952D01*
X142152666Y-123486380D01*
X142771714Y-123486380D01*
%TO.C,SW1*%
X143700666Y-108100761D02*
X143843523Y-108148380D01*
X144081619Y-108148380D01*
X144176857Y-108100761D01*
X144224476Y-108053142D01*
X144272095Y-107957904D01*
X144272095Y-107862666D01*
X144224476Y-107767428D01*
X144176857Y-107719809D01*
X144081619Y-107672190D01*
X143891142Y-107624571D01*
X143795904Y-107576952D01*
X143748285Y-107529333D01*
X143700666Y-107434095D01*
X143700666Y-107338857D01*
X143748285Y-107243619D01*
X143795904Y-107196000D01*
X143891142Y-107148380D01*
X144129238Y-107148380D01*
X144272095Y-107196000D01*
X144605428Y-107148380D02*
X144843523Y-108148380D01*
X145034000Y-107434095D01*
X145224476Y-108148380D01*
X145462571Y-107148380D01*
X146367333Y-108148380D02*
X145795904Y-108148380D01*
X146081619Y-108148380D02*
X146081619Y-107148380D01*
X145986380Y-107291238D01*
X145891142Y-107386476D01*
X145795904Y-107434095D01*
%TO.C,Q1*%
X141890761Y-112097619D02*
X141795523Y-112050000D01*
X141700285Y-111954761D01*
X141557428Y-111811904D01*
X141462190Y-111764285D01*
X141366952Y-111764285D01*
X141414571Y-112002380D02*
X141319333Y-111954761D01*
X141224095Y-111859523D01*
X141176476Y-111669047D01*
X141176476Y-111335714D01*
X141224095Y-111145238D01*
X141319333Y-111050000D01*
X141414571Y-111002380D01*
X141605047Y-111002380D01*
X141700285Y-111050000D01*
X141795523Y-111145238D01*
X141843142Y-111335714D01*
X141843142Y-111669047D01*
X141795523Y-111859523D01*
X141700285Y-111954761D01*
X141605047Y-112002380D01*
X141414571Y-112002380D01*
X142795523Y-112002380D02*
X142224095Y-112002380D01*
X142509809Y-112002380D02*
X142509809Y-111002380D01*
X142414571Y-111145238D01*
X142319333Y-111240476D01*
X142224095Y-111288095D01*
%TO.C,R3*%
X156805333Y-120594380D02*
X156472000Y-120118190D01*
X156233904Y-120594380D02*
X156233904Y-119594380D01*
X156614857Y-119594380D01*
X156710095Y-119642000D01*
X156757714Y-119689619D01*
X156805333Y-119784857D01*
X156805333Y-119927714D01*
X156757714Y-120022952D01*
X156710095Y-120070571D01*
X156614857Y-120118190D01*
X156233904Y-120118190D01*
X157138666Y-119594380D02*
X157757714Y-119594380D01*
X157424380Y-119975333D01*
X157567238Y-119975333D01*
X157662476Y-120022952D01*
X157710095Y-120070571D01*
X157757714Y-120165809D01*
X157757714Y-120403904D01*
X157710095Y-120499142D01*
X157662476Y-120546761D01*
X157567238Y-120594380D01*
X157281523Y-120594380D01*
X157186285Y-120546761D01*
X157138666Y-120499142D01*
%TO.C,R1*%
X146899333Y-119578380D02*
X146566000Y-119102190D01*
X146327904Y-119578380D02*
X146327904Y-118578380D01*
X146708857Y-118578380D01*
X146804095Y-118626000D01*
X146851714Y-118673619D01*
X146899333Y-118768857D01*
X146899333Y-118911714D01*
X146851714Y-119006952D01*
X146804095Y-119054571D01*
X146708857Y-119102190D01*
X146327904Y-119102190D01*
X147851714Y-119578380D02*
X147280285Y-119578380D01*
X147566000Y-119578380D02*
X147566000Y-118578380D01*
X147470761Y-118721238D01*
X147375523Y-118816476D01*
X147280285Y-118864095D01*
%TO.C,R2*%
X146899333Y-115642380D02*
X146566000Y-115166190D01*
X146327904Y-115642380D02*
X146327904Y-114642380D01*
X146708857Y-114642380D01*
X146804095Y-114690000D01*
X146851714Y-114737619D01*
X146899333Y-114832857D01*
X146899333Y-114975714D01*
X146851714Y-115070952D01*
X146804095Y-115118571D01*
X146708857Y-115166190D01*
X146327904Y-115166190D01*
X147280285Y-114737619D02*
X147327904Y-114690000D01*
X147423142Y-114642380D01*
X147661238Y-114642380D01*
X147756476Y-114690000D01*
X147804095Y-114737619D01*
X147851714Y-114832857D01*
X147851714Y-114928095D01*
X147804095Y-115070952D01*
X147232666Y-115642380D01*
X147851714Y-115642380D01*
%TO.C,D1*%
X149629904Y-125420380D02*
X149629904Y-124420380D01*
X149868000Y-124420380D01*
X150010857Y-124468000D01*
X150106095Y-124563238D01*
X150153714Y-124658476D01*
X150201333Y-124848952D01*
X150201333Y-124991809D01*
X150153714Y-125182285D01*
X150106095Y-125277523D01*
X150010857Y-125372761D01*
X149868000Y-125420380D01*
X149629904Y-125420380D01*
X151153714Y-125420380D02*
X150582285Y-125420380D01*
X150868000Y-125420380D02*
X150868000Y-124420380D01*
X150772761Y-124563238D01*
X150677523Y-124658476D01*
X150582285Y-124706095D01*
%TO.C,U1*%
X141224095Y-116686380D02*
X141224095Y-117495904D01*
X141271714Y-117591142D01*
X141319333Y-117638761D01*
X141414571Y-117686380D01*
X141605047Y-117686380D01*
X141700285Y-117638761D01*
X141747904Y-117591142D01*
X141795523Y-117495904D01*
X141795523Y-116686380D01*
X142795523Y-117686380D02*
X142224095Y-117686380D01*
X142509809Y-117686380D02*
X142509809Y-116686380D01*
X142414571Y-116829238D01*
X142319333Y-116924476D01*
X142224095Y-116972095D01*
%TO.C,U2*%
X135128095Y-118578380D02*
X135128095Y-119387904D01*
X135175714Y-119483142D01*
X135223333Y-119530761D01*
X135318571Y-119578380D01*
X135509047Y-119578380D01*
X135604285Y-119530761D01*
X135651904Y-119483142D01*
X135699523Y-119387904D01*
X135699523Y-118578380D01*
X136128095Y-118673619D02*
X136175714Y-118626000D01*
X136270952Y-118578380D01*
X136509047Y-118578380D01*
X136604285Y-118626000D01*
X136651904Y-118673619D01*
X136699523Y-118768857D01*
X136699523Y-118864095D01*
X136651904Y-119006952D01*
X136080476Y-119578380D01*
X136699523Y-119578380D01*
%TO.C,D2*%
X153693904Y-125420380D02*
X153693904Y-124420380D01*
X153932000Y-124420380D01*
X154074857Y-124468000D01*
X154170095Y-124563238D01*
X154217714Y-124658476D01*
X154265333Y-124848952D01*
X154265333Y-124991809D01*
X154217714Y-125182285D01*
X154170095Y-125277523D01*
X154074857Y-125372761D01*
X153932000Y-125420380D01*
X153693904Y-125420380D01*
X154646285Y-124515619D02*
X154693904Y-124468000D01*
X154789142Y-124420380D01*
X155027238Y-124420380D01*
X155122476Y-124468000D01*
X155170095Y-124515619D01*
X155217714Y-124610857D01*
X155217714Y-124706095D01*
X155170095Y-124848952D01*
X154598666Y-125420380D01*
X155217714Y-125420380D01*
%TO.C,L1*%
X135723333Y-124124380D02*
X135247142Y-124124380D01*
X135247142Y-123124380D01*
X136580476Y-124124380D02*
X136009047Y-124124380D01*
X136294761Y-124124380D02*
X136294761Y-123124380D01*
X136199523Y-123267238D01*
X136104285Y-123362476D01*
X136009047Y-123410095D01*
%TO.C,C3*%
X146391333Y-111707142D02*
X146343714Y-111754761D01*
X146200857Y-111802380D01*
X146105619Y-111802380D01*
X145962761Y-111754761D01*
X145867523Y-111659523D01*
X145819904Y-111564285D01*
X145772285Y-111373809D01*
X145772285Y-111230952D01*
X145819904Y-111040476D01*
X145867523Y-110945238D01*
X145962761Y-110850000D01*
X146105619Y-110802380D01*
X146200857Y-110802380D01*
X146343714Y-110850000D01*
X146391333Y-110897619D01*
X146724666Y-110802380D02*
X147343714Y-110802380D01*
X147010380Y-111183333D01*
X147153238Y-111183333D01*
X147248476Y-111230952D01*
X147296095Y-111278571D01*
X147343714Y-111373809D01*
X147343714Y-111611904D01*
X147296095Y-111707142D01*
X147248476Y-111754761D01*
X147153238Y-111802380D01*
X146867523Y-111802380D01*
X146772285Y-111754761D01*
X146724666Y-111707142D01*
%TO.C,U3*%
X151384095Y-119962380D02*
X151384095Y-120771904D01*
X151431714Y-120867142D01*
X151479333Y-120914761D01*
X151574571Y-120962380D01*
X151765047Y-120962380D01*
X151860285Y-120914761D01*
X151907904Y-120867142D01*
X151955523Y-120771904D01*
X151955523Y-119962380D01*
X152336476Y-119962380D02*
X152955523Y-119962380D01*
X152622190Y-120343333D01*
X152765047Y-120343333D01*
X152860285Y-120390952D01*
X152907904Y-120438571D01*
X152955523Y-120533809D01*
X152955523Y-120771904D01*
X152907904Y-120867142D01*
X152860285Y-120914761D01*
X152765047Y-120962380D01*
X152479333Y-120962380D01*
X152384095Y-120914761D01*
X152336476Y-120867142D01*
%TO.C,R4*%
X152249333Y-112340380D02*
X151916000Y-111864190D01*
X151677904Y-112340380D02*
X151677904Y-111340380D01*
X152058857Y-111340380D01*
X152154095Y-111388000D01*
X152201714Y-111435619D01*
X152249333Y-111530857D01*
X152249333Y-111673714D01*
X152201714Y-111768952D01*
X152154095Y-111816571D01*
X152058857Y-111864190D01*
X151677904Y-111864190D01*
X153106476Y-111673714D02*
X153106476Y-112340380D01*
X152868380Y-111292761D02*
X152630285Y-112007047D01*
X153249333Y-112007047D01*
%TO.C,R5*%
X146899333Y-123516380D02*
X146566000Y-123040190D01*
X146327904Y-123516380D02*
X146327904Y-122516380D01*
X146708857Y-122516380D01*
X146804095Y-122564000D01*
X146851714Y-122611619D01*
X146899333Y-122706857D01*
X146899333Y-122849714D01*
X146851714Y-122944952D01*
X146804095Y-122992571D01*
X146708857Y-123040190D01*
X146327904Y-123040190D01*
X147804095Y-122516380D02*
X147327904Y-122516380D01*
X147280285Y-122992571D01*
X147327904Y-122944952D01*
X147423142Y-122897333D01*
X147661238Y-122897333D01*
X147756476Y-122944952D01*
X147804095Y-122992571D01*
X147851714Y-123087809D01*
X147851714Y-123325904D01*
X147804095Y-123421142D01*
X147756476Y-123468761D01*
X147661238Y-123516380D01*
X147423142Y-123516380D01*
X147327904Y-123468761D01*
X147280285Y-123421142D01*
%TO.C,C1*%
X135255333Y-115625142D02*
X135207714Y-115672761D01*
X135064857Y-115720380D01*
X134969619Y-115720380D01*
X134826761Y-115672761D01*
X134731523Y-115577523D01*
X134683904Y-115482285D01*
X134636285Y-115291809D01*
X134636285Y-115148952D01*
X134683904Y-114958476D01*
X134731523Y-114863238D01*
X134826761Y-114768000D01*
X134969619Y-114720380D01*
X135064857Y-114720380D01*
X135207714Y-114768000D01*
X135255333Y-114815619D01*
X136207714Y-115720380D02*
X135636285Y-115720380D01*
X135922000Y-115720380D02*
X135922000Y-114720380D01*
X135826761Y-114863238D01*
X135731523Y-114958476D01*
X135636285Y-115006095D01*
%TO.C,J1*%
X158416666Y-124928380D02*
X158416666Y-125642666D01*
X158369047Y-125785523D01*
X158273809Y-125880761D01*
X158130952Y-125928380D01*
X158035714Y-125928380D01*
X159416666Y-125928380D02*
X158845238Y-125928380D01*
X159130952Y-125928380D02*
X159130952Y-124928380D01*
X159035714Y-125071238D01*
X158940476Y-125166476D01*
X158845238Y-125214095D01*
D11*
%TO.C,J2*%
X134052000Y-108010000D02*
X136712000Y-108010000D01*
X134052000Y-102810000D02*
X135382000Y-102810000D01*
X134052000Y-105410000D02*
X136712000Y-105410000D01*
X134052000Y-104140000D02*
X134052000Y-102810000D01*
X134052000Y-105410000D02*
X134052000Y-108010000D01*
X136712000Y-105410000D02*
X136712000Y-108010000D01*
%TO.C,BT1*%
X159200000Y-115591000D02*
X159200000Y-113266000D01*
X160050000Y-107421000D02*
X159200000Y-107421000D01*
X164420000Y-115591000D02*
X163570000Y-115591000D01*
X160050000Y-115591000D02*
X159200000Y-115591000D01*
X159200000Y-109746000D02*
X156810000Y-109746000D01*
X163570000Y-107421000D02*
X164420000Y-107421000D01*
X159200000Y-107421000D02*
X159200000Y-109746000D01*
X164420000Y-107421000D02*
X164420000Y-115591000D01*
%TO.C,C2*%
X141724748Y-123979000D02*
X142247252Y-123979000D01*
X141724748Y-125449000D02*
X142247252Y-125449000D01*
%TO.C,SW1*%
X150114000Y-106600000D02*
X149614000Y-107100000D01*
X143704000Y-106400000D02*
X143704000Y-106090000D01*
X149614000Y-107100000D02*
X150614000Y-107100000D01*
X152524000Y-106090000D02*
X152524000Y-106400000D01*
X152524000Y-106400000D02*
X143704000Y-106400000D01*
X152524000Y-101880000D02*
X152524000Y-102190000D01*
X143704000Y-101880000D02*
X143704000Y-102190000D01*
X150614000Y-107100000D02*
X150114000Y-106600000D01*
X143704000Y-101880000D02*
X152524000Y-101880000D01*
D12*
%TO.C,Q1*%
X142911000Y-113500000D02*
X143211000Y-113500000D01*
X143211000Y-115100000D02*
X143211000Y-114850000D01*
X140761000Y-113500000D02*
X140761000Y-113800000D01*
X141061000Y-115100000D02*
X141061000Y-115500000D01*
X142936000Y-115100000D02*
X143211000Y-115100000D01*
X140761000Y-114775000D02*
X141061000Y-115100000D01*
X141061000Y-113500000D02*
X140761000Y-113500000D01*
X143211000Y-113500000D02*
X143211000Y-113725000D01*
D11*
%TO.C,R3*%
X157453064Y-117629000D02*
X156998936Y-117629000D01*
X157453064Y-119099000D02*
X156998936Y-119099000D01*
%TO.C,R1*%
X147293064Y-121639000D02*
X146838936Y-121639000D01*
X147293064Y-120169000D02*
X146838936Y-120169000D01*
%TO.C,R2*%
X146838936Y-116105000D02*
X147293064Y-116105000D01*
X146838936Y-117575000D02*
X147293064Y-117575000D01*
%TO.C,D1*%
X151440000Y-122952000D02*
X151440000Y-125637000D01*
X153360000Y-125637000D02*
X153360000Y-122952000D01*
X151440000Y-125637000D02*
X153360000Y-125637000D01*
%TO.C,U1*%
X141986000Y-121194000D02*
X142786000Y-121194000D01*
X141986000Y-118074000D02*
X142786000Y-118074000D01*
X141986000Y-118074000D02*
X140186000Y-118074000D01*
X141986000Y-121194000D02*
X141186000Y-121194000D01*
%TO.C,U2*%
X135890000Y-120048000D02*
X137390000Y-120048000D01*
X134390000Y-122268000D02*
X137390000Y-122268000D01*
%TO.C,D2*%
X155504000Y-125637000D02*
X157424000Y-125637000D01*
X155504000Y-122952000D02*
X155504000Y-125637000D01*
X157424000Y-125637000D02*
X157424000Y-122952000D01*
%TO.C,L1*%
X135236378Y-125782000D02*
X136035622Y-125782000D01*
X135236378Y-124662000D02*
X136035622Y-124662000D01*
%TO.C,C3*%
X146296748Y-112295000D02*
X146819252Y-112295000D01*
X146296748Y-113765000D02*
X146819252Y-113765000D01*
%TO.C,U3*%
X152146000Y-116550000D02*
X151346000Y-116550000D01*
X152146000Y-116550000D02*
X152946000Y-116550000D01*
X152146000Y-119670000D02*
X151346000Y-119670000D01*
X152146000Y-119670000D02*
X153946000Y-119670000D01*
%TO.C,R4*%
X152188936Y-112803000D02*
X152643064Y-112803000D01*
X152188936Y-114273000D02*
X152643064Y-114273000D01*
%TO.C,R5*%
X146838936Y-125449000D02*
X147293064Y-125449000D01*
X146838936Y-123979000D02*
X147293064Y-123979000D01*
%TO.C,C1*%
X135643252Y-118083000D02*
X135120748Y-118083000D01*
X135643252Y-116613000D02*
X135120748Y-116613000D01*
%TO.C,J1*%
X159870000Y-123740000D02*
X159870000Y-123290000D01*
X159870000Y-123740000D02*
X160260000Y-123740000D01*
X160570000Y-125790000D02*
X160570000Y-125130000D01*
X162300000Y-125790000D02*
X160570000Y-125790000D01*
X164870000Y-125790000D02*
X164660000Y-125790000D01*
X164870000Y-118170000D02*
X164660000Y-118170000D01*
X160570000Y-118170000D02*
X160570000Y-118820000D01*
X162300000Y-118170000D02*
X160570000Y-118170000D01*
%TD*%
M02*
