G04 #@! TF.GenerationSoftware,KiCad,Pcbnew,(6.0.10)*
G04 #@! TF.CreationDate,2023-02-14T21:15:34-05:00*
G04 #@! TF.ProjectId,lipo_charger,6c69706f-5f63-4686-9172-6765722e6b69,rev?*
G04 #@! TF.SameCoordinates,Original*
G04 #@! TF.FileFunction,Copper,L2,Bot*
G04 #@! TF.FilePolarity,Positive*
%FSLAX46Y46*%
G04 Gerber Fmt 4.6, Leading zero omitted, Abs format (unit mm)*
G04 Created by KiCad (PCBNEW (6.0.10)) date 2023-02-14 21:15:34*
%MOMM*%
%LPD*%
G01*
G04 APERTURE LIST*
G04 #@! TA.AperFunction,ComponentPad*
%ADD10R,1.700000X1.700000*%
G04 #@! TD*
G04 #@! TA.AperFunction,ComponentPad*
%ADD11O,1.700000X1.700000*%
G04 #@! TD*
G04 #@! TA.AperFunction,ComponentPad*
%ADD12O,2.200000X3.500000*%
G04 #@! TD*
G04 #@! TA.AperFunction,ComponentPad*
%ADD13R,1.500000X2.500000*%
G04 #@! TD*
G04 #@! TA.AperFunction,ComponentPad*
%ADD14O,1.500000X2.500000*%
G04 #@! TD*
G04 #@! TA.AperFunction,ComponentPad*
%ADD15O,1.900000X1.050000*%
G04 #@! TD*
G04 #@! TA.AperFunction,ViaPad*
%ADD16C,0.800000*%
G04 #@! TD*
G04 #@! TA.AperFunction,Conductor*
%ADD17C,0.150000*%
G04 #@! TD*
G04 APERTURE END LIST*
D10*
X135382000Y-104140000D03*
D11*
X135382000Y-106680000D03*
D12*
X145538000Y-104140000D03*
X153738000Y-104140000D03*
D13*
X151638000Y-104140000D03*
D14*
X149638000Y-104140000D03*
X147638000Y-104140000D03*
D15*
X163480000Y-118405000D03*
X163480000Y-125555000D03*
D16*
X150368000Y-110236000D03*
X148800000Y-106000000D03*
X143800000Y-118400000D03*
X146100000Y-113200000D03*
D17*
X148800000Y-106000000D02*
X143800000Y-111000000D01*
X143800000Y-111000000D02*
X143800000Y-118400000D01*
X151638000Y-107662000D02*
X146100000Y-113200000D01*
X151638000Y-104140000D02*
X151638000Y-107662000D01*
G04 #@! TA.AperFunction,Conductor*
G36*
X164787621Y-101874502D02*
G01*
X164834114Y-101928158D01*
X164845500Y-101980500D01*
X164845500Y-117575423D01*
X164825498Y-117643544D01*
X164771842Y-117690037D01*
X164701568Y-117700141D01*
X164638509Y-117671945D01*
X164496156Y-117552496D01*
X164486031Y-117545563D01*
X164319308Y-117453906D01*
X164308038Y-117449076D01*
X164126685Y-117391548D01*
X164114691Y-117388998D01*
X163966650Y-117372393D01*
X163959626Y-117372000D01*
X163752115Y-117372000D01*
X163736876Y-117376475D01*
X163735671Y-117377865D01*
X163734000Y-117385548D01*
X163734000Y-119419885D01*
X163738475Y-119435124D01*
X163739865Y-119436329D01*
X163747548Y-119438000D01*
X163952890Y-119438000D01*
X163959035Y-119437700D01*
X164100481Y-119423830D01*
X164112519Y-119421447D01*
X164294651Y-119366458D01*
X164305993Y-119361783D01*
X164473977Y-119272465D01*
X164484193Y-119265678D01*
X164636409Y-119141533D01*
X164637384Y-119142729D01*
X164693146Y-119112532D01*
X164763944Y-119117844D01*
X164820631Y-119160588D01*
X164845210Y-119227194D01*
X164845500Y-119235745D01*
X164845500Y-124725423D01*
X164825498Y-124793544D01*
X164771842Y-124840037D01*
X164701568Y-124850141D01*
X164638509Y-124821945D01*
X164496156Y-124702496D01*
X164486031Y-124695563D01*
X164319308Y-124603906D01*
X164308038Y-124599076D01*
X164126685Y-124541548D01*
X164114691Y-124538998D01*
X163966650Y-124522393D01*
X163959626Y-124522000D01*
X163752115Y-124522000D01*
X163736876Y-124526475D01*
X163735671Y-124527865D01*
X163734000Y-124535548D01*
X163734000Y-125683000D01*
X163713998Y-125751121D01*
X163660342Y-125797614D01*
X163608000Y-125809000D01*
X162071014Y-125809000D01*
X162057483Y-125812973D01*
X162056363Y-125820768D01*
X162090846Y-125937932D01*
X162095439Y-125949300D01*
X162183586Y-126117911D01*
X162190302Y-126128173D01*
X162309515Y-126276443D01*
X162318103Y-126285213D01*
X162463838Y-126407499D01*
X162473969Y-126414437D01*
X162646089Y-126509061D01*
X162644681Y-126511622D01*
X162689811Y-126548907D01*
X162711409Y-126616538D01*
X162693014Y-126685110D01*
X162640466Y-126732852D01*
X162585444Y-126745500D01*
X133222500Y-126745500D01*
X133154379Y-126725498D01*
X133107886Y-126671842D01*
X133096500Y-126619500D01*
X133096500Y-125297795D01*
X162057372Y-125297795D01*
X162064127Y-125301000D01*
X163207885Y-125301000D01*
X163223124Y-125296525D01*
X163224329Y-125295135D01*
X163226000Y-125287452D01*
X163226000Y-124540115D01*
X163221525Y-124524876D01*
X163220135Y-124523671D01*
X163212452Y-124522000D01*
X163007110Y-124522000D01*
X163000965Y-124522300D01*
X162859519Y-124536170D01*
X162847481Y-124538553D01*
X162665349Y-124593542D01*
X162654007Y-124598217D01*
X162486023Y-124687535D01*
X162475807Y-124694322D01*
X162328366Y-124814572D01*
X162319662Y-124823216D01*
X162198390Y-124969809D01*
X162191530Y-124979980D01*
X162101038Y-125147342D01*
X162096286Y-125158647D01*
X162057578Y-125283692D01*
X162057372Y-125297795D01*
X133096500Y-125297795D01*
X133096500Y-118393096D01*
X143140729Y-118393096D01*
X143158113Y-118550553D01*
X143160723Y-118557684D01*
X143160723Y-118557686D01*
X143204428Y-118677115D01*
X143212553Y-118699319D01*
X143216789Y-118705622D01*
X143216789Y-118705623D01*
X143279738Y-118799300D01*
X143300908Y-118830805D01*
X143306527Y-118835918D01*
X143306528Y-118835919D01*
X143317903Y-118846269D01*
X143418076Y-118937419D01*
X143557293Y-119013008D01*
X143710522Y-119053207D01*
X143794477Y-119054526D01*
X143861319Y-119055576D01*
X143861322Y-119055576D01*
X143868916Y-119055695D01*
X144023332Y-119020329D01*
X144127555Y-118967911D01*
X144158072Y-118952563D01*
X144158075Y-118952561D01*
X144164855Y-118949151D01*
X144170626Y-118944222D01*
X144170629Y-118944220D01*
X144279536Y-118851204D01*
X144279536Y-118851203D01*
X144285314Y-118846269D01*
X144377755Y-118717624D01*
X144396591Y-118670768D01*
X162056363Y-118670768D01*
X162090846Y-118787932D01*
X162095439Y-118799300D01*
X162183586Y-118967911D01*
X162190302Y-118978173D01*
X162309515Y-119126443D01*
X162318103Y-119135213D01*
X162463838Y-119257499D01*
X162473969Y-119264437D01*
X162640692Y-119356094D01*
X162651962Y-119360924D01*
X162833315Y-119418452D01*
X162845309Y-119421002D01*
X162993350Y-119437607D01*
X163000374Y-119438000D01*
X163207885Y-119438000D01*
X163223124Y-119433525D01*
X163224329Y-119432135D01*
X163226000Y-119424452D01*
X163226000Y-118677115D01*
X163221525Y-118661876D01*
X163220135Y-118660671D01*
X163212452Y-118659000D01*
X162071014Y-118659000D01*
X162057483Y-118662973D01*
X162056363Y-118670768D01*
X144396591Y-118670768D01*
X144436842Y-118570641D01*
X144459162Y-118413807D01*
X144459307Y-118400000D01*
X144440276Y-118242733D01*
X144404401Y-118147795D01*
X162057372Y-118147795D01*
X162064127Y-118151000D01*
X163207885Y-118151000D01*
X163223124Y-118146525D01*
X163224329Y-118145135D01*
X163226000Y-118137452D01*
X163226000Y-117390115D01*
X163221525Y-117374876D01*
X163220135Y-117373671D01*
X163212452Y-117372000D01*
X163007110Y-117372000D01*
X163000965Y-117372300D01*
X162859519Y-117386170D01*
X162847481Y-117388553D01*
X162665349Y-117443542D01*
X162654007Y-117448217D01*
X162486023Y-117537535D01*
X162475807Y-117544322D01*
X162328366Y-117664572D01*
X162319662Y-117673216D01*
X162198390Y-117819809D01*
X162191530Y-117829980D01*
X162101038Y-117997342D01*
X162096286Y-118008647D01*
X162057578Y-118133692D01*
X162057372Y-118147795D01*
X144404401Y-118147795D01*
X144384280Y-118094546D01*
X144375814Y-118082228D01*
X144298855Y-117970251D01*
X144298854Y-117970249D01*
X144294553Y-117963992D01*
X144176275Y-117858611D01*
X144177498Y-117857239D01*
X144139068Y-117809502D01*
X144129500Y-117761341D01*
X144129500Y-111188673D01*
X144149502Y-111120552D01*
X144166405Y-111099578D01*
X148581961Y-106684023D01*
X148644273Y-106649997D01*
X148695531Y-106651082D01*
X148695645Y-106650248D01*
X148702864Y-106651237D01*
X148703022Y-106651240D01*
X148703168Y-106651278D01*
X148703171Y-106651278D01*
X148710522Y-106653207D01*
X148794477Y-106654526D01*
X148861319Y-106655576D01*
X148861322Y-106655576D01*
X148868916Y-106655695D01*
X149023332Y-106620329D01*
X149093742Y-106584917D01*
X149158072Y-106552563D01*
X149158075Y-106552561D01*
X149164855Y-106549151D01*
X149170626Y-106544222D01*
X149170629Y-106544220D01*
X149279536Y-106451204D01*
X149279536Y-106451203D01*
X149285314Y-106446269D01*
X149377755Y-106317624D01*
X149436842Y-106170641D01*
X149444279Y-106118386D01*
X149458581Y-106017891D01*
X149458581Y-106017888D01*
X149459162Y-106013807D01*
X149459307Y-106000000D01*
X149440276Y-105842733D01*
X149428588Y-105811802D01*
X149423220Y-105741009D01*
X149456977Y-105678551D01*
X149519143Y-105644259D01*
X149553046Y-105641437D01*
X149618332Y-105644859D01*
X149680942Y-105648141D01*
X149680946Y-105648141D01*
X149687323Y-105648475D01*
X149889097Y-105617959D01*
X150080615Y-105547494D01*
X150254051Y-105439959D01*
X150402323Y-105299746D01*
X150405986Y-105294515D01*
X150410152Y-105289688D01*
X150411693Y-105291018D01*
X150459751Y-105252608D01*
X150530371Y-105245303D01*
X150593730Y-105277337D01*
X150629711Y-105338540D01*
X150633501Y-105369210D01*
X150633501Y-105415066D01*
X150648266Y-105489301D01*
X150655161Y-105499621D01*
X150655162Y-105499622D01*
X150683824Y-105542517D01*
X150704516Y-105573484D01*
X150788699Y-105629734D01*
X150862933Y-105644500D01*
X151182500Y-105644500D01*
X151250621Y-105664502D01*
X151297114Y-105718158D01*
X151308500Y-105770500D01*
X151308500Y-107473326D01*
X151288498Y-107541447D01*
X151271595Y-107562421D01*
X146317458Y-112516559D01*
X146255146Y-112550585D01*
X146197672Y-112549669D01*
X146190006Y-112547744D01*
X146182633Y-112545892D01*
X146175033Y-112545852D01*
X146175032Y-112545852D01*
X146110232Y-112545513D01*
X146024221Y-112545062D01*
X146016841Y-112546834D01*
X146016839Y-112546834D01*
X145877563Y-112580271D01*
X145877560Y-112580272D01*
X145870184Y-112582043D01*
X145729414Y-112654700D01*
X145610039Y-112758838D01*
X145518950Y-112888444D01*
X145516190Y-112895524D01*
X145468287Y-113018389D01*
X145461406Y-113036037D01*
X145440729Y-113193096D01*
X145458113Y-113350553D01*
X145512553Y-113499319D01*
X145600908Y-113630805D01*
X145606527Y-113635918D01*
X145606528Y-113635919D01*
X145617903Y-113646269D01*
X145718076Y-113737419D01*
X145857293Y-113813008D01*
X146010522Y-113853207D01*
X146094477Y-113854526D01*
X146161319Y-113855576D01*
X146161322Y-113855576D01*
X146168916Y-113855695D01*
X146323332Y-113820329D01*
X146393742Y-113784917D01*
X146458072Y-113752563D01*
X146458075Y-113752561D01*
X146464855Y-113749151D01*
X146470626Y-113744222D01*
X146470629Y-113744220D01*
X146579536Y-113651204D01*
X146579536Y-113651203D01*
X146585314Y-113646269D01*
X146677755Y-113517624D01*
X146736842Y-113370641D01*
X146759162Y-113213807D01*
X146759307Y-113200000D01*
X146745804Y-113088417D01*
X146757477Y-113018389D01*
X146781796Y-112984187D01*
X151856929Y-107909055D01*
X151865033Y-107901628D01*
X151885860Y-107884152D01*
X151894305Y-107877066D01*
X151899816Y-107867521D01*
X151899819Y-107867517D01*
X151913410Y-107843976D01*
X151919315Y-107834706D01*
X151934914Y-107812428D01*
X151941235Y-107803401D01*
X151944087Y-107792756D01*
X151945637Y-107789433D01*
X151946894Y-107785979D01*
X151952405Y-107776434D01*
X151959041Y-107738801D01*
X151961420Y-107728070D01*
X151968458Y-107701803D01*
X151971310Y-107691160D01*
X151967979Y-107653085D01*
X151967500Y-107642104D01*
X151967500Y-105770499D01*
X151987502Y-105702378D01*
X152041158Y-105655885D01*
X152093500Y-105644499D01*
X152413066Y-105644499D01*
X152454877Y-105636183D01*
X152475126Y-105632156D01*
X152475128Y-105632155D01*
X152487301Y-105629734D01*
X152509875Y-105614650D01*
X152577626Y-105593436D01*
X152646093Y-105612219D01*
X152677078Y-105639586D01*
X152678570Y-105641803D01*
X152837236Y-105808128D01*
X153021658Y-105945342D01*
X153026409Y-105947758D01*
X153026413Y-105947760D01*
X153156319Y-106013807D01*
X153226562Y-106049520D01*
X153446089Y-106117685D01*
X153451378Y-106118386D01*
X153668681Y-106147188D01*
X153668684Y-106147188D01*
X153673964Y-106147888D01*
X153679293Y-106147688D01*
X153679294Y-106147688D01*
X153772660Y-106144183D01*
X153903669Y-106139264D01*
X154014054Y-106116103D01*
X154123410Y-106093158D01*
X154123413Y-106093157D01*
X154128637Y-106092061D01*
X154281383Y-106031739D01*
X154337466Y-106009591D01*
X154337469Y-106009590D01*
X154342436Y-106007628D01*
X154450330Y-105942156D01*
X154534391Y-105891147D01*
X154534394Y-105891145D01*
X154538952Y-105888379D01*
X154589222Y-105844757D01*
X154708533Y-105741224D01*
X154708535Y-105741222D01*
X154712566Y-105737724D01*
X154752973Y-105688444D01*
X154854931Y-105564099D01*
X154854935Y-105564093D01*
X154858315Y-105559971D01*
X154865418Y-105547494D01*
X154969387Y-105364845D01*
X154972030Y-105360202D01*
X155050461Y-105144129D01*
X155058510Y-105099620D01*
X155090625Y-104922015D01*
X155091364Y-104917931D01*
X155092500Y-104893842D01*
X155092500Y-103432288D01*
X155078825Y-103271123D01*
X155078413Y-103266267D01*
X155078412Y-103266263D01*
X155077962Y-103260956D01*
X155076624Y-103255801D01*
X155076623Y-103255795D01*
X155025068Y-103057162D01*
X155020214Y-103038461D01*
X154925803Y-102828877D01*
X154797430Y-102638197D01*
X154791978Y-102632481D01*
X154642443Y-102475729D01*
X154638764Y-102471872D01*
X154454342Y-102334658D01*
X154449591Y-102332242D01*
X154449587Y-102332240D01*
X154254194Y-102232898D01*
X154254193Y-102232898D01*
X154249438Y-102230480D01*
X154029911Y-102162315D01*
X154011186Y-102159833D01*
X153807319Y-102132812D01*
X153807316Y-102132812D01*
X153802036Y-102132112D01*
X153796707Y-102132312D01*
X153796706Y-102132312D01*
X153703340Y-102135817D01*
X153572331Y-102140736D01*
X153488345Y-102158358D01*
X153352590Y-102186842D01*
X153352587Y-102186843D01*
X153347363Y-102187939D01*
X153243648Y-102228898D01*
X153138534Y-102270409D01*
X153138531Y-102270410D01*
X153133564Y-102272372D01*
X153128998Y-102275143D01*
X152941609Y-102388853D01*
X152941606Y-102388855D01*
X152937048Y-102391621D01*
X152763434Y-102542276D01*
X152760047Y-102546407D01*
X152680931Y-102642895D01*
X152622271Y-102682890D01*
X152551301Y-102684821D01*
X152513497Y-102667770D01*
X152487301Y-102650266D01*
X152413067Y-102635500D01*
X151638126Y-102635500D01*
X150862934Y-102635501D01*
X150830902Y-102641872D01*
X150800874Y-102647844D01*
X150800872Y-102647845D01*
X150788699Y-102650266D01*
X150778379Y-102657161D01*
X150778378Y-102657162D01*
X150739874Y-102682890D01*
X150704516Y-102706516D01*
X150648266Y-102790699D01*
X150633500Y-102864933D01*
X150633500Y-102917284D01*
X150613498Y-102985405D01*
X150559842Y-103031898D01*
X150489568Y-103042002D01*
X150424988Y-103012508D01*
X150411832Y-102999282D01*
X150409026Y-102996009D01*
X150334295Y-102908818D01*
X150173049Y-102783743D01*
X150064439Y-102730300D01*
X149995668Y-102696460D01*
X149995663Y-102696458D01*
X149989946Y-102693645D01*
X149983773Y-102692037D01*
X149983770Y-102692036D01*
X149823410Y-102650266D01*
X149792467Y-102642206D01*
X149687548Y-102636707D01*
X149595058Y-102631859D01*
X149595054Y-102631859D01*
X149588677Y-102631525D01*
X149386903Y-102662041D01*
X149195385Y-102732506D01*
X149021949Y-102840041D01*
X148873677Y-102980254D01*
X148870015Y-102985484D01*
X148870014Y-102985485D01*
X148818595Y-103058919D01*
X148756628Y-103147418D01*
X148754092Y-103153279D01*
X148751719Y-103158762D01*
X148706308Y-103213336D01*
X148638601Y-103234696D01*
X148570094Y-103216059D01*
X148525880Y-103169807D01*
X148470191Y-103069342D01*
X148467098Y-103063762D01*
X148334295Y-102908818D01*
X148173049Y-102783743D01*
X148064439Y-102730300D01*
X147995668Y-102696460D01*
X147995663Y-102696458D01*
X147989946Y-102693645D01*
X147983773Y-102692037D01*
X147983770Y-102692036D01*
X147823410Y-102650266D01*
X147792467Y-102642206D01*
X147687548Y-102636707D01*
X147595058Y-102631859D01*
X147595054Y-102631859D01*
X147588677Y-102631525D01*
X147386903Y-102662041D01*
X147195385Y-102732506D01*
X147021949Y-102840041D01*
X147017311Y-102844427D01*
X147017306Y-102844431D01*
X146946500Y-102911389D01*
X146883262Y-102943661D01*
X146812616Y-102936621D01*
X146756990Y-102892504D01*
X146745045Y-102871592D01*
X146727993Y-102833738D01*
X146727992Y-102833735D01*
X146725803Y-102828877D01*
X146597430Y-102638197D01*
X146591978Y-102632481D01*
X146442443Y-102475729D01*
X146438764Y-102471872D01*
X146254342Y-102334658D01*
X146249591Y-102332242D01*
X146249587Y-102332240D01*
X146054194Y-102232898D01*
X146054193Y-102232898D01*
X146049438Y-102230480D01*
X145829911Y-102162315D01*
X145811186Y-102159833D01*
X145607319Y-102132812D01*
X145607316Y-102132812D01*
X145602036Y-102132112D01*
X145596707Y-102132312D01*
X145596706Y-102132312D01*
X145503340Y-102135817D01*
X145372331Y-102140736D01*
X145288345Y-102158358D01*
X145152590Y-102186842D01*
X145152587Y-102186843D01*
X145147363Y-102187939D01*
X145043648Y-102228898D01*
X144938534Y-102270409D01*
X144938531Y-102270410D01*
X144933564Y-102272372D01*
X144928998Y-102275143D01*
X144741609Y-102388853D01*
X144741606Y-102388855D01*
X144737048Y-102391621D01*
X144563434Y-102542276D01*
X144560047Y-102546407D01*
X144421069Y-102715901D01*
X144421065Y-102715907D01*
X144417685Y-102720029D01*
X144415046Y-102724665D01*
X144415044Y-102724668D01*
X144400585Y-102750069D01*
X144303970Y-102919798D01*
X144225539Y-103135871D01*
X144224590Y-103141120D01*
X144224589Y-103141123D01*
X144213423Y-103202872D01*
X144184636Y-103362069D01*
X144183500Y-103386158D01*
X144183500Y-104847712D01*
X144189458Y-104917931D01*
X144197176Y-105008880D01*
X144198038Y-105019044D01*
X144199376Y-105024199D01*
X144199377Y-105024205D01*
X144239912Y-105180377D01*
X144255786Y-105241539D01*
X144315949Y-105375095D01*
X144340851Y-105430375D01*
X144350197Y-105451123D01*
X144478570Y-105641803D01*
X144482249Y-105645660D01*
X144482251Y-105645662D01*
X144500224Y-105664502D01*
X144637236Y-105808128D01*
X144821658Y-105945342D01*
X144826409Y-105947758D01*
X144826413Y-105947760D01*
X144956319Y-106013807D01*
X145026562Y-106049520D01*
X145246089Y-106117685D01*
X145251378Y-106118386D01*
X145468681Y-106147188D01*
X145468684Y-106147188D01*
X145473964Y-106147888D01*
X145479293Y-106147688D01*
X145479294Y-106147688D01*
X145572660Y-106144183D01*
X145703669Y-106139264D01*
X145814054Y-106116103D01*
X145923410Y-106093158D01*
X145923413Y-106093157D01*
X145928637Y-106092061D01*
X146081383Y-106031739D01*
X146137466Y-106009591D01*
X146137469Y-106009590D01*
X146142436Y-106007628D01*
X146250330Y-105942156D01*
X146334391Y-105891147D01*
X146334394Y-105891145D01*
X146338952Y-105888379D01*
X146389222Y-105844757D01*
X146508533Y-105741224D01*
X146508535Y-105741222D01*
X146512566Y-105737724D01*
X146552973Y-105688444D01*
X146654931Y-105564099D01*
X146654935Y-105564093D01*
X146658315Y-105559971D01*
X146748241Y-105401993D01*
X146799322Y-105352688D01*
X146868952Y-105338826D01*
X146935023Y-105364809D01*
X146939672Y-105368810D01*
X146941705Y-105371182D01*
X147102951Y-105496257D01*
X147108673Y-105499072D01*
X147108672Y-105499072D01*
X147280332Y-105583540D01*
X147280337Y-105583542D01*
X147286054Y-105586355D01*
X147292227Y-105587963D01*
X147292230Y-105587964D01*
X147315127Y-105593928D01*
X147483533Y-105637794D01*
X147585428Y-105643134D01*
X147680942Y-105648141D01*
X147680946Y-105648141D01*
X147687323Y-105648475D01*
X147889097Y-105617959D01*
X147895090Y-105615754D01*
X147895094Y-105615753D01*
X148043770Y-105561051D01*
X148114607Y-105556301D01*
X148176768Y-105590602D01*
X148210515Y-105653065D01*
X148204670Y-105725071D01*
X148165036Y-105826727D01*
X148161406Y-105836037D01*
X148160414Y-105843570D01*
X148160414Y-105843571D01*
X148146698Y-105947760D01*
X148140729Y-105993096D01*
X148151655Y-106092061D01*
X148153994Y-106113244D01*
X148141588Y-106183148D01*
X148117850Y-106216166D01*
X143581077Y-110752940D01*
X143572973Y-110760367D01*
X143543695Y-110784934D01*
X143538185Y-110794477D01*
X143538182Y-110794481D01*
X143524587Y-110818029D01*
X143518683Y-110827296D01*
X143496765Y-110858599D01*
X143493913Y-110869243D01*
X143492363Y-110872567D01*
X143491106Y-110876021D01*
X143485595Y-110885566D01*
X143483681Y-110896418D01*
X143483681Y-110896419D01*
X143478959Y-110923199D01*
X143476581Y-110933927D01*
X143466690Y-110970840D01*
X143467651Y-110981822D01*
X143470020Y-111008900D01*
X143470500Y-111019882D01*
X143470500Y-117761569D01*
X143450498Y-117829690D01*
X143427330Y-117856518D01*
X143310039Y-117958838D01*
X143218950Y-118088444D01*
X143161406Y-118236037D01*
X143140729Y-118393096D01*
X133096500Y-118393096D01*
X133096500Y-106947966D01*
X134050257Y-106947966D01*
X134080565Y-107082446D01*
X134083645Y-107092275D01*
X134163770Y-107289603D01*
X134168413Y-107298794D01*
X134279694Y-107480388D01*
X134285777Y-107488699D01*
X134425213Y-107649667D01*
X134432580Y-107656883D01*
X134596434Y-107792916D01*
X134604881Y-107798831D01*
X134788756Y-107906279D01*
X134798042Y-107910729D01*
X134997001Y-107986703D01*
X135006899Y-107989579D01*
X135110250Y-108010606D01*
X135124299Y-108009410D01*
X135128000Y-107999065D01*
X135128000Y-107998517D01*
X135636000Y-107998517D01*
X135640064Y-108012359D01*
X135653478Y-108014393D01*
X135660184Y-108013534D01*
X135670262Y-108011392D01*
X135874255Y-107950191D01*
X135883842Y-107946433D01*
X136075095Y-107852739D01*
X136083945Y-107847464D01*
X136257328Y-107723792D01*
X136265200Y-107717139D01*
X136416052Y-107566812D01*
X136422730Y-107558965D01*
X136547003Y-107386020D01*
X136552313Y-107377183D01*
X136646670Y-107186267D01*
X136650469Y-107176672D01*
X136712377Y-106972910D01*
X136714555Y-106962837D01*
X136715986Y-106951962D01*
X136713775Y-106937778D01*
X136700617Y-106934000D01*
X135654115Y-106934000D01*
X135638876Y-106938475D01*
X135637671Y-106939865D01*
X135636000Y-106947548D01*
X135636000Y-107998517D01*
X135128000Y-107998517D01*
X135128000Y-106952115D01*
X135123525Y-106936876D01*
X135122135Y-106935671D01*
X135114452Y-106934000D01*
X134065225Y-106934000D01*
X134051694Y-106937973D01*
X134050257Y-106947966D01*
X133096500Y-106947966D01*
X133096500Y-106414183D01*
X134046389Y-106414183D01*
X134047912Y-106422607D01*
X134060292Y-106426000D01*
X136700344Y-106426000D01*
X136713875Y-106422027D01*
X136715180Y-106412947D01*
X136673214Y-106245875D01*
X136669894Y-106236124D01*
X136584972Y-106040814D01*
X136580105Y-106031739D01*
X136464426Y-105852926D01*
X136458136Y-105844757D01*
X136314806Y-105687240D01*
X136307273Y-105680215D01*
X136140139Y-105548222D01*
X136131552Y-105542517D01*
X136019765Y-105480807D01*
X135969795Y-105430375D01*
X135955023Y-105360932D01*
X135980139Y-105294527D01*
X136037170Y-105252242D01*
X136080658Y-105244499D01*
X136257066Y-105244499D01*
X136297947Y-105236368D01*
X136319126Y-105232156D01*
X136319128Y-105232155D01*
X136331301Y-105229734D01*
X136341621Y-105222839D01*
X136341622Y-105222838D01*
X136405168Y-105180377D01*
X136415484Y-105173484D01*
X136471734Y-105089301D01*
X136486500Y-105015067D01*
X136486499Y-103264934D01*
X136476778Y-103216059D01*
X136474156Y-103202874D01*
X136474155Y-103202872D01*
X136471734Y-103190699D01*
X136457775Y-103169807D01*
X136422377Y-103116832D01*
X136415484Y-103106516D01*
X136331301Y-103050266D01*
X136257067Y-103035500D01*
X135382142Y-103035500D01*
X134506934Y-103035501D01*
X134471182Y-103042612D01*
X134444874Y-103047844D01*
X134444872Y-103047845D01*
X134432699Y-103050266D01*
X134422379Y-103057161D01*
X134422378Y-103057162D01*
X134419749Y-103058919D01*
X134348516Y-103106516D01*
X134292266Y-103190699D01*
X134277500Y-103264933D01*
X134277501Y-105015066D01*
X134292266Y-105089301D01*
X134348516Y-105173484D01*
X134432699Y-105229734D01*
X134506933Y-105244500D01*
X134683500Y-105244500D01*
X134751621Y-105264502D01*
X134798114Y-105318158D01*
X134808218Y-105388432D01*
X134778724Y-105453012D01*
X134741681Y-105482263D01*
X134660458Y-105524545D01*
X134651738Y-105530036D01*
X134481433Y-105657905D01*
X134473726Y-105664748D01*
X134326590Y-105818717D01*
X134320104Y-105826727D01*
X134200098Y-106002649D01*
X134195000Y-106011623D01*
X134105338Y-106204783D01*
X134101775Y-106214470D01*
X134046389Y-106414183D01*
X133096500Y-106414183D01*
X133096500Y-101980500D01*
X133116502Y-101912379D01*
X133170158Y-101865886D01*
X133222500Y-101854500D01*
X164719500Y-101854500D01*
X164787621Y-101874502D01*
G37*
G04 #@! TD.AperFunction*
M02*
